<?xml version="1.0" encoding="utf-8"?>
<!-- Generator: Adobe Illustrator 16.0.0, SVG Export Plug-In . SVG Version: 6.00 Build 0)  -->
<!DOCTYPE svg PUBLIC "-//W3C//DTD SVG 1.1//EN" "http://www.w3.org/Graphics/SVG/1.1/DTD/svg11.dtd">
<svg version="1.1" id="Layer_1" xmlns="http://www.w3.org/2000/svg" xmlns:xlink="http://www.w3.org/1999/xlink" x="0px" y="0px"
	 width="104.41px" height="37.453px" viewBox="0 0 104.41 37.453" enable-background="new 0 0 104.41 37.453" xml:space="preserve">
<g>
	<path fill="#3D3C3B" d="M67.255,35.901l-0.038,0.003c0,0-0.473,0.046-1.299,0.124c-0.413,0.033-0.91,0.107-1.486,0.125
		c-0.576,0.006-1.227,0.014-1.936,0.021c-0.707,0.017-1.477-0.062-2.286-0.091c-0.811-0.016-1.661-0.158-2.541-0.248
		c-0.882-0.074-1.78-0.287-2.699-0.417c-0.92-0.142-1.84-0.376-2.766-0.562c-1.841-0.438-3.665-0.953-5.354-1.504
		c-0.848-0.263-1.664-0.527-2.43-0.805c-0.767-0.273-1.491-0.533-2.16-0.772c-2.674-0.994-4.401-1.718-4.402-1.718l-0.013-0.006
		c-0.024-0.01-0.05-0.008-0.074-0.016c-1.48-0.792-2.954-1.577-4.417-2.372c1.559-0.603,2.953-1.614,3.506-3.274
		c0.871-2.616-1.411-4.471-1.747-6.916c-0.109-0.793-1.188-0.959-1.422-0.137c-0.44,1.543-1.147,2.836-2.117,4.103
		c-0.568,0.741-1.215,1.452-1.514,2.359c-0.211,0.642-0.252,1.358-0.086,1.993c-2.431-1.385-4.826-2.836-7.164-4.443
		c4.474-1.477,5.872-6.98,3.039-10.717c-0.323-0.426-0.957-0.469-1.237,0.04c-0.552,1.001-0.793,2.026-1.15,3.104
		c-0.549,1.658-1.759,2.318-2.637,3.688c-0.403,0.628-0.614,1.384-0.54,2.071c-0.429-0.322-0.856-0.65-1.281-0.986
		c-1.824-1.445-3.557-2.964-5.232-4.531c1.749-0.533,3.105-2.627,3.489-4.279c0.502-2.16-0.197-4.281-1.601-5.938
		c-0.432-0.511-1.172-0.006-1.191,0.538c-0.073,1.992-2.321,3.349-2.845,5.271c-0.195,0.719-0.253,1.447-0.186,2.162
		c-1.529-1.518-3.019-3.071-4.489-4.649c0.627-0.959,0.486-2.261-0.132-3.269C5.671,1.987,3.145,1.379,1.246,0.616
		C1.159,0.58,1.072,0.57,0.988,0.572c-0.011-0.06-0.023-0.118-0.034-0.178c-0.036-0.19-0.187-0.245-0.33-0.211
		C0.597,0.155,0.571,0.125,0.544,0.095C0.295-0.179-0.145,0.196,0.047,0.501c0.09,0.143,0.186,0.285,0.278,0.428
		C0.256,2.901,0.673,5.286,1.892,6.827C2.776,7.946,4.396,8.62,5.758,8.089c1.494,1.699,3.077,3.332,4.72,4.901
		c-0.707-0.163-1.462-0.16-2.159,0.017c-2.269,0.576-3.685,2.617-4.927,4.442c-0.282,0.413,0.07,0.995,0.502,1.093
		c3.084,0.702,7.358-0.379,8.902-3.416c2.09,1.865,4.247,3.639,6.422,5.312c0.286,0.219,0.575,0.438,0.863,0.658
		c-0.943-0.118-1.907,0.039-2.794,0.543c-2.042,1.161-2.894,3.885-5.36,4.306c-0.725,0.123-0.605,1.231,0.044,1.372
		c2.602,0.559,5.542,0.948,7.863-0.665c1.321-0.916,2.292-2.431,2.293-4.026c2.544,1.869,5.222,3.692,7.987,5.355
		c-0.494,0.088-0.977,0.27-1.417,0.578c-2.219,1.552-1.842,4.967-5.185,5.149c-0.68,0.038-0.997,1.053-0.312,1.358
		c2.431,1.084,5.592,1.49,7.751-0.425c1.519-1.346,2.085-3.594,1.271-5.37c0.133,0.062,0.265,0.12,0.408,0.204
		c0.074,0.044,0.144,0.062,0.21,0.064c1.692,0.921,3.415,1.759,5.157,2.5c0.102,0.052,0.197,0.1,0.314,0.157
		c0.763,0.391,1.875,0.89,3.232,1.437c1.354,0.553,2.97,1.101,4.72,1.63c0.869,0.283,1.797,0.479,2.724,0.729
		c0.935,0.217,1.891,0.421,2.846,0.614c0.966,0.155,1.92,0.355,2.877,0.466c0.957,0.107,1.891,0.25,2.811,0.277
		c0.917,0.037,1.797,0.129,2.641,0.095c0.842-0.025,1.635,0.022,2.368-0.063c0.73-0.07,1.399-0.137,1.993-0.194
		c0.591-0.069,1.1-0.191,1.521-0.261c0.84-0.154,1.319-0.244,1.319-0.244c0.198-0.036,0.342-0.221,0.322-0.426
		C67.666,36.039,67.472,35.88,67.255,35.901z M25.332,12.617c0.105,0.243,0.188,0.489,0.26,0.734
		c-0.155-0.054-0.32-0.063-0.474-0.028C25.186,13.087,25.254,12.851,25.332,12.617z"/>
	<path fill="#3D3C3B" d="M36.723,36.257c-0.02,0.205,0.124,0.39,0.322,0.426c0,0,0.479,0.09,1.319,0.244
		c0.421,0.069,0.93,0.191,1.521,0.261c0.594,0.058,1.263,0.124,1.993,0.194c0.732,0.086,1.526,0.038,2.368,0.063
		c0.844,0.034,1.724-0.058,2.641-0.095c0.92-0.027,1.854-0.17,2.811-0.277c0.957-0.11,1.912-0.311,2.877-0.466
		c0.955-0.193,1.911-0.397,2.846-0.614c0.926-0.25,1.854-0.445,2.724-0.729c1.75-0.529,3.366-1.077,4.72-1.63
		c1.357-0.547,2.469-1.046,3.232-1.437c0.117-0.058,0.212-0.105,0.314-0.157c1.742-0.741,3.465-1.579,5.157-2.5
		c0.066-0.003,0.136-0.021,0.21-0.064c0.144-0.084,0.275-0.142,0.408-0.204c-0.813,1.776-0.247,4.024,1.271,5.37
		c2.159,1.915,5.32,1.509,7.751,0.425c0.685-0.306,0.368-1.32-0.312-1.358c-3.343-0.183-2.966-3.598-5.185-5.149
		c-0.44-0.309-0.923-0.49-1.417-0.578c2.766-1.663,5.443-3.486,7.987-5.355c0.002,1.596,0.973,3.11,2.293,4.026
		c2.322,1.613,5.262,1.224,7.863,0.665c0.649-0.141,0.769-1.249,0.044-1.372c-2.467-0.421-3.318-3.145-5.36-4.306
		c-0.888-0.504-1.852-0.661-2.794-0.543c0.289-0.22,0.578-0.439,0.863-0.658c2.175-1.674,4.332-3.447,6.422-5.312
		c1.543,3.037,5.817,4.118,8.902,3.416c0.433-0.098,0.784-0.68,0.502-1.093c-1.242-1.825-2.658-3.866-4.927-4.442
		c-0.697-0.177-1.453-0.18-2.159-0.017c1.643-1.569,3.226-3.202,4.72-4.901c1.361,0.531,2.981-0.143,3.866-1.262
		c1.218-1.541,1.635-3.926,1.566-5.898c0.092-0.143,0.188-0.285,0.278-0.428c0.191-0.305-0.249-0.68-0.497-0.406
		c-0.027,0.03-0.053,0.061-0.081,0.089c-0.144-0.034-0.294,0.021-0.33,0.211c-0.011,0.06-0.023,0.118-0.034,0.178
		c-0.084-0.002-0.17,0.008-0.258,0.044c-1.899,0.763-4.425,1.371-5.571,3.238c-0.618,1.008-0.759,2.31-0.132,3.269
		c-1.47,1.578-2.959,3.132-4.489,4.649c0.067-0.715,0.009-1.443-0.186-2.162c-0.524-1.923-2.772-3.279-2.845-5.271
		c-0.019-0.544-0.76-1.049-1.191-0.538c-1.403,1.657-2.103,3.778-1.601,5.938c0.384,1.652,1.741,3.746,3.489,4.279
		c-1.676,1.567-3.408,3.086-5.232,4.531c-0.425,0.336-0.853,0.664-1.281,0.986c0.074-0.688-0.137-1.443-0.54-2.071
		c-0.878-1.37-2.088-2.03-2.637-3.688c-0.357-1.078-0.598-2.104-1.15-3.104c-0.281-0.509-0.915-0.466-1.237-0.04
		c-2.833,3.736-1.435,9.24,3.039,10.717c-2.338,1.607-4.733,3.059-7.164,4.443c0.167-0.635,0.125-1.352-0.086-1.993
		c-0.298-0.907-0.945-1.618-1.514-2.359c-0.969-1.267-1.677-2.56-2.117-4.103c-0.235-0.822-1.313-0.656-1.422,0.137
		c-0.336,2.445-2.618,4.3-1.747,6.916c0.553,1.66,1.947,2.672,3.506,3.274c-1.463,0.795-2.937,1.58-4.417,2.372
		c-0.024,0.008-0.05,0.006-0.074,0.016l-0.013,0.006c-0.001,0-1.729,0.724-4.402,1.718c-0.669,0.239-1.393,0.499-2.16,0.772
		c-0.767,0.277-1.583,0.542-2.43,0.805c-1.689,0.551-3.513,1.065-5.354,1.504c-0.926,0.186-1.846,0.42-2.766,0.562
		c-0.919,0.13-1.817,0.343-2.699,0.417c-0.88,0.09-1.73,0.232-2.541,0.248c-0.81,0.029-1.58,0.107-2.286,0.091
		c-0.709-0.007-1.359-0.015-1.936-0.021c-0.576-0.018-1.073-0.092-1.486-0.125c-0.826-0.078-1.299-0.124-1.299-0.124l-0.038-0.003
		C36.938,35.88,36.745,36.039,36.723,36.257z M79.292,13.323c-0.154-0.035-0.319-0.025-0.474,0.028
		c0.072-0.245,0.155-0.491,0.26-0.734C79.156,12.851,79.225,13.087,79.292,13.323z"/>
</g>
</svg>
