<?xml version="1.0" encoding="utf-8"?>
<!-- Generator: Adobe Illustrator 16.0.0, SVG Export Plug-In . SVG Version: 6.00 Build 0)  -->
<!DOCTYPE svg PUBLIC "-//W3C//DTD SVG 1.1//EN" "http://www.w3.org/Graphics/SVG/1.1/DTD/svg11.dtd">
<svg version="1.1" id="Layer_1" xmlns="http://www.w3.org/2000/svg" xmlns:xlink="http://www.w3.org/1999/xlink" x="0px" y="0px"
	 width="142.045px" height="75.941px" viewBox="0 0 142.045 75.941" enable-background="new 0 0 142.045 75.941"
	 xml:space="preserve">
<path fill="#3D3D3B" d="M141.415,14.745c-0.917-1.83-2.827-2.966-4.985-2.966c-1.029,0-2.045,0.261-2.939,0.754
	c-2.025,1.119-3.43,3.686-2.616,5.976c-2.903,0.641-5.909,1.48-8.955,2.501c0.806-2.814,1.871-5.15,3.386-7.43
	c0.263,0.088,0.517,0.135,0.77,0.14c0.032,0,0.064,0,0.097-0.002c0.703,0.326,1.684,0.306,2.515-0.034
	c1.212-0.494,2.036-1.659,2.149-3.04c0.098-1.204-0.316-2.373-1.165-3.293c-0.992-1.075-2.417-1.633-3.853-1.462
	c-1.251,0.146-2.372,0.937-2.997,2.113c-0.595,1.119-0.621,2.369-0.071,3.432c0.147,0.286,0.372,0.589,0.648,0.879
	c-2.035,2.759-3.271,6.135-3.432,9.378c-4.406,1.582-8.845,3.534-13.198,5.804c-0.955,0.499-1.855,0.979-2.721,1.451
	c2.702-4.97,4.511-11.525,5.035-18.343c0.055-0.018,0.11-0.036,0.166-0.056c0.028-0.01,0.055-0.022,0.082-0.035
	c1.125,0.037,2.029-0.451,2.668-1.401c0.939-1.397,1.133-3.717,0.449-5.396C111.542,1.493,109.479,0,107.315,0
	c-0.652,0-1.298,0.133-1.919,0.396c-1.406,0.593-2.543,1.757-3.122,3.192c-0.52,1.292-0.52,2.67,0.001,3.881
	c0.788,1.834,2.514,3.101,4.491,3.34c-0.369,2.667-0.825,5.494-1.581,8.337c-0.811-0.547-1.545-1.087-2.194-1.743
	c-0.514-0.519-0.895-1.104-1.297-1.722c-0.157-0.242-0.314-0.483-0.48-0.722c0.016-0.029,0.032-0.059,0.047-0.088
	c0.225-0.429,0.705-1.5,0.507-2.49c0.342-1.146,0.128-2.336-0.61-3.366c-1.057-1.474-3.076-2.418-4.865-2.236
	c-1.436,0.144-2.796,0.92-3.732,2.128c-0.943,1.219-1.357,2.746-1.134,4.188c0.396,2.562,2.733,4.569,5.32,4.569
	c0.397,0,0.792-0.049,1.175-0.146c0.567-0.144,1.117-0.395,1.617-0.735c1.077,2.014,3.236,3.551,5.12,4.192
	c-0.554,1.798-1.19,3.542-1.892,5.191c-0.167,0.393-0.353,0.764-0.532,1.124c-0.508,1.018-0.991,1.986-0.979,3.17
	c-0.119,0.035-0.228,0.094-0.321,0.175l0.264,0.434l-0.341-0.308l-0.01-0.018c-0.002,0.001-0.004,0.002-0.005,0.003l-0.017-0.015
	l-0.087,0.075c-4.123,2.4-7.646,4.772-10.765,7.249c-0.105,0.053-0.214,0.111-0.336,0.185c-3.965,2.38-11.074,8.22-18.615,15.289
	c-7.541-7.068-14.649-12.908-18.615-15.289c-0.122-0.073-0.231-0.132-0.336-0.185c-3.12-2.477-6.645-4.85-10.769-7.25l-0.083-0.073
	l-0.013,0.017c-0.003-0.001-0.006-0.003-0.009-0.005l-0.289,0.38l0.198-0.492c-0.088-0.077-0.193-0.134-0.317-0.169
	c0.013-1.185-0.47-2.153-0.979-3.172c-0.18-0.36-0.365-0.731-0.532-1.124c-0.702-1.649-1.337-3.393-1.892-5.191
	c1.883-0.641,4.043-2.178,5.12-4.192c0.5,0.34,1.05,0.591,1.617,0.735c0.382,0.097,0.777,0.146,1.174,0.146
	c2.587,0,4.924-2.007,5.32-4.569c0.223-1.443-0.19-2.969-1.134-4.188c-0.936-1.208-2.296-1.984-3.731-2.128
	c-1.799-0.182-3.809,0.762-4.866,2.236c-0.738,1.03-0.952,2.22-0.61,3.366c-0.198,0.989,0.282,2.061,0.507,2.49
	c0.015,0.03,0.031,0.059,0.047,0.088c-0.166,0.238-0.323,0.48-0.48,0.722c-0.403,0.619-0.784,1.204-1.297,1.722
	c-0.649,0.655-1.383,1.196-2.194,1.743c-0.755-2.843-1.211-5.67-1.581-8.337c1.977-0.239,3.703-1.505,4.491-3.34
	c0.521-1.211,0.521-2.59,0.001-3.881c-0.578-1.436-1.716-2.599-3.122-3.192C36.028,0.133,35.382,0,34.73,0
	c-2.164,0-4.227,1.493-5.133,3.715c-0.684,1.679-0.491,3.998,0.449,5.396c0.64,0.951,1.567,1.43,2.668,1.401
	c0.028,0.014,0.058,0.026,0.088,0.037c0.053,0.019,0.106,0.037,0.159,0.053c0.524,6.818,2.333,13.374,5.035,18.343
	c-0.865-0.473-1.766-0.953-2.721-1.451c-4.353-2.27-8.791-4.222-13.197-5.804c-0.161-3.243-1.397-6.619-3.432-9.378
	c0.276-0.291,0.5-0.594,0.648-0.88c0.549-1.062,0.523-2.312-0.072-3.431c-0.625-1.176-1.745-1.966-2.996-2.113
	c-1.441-0.169-2.862,0.387-3.853,1.462c-0.849,0.92-1.262,2.09-1.165,3.294c0.113,1.381,0.937,2.546,2.149,3.04
	c0.832,0.339,1.813,0.359,2.516,0.033c0.04,0.002,0.089,0.004,0.131,0.003c0.229-0.005,0.475-0.052,0.734-0.14
	c1.515,2.28,2.581,4.616,3.386,7.43c-3.046-1.021-6.052-1.86-8.955-2.501c0.813-2.29-0.591-4.857-2.616-5.976
	c-0.894-0.494-1.91-0.754-2.939-0.754c-2.158,0-4.068,1.136-4.985,2.966c-0.714,1.425-0.828,3.119-0.311,4.648
	c0.461,1.365,1.391,2.447,2.616,3.045c0.731,0.357,1.569,0.546,2.424,0.546c2.065,0,3.916-1.03,4.839-2.658
	c5.79,1.773,10.828,3.557,15.366,5.438c-0.219,0.246-0.435,0.494-0.651,0.742c-0.751,0.86-1.528,1.75-2.393,2.522
	c-1.63,1.455-3.152,2.184-5.292,2.508c-0.057-1.188-0.604-2.3-1.5-3.055c-0.855-0.716-1.968-1.11-3.133-1.11
	c-1.731,0-3.384,0.856-4.312,2.234c-0.681,1.009-0.904,2.299-0.611,3.538c0.296,1.255,1.085,2.325,2.164,2.935
	c0.587,0.333,1.35,0.516,2.147,0.516c1.473,0,2.776-0.583,3.468-1.535c0.04-0.013,0.079-0.028,0.117-0.045l0.134-0.062
	c0.237-0.111,0.412-0.336,0.476-0.596c0.029-0.031,0.061-0.063,0.093-0.096c0.123-0.127,0.231-0.241,0.321-0.346
	c0.348,0.073,0.709,0.11,1.078,0.11c2.156,0,4.111-1.235,5.085-1.971c2.626-1.987,4.231-3.761,4.884-5.402
	c2.546,1.108,4.837,2.2,6.991,3.33c3.122,1.636,6.324,3.601,10.038,6.158c-1.142,0.948-2.141,1.589-3.183,2.047
	c-0.996,0.437-1.996,0.616-3.054,0.805c-0.099,0.018-0.198,0.035-0.297,0.053c-0.058-0.881-0.324-1.72-0.76-2.367
	c-0.776-1.156-2.054-1.793-3.598-1.793c-1.458,0-3.014,0.562-4.162,1.503c-1.163,0.954-1.869,2.378-1.888,3.812
	c-0.017,1.273,0.507,2.436,1.475,3.274c0.854,0.739,1.975,1.146,3.154,1.146c1.446,0,2.829-0.58,3.813-1.595
	c0.691-0.318,1.227-0.869,1.568-1.609c3.323,0.102,6.665-1.945,8.624-4.099c2.03,1.434,4.068,2.931,6.042,4.381
	c1.259,0.924,2.521,1.852,3.796,2.774c0.069,0.051,0.138,0.084,0.195,0.106c3.551,2.8,8.103,6.759,12.558,10.92
	c-8.274,7.927-14.157,14.599-15.775,17.896c-0.737,1.502-0.77,1.941-0.568,2.265c0.114,0.182,0.305,0.287,0.525,0.287
	c0.767,0,2.247-1.535,7.72-7.633c3.28-3.654,6.982-7.778,10.17-10.856c3.188,3.077,6.889,7.201,10.167,10.854
	c5.476,6.101,6.956,7.635,7.723,7.635c0.22,0,0.412-0.104,0.526-0.287c0.201-0.323,0.169-0.762-0.568-2.264
	c-1.618-3.297-7.501-9.968-15.775-17.896c4.455-4.162,9.006-8.12,12.558-10.92c0.057-0.022,0.125-0.055,0.193-0.104
	c1.276-0.923,2.539-1.851,3.797-2.775c1.975-1.45,4.013-2.948,6.043-4.381c1.958,2.154,5.306,4.197,8.624,4.099
	c0.341,0.741,0.877,1.291,1.568,1.609c0.972,1,2.389,1.595,3.813,1.595c1.18,0,2.3-0.407,3.154-1.146
	c0.968-0.838,1.492-2,1.475-3.274c-0.019-1.434-0.725-2.858-1.888-3.812c-1.148-0.941-2.704-1.503-4.162-1.503
	c-1.544,0-2.822,0.637-3.598,1.793c-0.436,0.647-0.702,1.486-0.76,2.368c-0.099-0.018-0.198-0.036-0.297-0.053
	c-1.059-0.189-2.059-0.369-3.054-0.805c-1.042-0.458-2.042-1.099-3.184-2.047c3.713-2.557,6.916-4.521,10.038-6.158
	c2.153-1.13,4.444-2.222,6.99-3.33c0.653,1.641,2.258,3.415,4.884,5.402c0.974,0.736,2.929,1.971,5.085,1.971
	c0.369,0,0.73-0.037,1.078-0.11c0.09,0.105,0.198,0.219,0.321,0.346c0.032,0.033,0.063,0.065,0.093,0.096
	c0.064,0.26,0.239,0.485,0.475,0.596l0.13,0.061c0.04,0.018,0.08,0.034,0.121,0.046c0.691,0.952,1.996,1.535,3.468,1.535
	c0.797,0,1.56-0.183,2.147-0.516c1.079-0.61,1.868-1.68,2.164-2.935c0.292-1.239,0.069-2.529-0.611-3.538
	c-0.929-1.378-2.581-2.234-4.312-2.234c-1.166,0-2.278,0.394-3.134,1.111c-0.896,0.754-1.442,1.867-1.5,3.054
	c-2.139-0.324-3.661-1.053-5.292-2.508c-0.865-0.771-1.642-1.662-2.393-2.522c-0.216-0.248-0.433-0.496-0.651-0.742
	c4.538-1.881,9.576-3.664,15.366-5.438c0.923,1.628,2.773,2.658,4.839,2.658c0.854,0,1.692-0.189,2.424-0.546
	c1.226-0.598,2.155-1.68,2.616-3.045C142.242,17.864,142.129,16.17,141.415,14.745z M124.815,9.409
	c0.249-0.815,1.075-1.287,1.94-1.095c1.015,0.221,1.755,1.155,1.684,2.126c-0.042,0.578-0.357,0.994-0.844,1.112
	c-0.214,0.052-0.457-0.008-0.749-0.088c-0.166-0.045-0.333-0.09-0.505-0.119l-0.158-0.013c-0.088,0-0.175,0.012-0.261,0.036
	c-0.476-0.343-0.812-0.604-0.868-0.661C124.749,10.309,124.671,9.883,124.815,9.409z M104.489,6.312
	c-0.404-1.127-0.054-2.236,0.986-3.123c0.556-0.474,1.206-0.724,1.878-0.724c0.787,0,1.539,0.349,2.117,0.982
	c0.779,0.854,1.309,2.857,0.815,3.977c-0.254,0.576-0.741,0.822-1.503,0.753l-0.103-0.004c-0.289,0-0.55,0.113-0.735,0.318
	c-0.082,0.091-0.146,0.197-0.193,0.313C106.29,8.616,104.958,7.619,104.489,6.312z M99.618,12.948
	c-0.109,0.348-0.295,0.695-0.551,1.031c-0.48,0.627-1.15,1.045-1.887,1.178c-1.479,0.268-3-0.905-3.285-2.386
	c-0.29-1.507,0.812-3.152,2.356-3.521c0.208-0.049,0.427-0.074,0.65-0.074c0.746,0,1.473,0.282,1.944,0.752
	c0.532,0.533,0.647,1.169,0.729,1.999l-0.016,0.299c0.001,0.128,0.033,0.251,0.093,0.362c0.009,0.033,0.02,0.066,0.032,0.098
	L99.618,12.948z M42.394,12.588c0.06-0.111,0.092-0.236,0.093-0.373l-0.002-0.15l0.005-0.094l-0.019-0.043
	c0.081-0.83,0.197-1.467,0.729-2c0.613-0.612,1.691-0.894,2.594-0.679c1.545,0.368,2.647,2.013,2.357,3.521
	c-0.285,1.48-1.812,2.653-3.284,2.386c-0.738-0.133-1.408-0.551-1.887-1.178c-0.256-0.336-0.442-0.684-0.545-1.007l-0.072-0.286
	C42.374,12.654,42.385,12.622,42.394,12.588z M33.366,8.684L33.366,8.684V8.672V8.684z M34.1,8.49
	c-0.185-0.205-0.446-0.318-0.734-0.318l-0.104,0.004C32.505,8.247,32.013,8,31.759,7.424c-0.494-1.12,0.035-3.123,0.815-3.978
	c1.072-1.174,2.789-1.285,3.996-0.258c1.04,0.887,1.39,1.996,0.986,3.123c-0.469,1.307-1.8,2.304-3.262,2.492
	C34.247,8.687,34.182,8.581,34.1,8.49z M17.005,10.69c-0.068,0.072-0.406,0.335-0.883,0.678c-0.085-0.024-0.172-0.036-0.26-0.036
	l-0.158,0.013c-0.172,0.028-0.339,0.073-0.505,0.119c-0.292,0.08-0.533,0.14-0.749,0.088c-0.486-0.119-0.802-0.535-0.844-1.113
	c-0.071-0.971,0.668-1.904,1.684-2.125c0.131-0.029,0.264-0.043,0.394-0.043c0.728,0,1.335,0.447,1.546,1.138
	C17.374,9.883,17.296,10.309,17.005,10.69z M8.909,18.379c-0.188,0.083-0.347,0.213-0.468,0.384
	c-0.718,1.02-1.801,1.604-2.971,1.604c-1.045,0-1.998-0.461-2.549-1.234c-0.566-0.792-0.657-1.816-0.264-2.961
	C3.25,14.448,4.674,14.19,5.47,14.19c1.41,0,2.872,0.782,3.476,1.86C9.355,16.78,9.342,17.582,8.909,18.379z M14.653,32.768
	c-0.123,0.038-0.24,0.099-0.345,0.183l-0.384,0.311c-0.788,0.647-1.463,1.167-2.424,0.95c-0.574-0.129-1.071-0.533-1.363-1.108
	c-0.299-0.588-0.333-1.246-0.092-1.803c0.409-0.948,1.433-1.584,2.547-1.584c0.432,0,0.852,0.102,1.213,0.296
	C14.998,30.652,15.038,31.813,14.653,32.768z M35.881,39.803c-0.116,0.172-0.178,0.378-0.174,0.581
	c-0.035,0.092-0.072,0.183-0.112,0.274c-0.183,0.033-0.353,0.111-0.5,0.232c-0.847,0.699-1.847,1.414-2.843,1.414
	c-0.446,0-0.869-0.139-1.293-0.423c-0.607-0.409-0.923-0.972-0.914-1.628c0.013-0.857,0.586-1.789,1.426-2.319
	c0.722-0.456,1.604-0.729,2.359-0.729c0.885,0,1.508,0.356,1.854,1.06C35.928,38.766,35.992,39.257,35.881,39.803z M106.362,38.265
	c0.345-0.703,0.969-1.06,1.854-1.06c0.755,0,1.637,0.272,2.359,0.729c0.84,0.53,1.413,1.461,1.426,2.319
	c0.01,0.656-0.306,1.219-0.913,1.627c-0.425,0.285-0.848,0.424-1.294,0.424c-0.996,0-1.996-0.715-2.845-1.415
	c-0.147-0.12-0.317-0.199-0.499-0.231c-0.04-0.091-0.077-0.182-0.112-0.274c0.004-0.203-0.058-0.408-0.174-0.581
	C106.053,39.257,106.117,38.766,106.362,38.265z M128.239,30.013c0.361-0.194,0.781-0.296,1.213-0.296
	c1.114,0,2.138,0.636,2.547,1.584c0.241,0.558,0.208,1.215-0.092,1.803c-0.292,0.575-0.789,0.979-1.363,1.108
	c-0.961,0.216-1.635-0.303-2.423-0.95l-0.384-0.311c-0.105-0.084-0.222-0.146-0.346-0.184
	C127.007,31.813,127.047,30.652,128.239,30.013z M139.124,19.133c-0.552,0.773-1.504,1.234-2.549,1.234
	c-1.17,0-2.253-0.585-2.971-1.605c-0.121-0.171-0.28-0.301-0.468-0.384c-0.433-0.797-0.446-1.599-0.037-2.329
	c0.604-1.078,2.066-1.86,3.476-1.86c0.796,0,2.221,0.257,2.813,1.981C139.781,17.317,139.69,18.341,139.124,19.133z"/>
</svg>
