<?xml version="1.0" encoding="utf-8"?>
<!-- Generator: Adobe Illustrator 16.0.0, SVG Export Plug-In . SVG Version: 6.00 Build 0)  -->
<!DOCTYPE svg PUBLIC "-//W3C//DTD SVG 1.1//EN" "http://www.w3.org/Graphics/SVG/1.1/DTD/svg11.dtd">
<svg version="1.1" id="Layer_1" xmlns="http://www.w3.org/2000/svg" xmlns:xlink="http://www.w3.org/1999/xlink" x="0px" y="0px"
	 width="496.68px" height="53.63px" viewBox="0 0 496.68 53.63" enable-background="new 0 0 496.68 53.63" xml:space="preserve">
<g>
	<path fill-rule="evenodd" clip-rule="evenodd" fill="#333333" d="M50.34,2.18v1.421c2.08,0,3.58,0.34,4.53,0.979
		c0.95,0.65,1.42,1.76,1.42,3.35c0,1.4-0.38,3.33-1.13,5.73l-8.58,27.58L36.59,9.51c-0.5-1.489-0.72-2.649-0.72-3.439
		c0-0.681,0.16-1.2,0.52-1.561c0.36-0.34,0.86-0.569,1.49-0.699c0.64-0.141,1.54-0.21,2.74-0.21V2.18h-8.9
		c-2.83,0-5.07-0.029-6.74-0.119v1.54c1.76,0,3.14,1.5,4.09,4.46l1.84,5.64l-8.43,27.61L12.29,9.51c-0.49-1.58-0.74-2.76-0.74-3.529
		c0-0.811,0.25-1.4,0.77-1.771c0.52-0.359,1.4-0.609,2.62-0.7V2.061C13.27,2.15,10.75,2.18,7.45,2.18C4.32,2.18,1.86,2.15,0,2.061
		v1.54c2.19,0,3.8,1.47,4.8,4.399l14.74,44.91h0.57h0.54l11.07-36.69l12.1,36.69h0.54h0.59L58.08,9.72
		c1.09-3.56,2.92-5.619,5.51-6.21V2.061c-1.41,0.09-3.15,0.119-5.24,0.119H50.34z"/>
	<path fill-rule="evenodd" clip-rule="evenodd" fill="#333333" d="M101.15,1.43c2.85,0,5.43,1.021,7.76,3.03
		c2.34,2.021,4.19,4.87,5.55,8.59c1.36,3.71,2.04,8.011,2.04,12.91c0,4.84-0.61,9.12-1.83,12.88c-1.23,3.761-2.97,6.681-5.21,8.771
		c-2.27,2.1-4.87,3.149-7.84,3.149c-2.85,0-5.45-1-7.79-3.02c-2.35-2.01-4.19-4.89-5.54-8.601c-1.36-3.72-2.04-8.02-2.04-12.909
		c0-4.83,0.61-9.11,1.83-12.87s2.97-6.681,5.23-8.78C95.58,2.49,98.18,1.43,101.15,1.43z M101.42,0c-4.28,0-8.08,1.11-11.44,3.33
		c-3.35,2.22-5.97,5.32-7.85,9.33c-1.88,4.03-2.81,8.63-2.81,13.84c0,5.34,0.9,9.94,2.72,13.79c1.81,3.88,4.39,6.82,7.72,8.86
		c3.3,2.04,7.18,3.029,11.59,3.029c4.28,0,8.11-1.079,11.46-3.3c3.35-2.22,5.96-5.33,7.83-9.359c1.88-4.011,2.84-8.631,2.84-13.841
		c0-5.319-0.93-9.92-2.74-13.79c-1.84-3.85-4.42-6.789-7.73-8.829C109.71,1.021,105.84,0,101.42,0z"/>
	<path fill-rule="evenodd" clip-rule="evenodd" fill="#333333" d="M160.05,3.601V2.18h-8.83h-8.9v1.421c1.68,0,2.88,0.159,3.65,0.46
		c0.77,0.31,1.29,0.88,1.56,1.689c0.27,0.82,0.43,2.13,0.43,3.92V45.3c0,1.811-0.16,3.12-0.43,3.94c-0.27,0.81-0.79,1.38-1.56,1.67
		c-0.77,0.32-1.97,0.46-3.65,0.46v1.54h20.18h15.94c-0.32-3.38-0.47-6.41-0.47-9.13c0-2.4,0.06-4.351,0.2-5.84h-1.61
		c-0.36,3.58-0.88,6.29-1.54,8.149c-0.68,1.86-1.76,3.19-3.26,4.03c-1.52,0.84-3.71,1.25-6.61,1.25h-5.1c-1.67,0-2.9-0.14-3.64-0.41
		c-0.77-0.27-1.29-0.82-1.57-1.63c-0.29-0.82-0.43-2.13-0.43-3.94V9.67c0-1.79,0.14-3.1,0.43-3.92c0.28-0.81,0.8-1.38,1.57-1.689
		C157.15,3.76,158.38,3.601,160.05,3.601z"/>
	<path fill-rule="evenodd" clip-rule="evenodd" fill="#333333" d="M223.67,2.18v1.421c2.04,0,3.58,0.34,4.57,1
		c1,0.68,1.5,1.739,1.5,3.239c0,1.42-0.48,3.37-1.38,5.82l-11.35,30.1L204.4,9.49c-0.55-1.43-0.82-2.54-0.82-3.351
		c0-0.949,0.36-1.609,1.13-1.97c0.77-0.359,2.04-0.569,3.81-0.569V2.18h-8.9c-3.08,0-5.57-0.029-7.45-0.119v1.54
		c2.06,0,3.67,1.47,4.8,4.42l16.98,44.89h0.55h0.56l16.35-43.19c1.32-3.58,3.15-5.64,5.51-6.189v-1.47
		c-1.41,0.09-3.15,0.119-5.23,0.119H223.67z"/>
	<path fill-rule="evenodd" clip-rule="evenodd" fill="#333333" d="M287.35,39.34h-1.61c-0.36,3.261-0.88,5.71-1.54,7.38
		c-0.67,1.681-1.76,2.9-3.26,3.67c-1.51,0.771-3.71,1.141-6.61,1.141h-5.09c-1.68,0-2.9-0.141-3.65-0.41
		c-0.77-0.27-1.29-0.82-1.56-1.63c-0.3-0.82-0.43-2.13-0.43-3.94V28.24h4.62c1.88,0,3.35,0.55,4.39,1.63
		c1.04,1.09,1.65,2.7,1.88,4.83c0.2,2.13,0.34,3.37,0.38,3.71h1.61c-0.27-4.35-0.41-7.72-0.41-10.14l-0.04-3.42
		c0-2.131,0.07-4.37,0.25-6.73h-1.61c-0.07,0.41-0.18,1.31-0.36,2.67c-0.18,1.38-0.66,2.74-1.43,4.061
		c-0.77,1.31-2.33,1.97-4.66,1.97h-4.62V9.65c0-1.811,0.13-3.15,0.43-3.96c0.27-0.82,0.79-1.36,1.56-1.66
		c0.75-0.271,1.97-0.43,3.65-0.43h5.77c2.45,0,4.26,0.39,5.48,1.14c1.22,0.74,2.08,1.939,2.58,3.57c0.5,1.659,0.93,4.17,1.29,7.52
		h1.59c-0.14-1.15-0.21-2.71-0.21-4.71c0-2.65,0.16-5.64,0.48-8.94h-14.54h-20.17v1.421c1.67,0,2.87,0.159,3.64,0.46
		c0.77,0.31,1.29,0.88,1.56,1.689c0.28,0.82,0.43,2.13,0.43,3.95V45.43c0,1.82-0.15,3.15-0.43,3.971c-0.27,0.81-0.79,1.38-1.56,1.67
		c-0.77,0.319-1.97,0.46-3.64,0.46v1.38h20.17h15.94c-0.31-3.22-0.47-6.09-0.47-8.68C287.15,42.19,287.22,40.561,287.35,39.34z"/>
	<path fill-rule="evenodd" clip-rule="evenodd" fill="#333333" d="M322.88,26.82h-4.69V9.601c0-1.65,0.13-2.891,0.41-3.73
		c0.27-0.84,0.77-1.43,1.49-1.77c0.73-0.32,1.81-0.5,3.26-0.5c4.08,0,7.02,1,8.83,2.949c1.82,1.94,2.72,4.84,2.72,8.65
		c0,2.38-0.34,4.41-1.02,6.09c-0.68,1.68-1.9,3.04-3.67,4.03C328.45,26.32,326,26.82,322.88,26.82z M349.1,49.351l-1.04-0.841
		c-0.77,1.091-1.41,1.86-1.9,2.311c-0.5,0.46-1.14,0.66-1.91,0.66c-0.63,0-1.17-0.2-1.58-0.61c-0.43-0.41-0.79-1.04-1.09-1.9
		c-0.32-0.859-0.61-2.04-0.9-3.58l-1.73-7.569c-0.45-2.13-1.06-3.82-1.78-5.11c-0.75-1.27-1.75-2.29-2.99-3.04
		c-1.25-0.72-2.9-1.29-4.99-1.649l-0.83-0.141c3.26-0.5,5.88-1.47,7.92-2.97c2.02-1.47,3.44-3.14,4.3-5c0.87-1.86,1.3-3.69,1.3-5.53
		c0-2.33-0.64-4.41-1.91-6.25c-1.26-1.83-3.17-3.279-5.68-4.35c-2.51-1.061-5.57-1.601-9.19-1.601h-4.51h-6h-8.49v1.421
		c1.67,0,2.87,0.159,3.64,0.46c0.77,0.31,1.29,0.88,1.56,1.689c0.28,0.82,0.44,2.13,0.44,3.95V45.39c0,1.811-0.16,3.15-0.44,3.961
		c-0.27,0.819-0.79,1.38-1.56,1.68c-0.77,0.31-1.97,0.45-3.64,0.45v1.43h8.9h8.83v-1.43c-1.68,0-2.9-0.141-3.65-0.45
		c-0.77-0.32-1.29-0.891-1.56-1.75c-0.3-0.83-0.43-2.19-0.43-4.05V28.24h6.63c1.72,0,3.08,0.41,4.08,1.229
		c1,0.811,1.72,1.9,2.22,3.261c0.47,1.359,1,3.3,1.54,5.819l1.54,7.221c0.63,2.949,1.56,4.989,2.78,6.14
		c1.23,1.13,2.79,1.72,4.69,1.72c1.72,0,3.13-0.34,4.19-0.99C346.93,51.96,348.01,50.87,349.1,49.351z"/>
	<path fill-rule="evenodd" clip-rule="evenodd" fill="#333333" d="M381.14,3.601V2.18h-8.83h-8.9v1.421c1.67,0,2.87,0.159,3.64,0.46
		c0.77,0.31,1.29,0.88,1.56,1.689c0.28,0.82,0.43,2.13,0.43,3.95V45.39c0,1.811-0.15,3.15-0.43,3.961
		c-0.27,0.819-0.79,1.38-1.56,1.68c-0.77,0.31-1.97,0.45-3.64,0.45v1.43h8.9h8.83v-1.43c-1.68,0-2.9-0.141-3.65-0.45
		c-0.77-0.3-1.29-0.86-1.56-1.68c-0.3-0.811-0.43-2.15-0.43-3.961V9.7c0-1.82,0.13-3.13,0.43-3.95c0.27-0.81,0.79-1.38,1.56-1.689
		C378.24,3.76,379.46,3.601,381.14,3.601z"/>
	<path fill-rule="evenodd" clip-rule="evenodd" fill="#333333" d="M442.9,3.601V1.95c-1.54,0.16-3.7,0.229-6.46,0.229
		c-3.08,0-5.46-0.069-7.09-0.229v1.65c1.81,0,3.17,0.229,4.06,0.64c0.88,0.399,1.47,1.08,1.79,2.01c0.31,0.95,0.47,2.36,0.47,4.22
		v30.95L411.1,1.97c-1.54,0.141-3.35,0.21-5.43,0.21c-2.79,0-4.94-0.069-6.46-0.229v1.65c1.68,0,2.88,0.159,3.65,0.46
		c0.77,0.31,1.29,0.88,1.56,1.689c0.27,0.82,0.43,2.13,0.43,3.95v35.1c0,1.86-0.16,3.261-0.45,4.19c-0.3,0.95-0.84,1.63-1.61,2.04
		s-1.97,0.609-3.58,0.609v1.271h6.46h7.11V51.64c-1.86,0-3.22-0.199-4.08-0.609c-0.86-0.41-1.45-1.07-1.77-2
		c-0.31-0.92-0.47-2.311-0.47-4.141V7.23l29.21,45.68h1.59v-42.56c0-1.811,0.13-3.19,0.43-4.12c0.29-0.931,0.83-1.61,1.63-2.021
		C440.09,3.811,441.29,3.601,442.9,3.601z"/>
	<path fill-rule="evenodd" clip-rule="evenodd" fill="#333333" d="M496.41,39.34h-1.61c-0.36,3.261-0.88,5.71-1.54,7.38
		c-0.68,1.681-1.76,2.9-3.26,3.67c-1.51,0.771-3.71,1.141-6.61,1.141h-5.1c-1.67,0-2.89-0.141-3.64-0.41
		c-0.77-0.27-1.29-0.82-1.56-1.63c-0.3-0.82-0.43-2.13-0.43-3.94V28.24h4.62c1.88,0,3.35,0.55,4.39,1.63
		c1.04,1.09,1.65,2.7,1.88,4.83c0.2,2.13,0.34,3.37,0.38,3.71h1.61c-0.27-4.35-0.41-7.72-0.41-10.14l-0.04-3.42
		c0-2.131,0.07-4.37,0.25-6.73h-1.61c-0.07,0.41-0.18,1.31-0.36,2.67c-0.18,1.38-0.66,2.74-1.43,4.061
		c-0.77,1.31-2.33,1.97-4.66,1.97h-4.62V9.65c0-1.811,0.13-3.15,0.43-3.96c0.27-0.82,0.79-1.36,1.56-1.66
		c0.75-0.271,1.97-0.43,3.64-0.43h5.78c2.45,0,4.26,0.39,5.48,1.14c1.22,0.74,2.08,1.939,2.58,3.57c0.5,1.659,0.93,4.17,1.29,7.52
		h1.59c-0.14-1.15-0.21-2.71-0.21-4.71c0-2.65,0.16-5.64,0.48-8.94h-14.54h-20.18v1.421c1.68,0,2.88,0.159,3.65,0.46
		c0.77,0.31,1.29,0.88,1.56,1.689c0.27,0.82,0.43,2.13,0.43,3.95V45.43c0,1.82-0.16,3.15-0.43,3.971c-0.27,0.81-0.79,1.38-1.56,1.67
		c-0.77,0.319-1.97,0.46-3.65,0.46v1.38h20.18h15.94c-0.31-3.22-0.47-6.09-0.47-8.68C496.21,42.19,496.27,40.561,496.41,39.34z"/>
</g>
</svg>
