<?xml version="1.0" encoding="utf-8"?>
<!-- Generator: Adobe Illustrator 16.0.0, SVG Export Plug-In . SVG Version: 6.00 Build 0)  -->
<!DOCTYPE svg PUBLIC "-//W3C//DTD SVG 1.1//EN" "http://www.w3.org/Graphics/SVG/1.1/DTD/svg11.dtd">
<svg version="1.1" id="Layer_1" xmlns="http://www.w3.org/2000/svg" xmlns:xlink="http://www.w3.org/1999/xlink" x="0px" y="0px"
	 width="500px" height="309.998px" viewBox="0 0 500 309.998" enable-background="new 0 0 500 309.998" xml:space="preserve">
<g>
	<g>
		<path fill="#9A5A58" d="M232.64,113.95c-0.3-1.82-0.85-3.6-1.25-5.42c-0.23-0.19-0.61-0.41-1.07-0.59
			c-0.5-0.21-1.12-0.391-1.78-0.561c-0.67-0.159-1.39-0.3-2.13-0.47c-0.37-0.1-0.7-0.15-1.15-0.34c-0.37-0.19-0.65-0.41-0.95-0.63
			c-0.4-0.32-0.74-0.681-1.01-1.03c0.52,1.11,1.2,2.16,1.98,3.14c1.41,1.761,2.66,3.521,3.01,5.761c-0.05,0.22,0.02,0.41,0.16,0.58
			c0.08,0.46,0.15,0.93,0.24,1.39c0.54,2.69,0.96,5.4,0.77,8.15c-0.09,1.35-0.34,2.649-2.01,3.18c-0.86,0.27-1.51,0.979-1.99,1.76
			c-0.41,0.68-0.25,1.07,0.58,1.15c1.23,0.13,2.46,0.16,3.68-0.061c0.3-0.04,0.6-0.09,0.79-0.33c1.33-1.529,2.59-3.18,2.65-5.229
			C233.27,120.91,233.21,117.42,232.64,113.95z M287.88,107.34c-0.84-0.21-1.72-0.33-2.56-0.56c-3.62-1.01-7.4-1.69-10.51-3.99
			l-1.33-1.2c-0.36-0.609-0.84-1.159-1.201-1.79c-0.51-0.88-1.1-1.75-1.959-2.38c0.01-0.109-0.051-0.13-0.141-0.1
			c-0.92-1.2-1.979-2.271-3.34-2.98c-2.199-1.14-4.449-2.189-6.869-2.85c-4.121-1.14-8.4-1.57-12.571-2.53
			c-2.21-0.5-4.58-0.71-6.52-1.8c-3.11-1.729-5.51-4.25-6.91-7.56c-0.3-0.71-0.06-0.841,0.6-0.71c0.98,0.199,1.93,0.14,2.83-0.33
			c0.46-0.23,0.8-0.58,0.76-1.11c-0.03-0.53-0.49-0.66-0.93-0.81c-1.5-0.53-2.98-1.07-4.25-2.03c-1.89-1.41-3.34-3.14-4.15-5.33
			c-0.41-1.09-1.18-1.84-2.3-2.13c-2.09-0.54-2.77-2.28-3.61-3.87c-0.29-0.521-0.52-1.06-1.17-1.13c-0.65-0.07-1.07,0.35-1.42,0.84
			c-0.84,1.19-1.45,2.45-1.48,3.92c-0.01,0.76-0.33,0.85-1.01,0.73c-0.62-0.101-1.33-0.24-1.7,0.51c-0.2,0.07-0.21,0.22-0.17,0.38
			c-0.17,0.979,0.5,1.62,1.08,2.22c1.45,1.54,1.12,3.36,0.74,5.061c-0.26,1.16-0.43,2.239-0.23,3.41c0.44,2.489,0.81,4.97,0.67,7.5
			c-0.12,2.239-0.02,4.479,0.89,6.579c0.81,1.881,1.73,3.71,2.62,5.57c0.12,0.25,0.24,0.48,0.25,0.78c0.05,1.28,0.27,2.5,0.65,3.649
			c0.2,0.24,0.46,0.54,0.78,0.86c0.38,0.39,0.84,0.8,1.38,1.18c0.26,0.19,0.57,0.381,0.83,0.54c0.23,0.101,0.64,0.2,0.98,0.29
			c0.72,0.181,1.45,0.38,2.12,0.61c0.68,0.229,1.29,0.51,1.78,0.81c0.49,0.301,0.85,0.641,1.04,0.9c0.19,0.27,0.25,0.45,0.25,0.45
			c0.36,0.51,0.59,1.1,0.92,1.63c-0.04,0.16,0.04,0.28,0.16,0.38c0.18,0.67,0.38,1.33,0.53,2c0.51,2.42,0.53,4.88,0.66,7.33
			c0.03,0.66,0.06,1.32,0.11,1.99c0.23,2.75-0.28,5.31-2.11,7.54c-0.83,1.01-0.5,1.62,0.78,1.779c0.68,0.08,1.35,0.16,2.04,0.12
			c1.65-0.109,2.13-0.56,2.19-2.14c0.1-2.36,0.06-4.73,0.44-7.07c0.35-2.149,0.86-4.27,1.11-6.43c0.22-2.07,0.53-4.12,0.79-6.19
			c0.07-0.6,0.25-0.79,0.78-0.699l0.02,0.01l0.1,0.01l0.67,0.11c0.49,0.1,1.21,0.199,2.05,0.33l1.38,0.189
			c0.48,0.07,1,0.101,1.53,0.17c0.53,0.07,1.08,0.061,1.64,0.12c0.56,0.05,1.13,0.01,1.69,0.03c0.55,0.02,1.15-0.021,1.71-0.03
			l1.66-0.05c1.08-0.03,2.09-0.04,2.97,0.03c0.88,0.06,1.62,0.27,2.069,0.52c0.221,0.13,0.391,0.26,0.471,0.36l0.14,0.14
			c-0.03-0.02-0.09-0.05-0.17-0.11c-0.1-0.079-0.28-0.159-0.51-0.25c-0.45-0.18-1.16-0.239-2.011-0.199
			c-0.85,0.02-1.84,0.12-2.92,0.199c-0.539,0.04-1.1,0.101-1.67,0.12l-0.62,0.03c0.02,0.03,0.02,0.05,0.03,0.07
			c0.169,0.779,0.69,1.34,1.2,1.92c1.5,1.7,2.81,3.54,4.091,5.399c0.989,1.45,1.229,3.04,0.709,4.7
			c-0.31,0.96-0.709,1.891-1.01,2.851c-0.22,0.72-0.62,1.17-1.38,1.409c-0.63,0.2-1.3,0.461-1.569,1.171
			c-0.181,0.489-0.131,0.8,0.52,0.79c1.17-0.021,2.34-0.051,3.5-0.011c0.65,0.021,1-0.21,1.25-0.779
			c1.109-2.551,1.99-5.19,2.88-7.82c0.41-1.19,0.14-2.14-0.771-3.09c-1.68-1.771-1.529-4-1.55-6.391
			c0.91,0.931,1.671,1.69,2.41,2.46c2.11,2.2,4.66,4.04,5.99,6.891c0.35,0.75,0.63,1.479,0.75,2.31c0.239,1.63-0.479,3.01-0.96,4.47
			c-0.19,0.58-0.5,0.961-1.11,1.2c-0.56,0.21-1.17,0.431-1.42,1.07c-0.18,0.47-0.18,0.75,0.479,0.8
			c1.181,0.101,2.33,0.05,3.471-0.229c0.5-0.13,0.779-0.341,0.91-0.841c0.75-2.77,1.279-5.579,1.49-8.449
			c0.06-0.9-0.141-1.67-0.631-2.41c-1.039-1.59-2.13-3.16-2.88-4.92l-0.069-0.38c-0.681-2.45-0.601-5.391,0.129-7.21l0.011-0.03
			l0.08-0.19c0.1-0.279,0.35-0.81,0.771-1.5c0.59-0.949-0.291,1.101-0.15,1.95c0,0.01,0,0.021,0.01,0.03
			c0.05,0.08,0.12,0.109,0.21,0.05c0.7-0.41,0.7,0.24,0.94,0.521c0.27,0.319,0.49,0.88,0.779,0.92c0.79,0.1,0.85,0.689,1.141,1.159
			c0.209,0.36,0.22,1.19,0.99,0.431c0.17-0.181,0.26,0.09,0.319,0.189c0.72,1.29,1.92,1.78,3.29,1.46c0.95-0.21,1.65,0.15,2.45,0.36
			c0.61,0.17,1.51,0.58,1.84,0.19c0.681-0.811,1.101,0.02,1.601,0.06c0.64,0.05,1.279,0.14,1.92,0.16c0.16,0,0.42-0.03,0.34-0.22
			c-0.26-0.71,0.199-0.591,0.619-0.561c0.371,0.03,0.601-0.24,0.601-0.51c-0.011-0.62,0.37-0.58,0.819-0.62
			c0.351-0.03,1.011,0.07,0.91-0.42c-0.199-0.89,0.291-0.8,0.86-0.83c0.28,0,0.57-0.11,0.83-0.22c0.25-0.11,0.38-0.36,0.36-0.62
			C288.4,107.34,288.07,107.38,287.88,107.34z"/>
	</g>
	<g>
		<path fill="#333333" d="M52.04,159.26v1.421c2.08,0,3.58,0.34,4.53,0.979c0.95,0.649,1.42,1.76,1.42,3.35
			c0,1.4-0.38,3.33-1.13,5.73l-8.58,27.579l-9.99-31.729c-0.5-1.489-0.72-2.649-0.72-3.438c0-0.68,0.16-1.2,0.52-1.562
			c0.36-0.34,0.86-0.569,1.49-0.698c0.64-0.142,1.54-0.211,2.74-0.211v-1.421h-8.9c-2.83,0-5.07-0.028-6.74-0.118v1.539
			c1.76,0,3.14,1.5,4.09,4.461l1.84,5.639l-8.43,27.611L13.99,166.59c-0.49-1.58-0.74-2.76-0.74-3.528c0-0.812,0.25-1.4,0.77-1.771
			c0.52-0.359,1.4-0.609,2.62-0.7v-1.448c-1.67,0.09-4.19,0.118-7.49,0.118c-3.13,0-5.59-0.028-7.45-0.118v1.539
			c2.19,0,3.8,1.471,4.8,4.399l14.74,44.91h0.57h0.54l11.07-36.69l12.1,36.69h0.54h0.59l13.13-43.19c1.09-3.56,2.92-5.619,5.51-6.21
			v-1.448c-1.41,0.09-3.15,0.118-5.24,0.118H52.04L52.04,159.26z"/>
		<path fill="#333333" d="M102.85,158.51c2.85,0,5.43,1.021,7.76,3.03c2.34,2.021,4.19,4.87,5.55,8.59
			c1.36,3.71,2.04,8.012,2.04,12.91c0,4.84-0.61,9.12-1.83,12.88c-1.23,3.761-2.97,6.681-5.21,8.771
			c-2.27,2.101-4.87,3.149-7.84,3.149c-2.85,0-5.45-1-7.79-3.021c-2.35-2.01-4.19-4.889-5.54-8.601
			c-1.36-3.72-2.04-8.02-2.04-12.909c0-4.83,0.61-9.109,1.83-12.869c1.22-3.76,2.97-6.682,5.23-8.78
			C97.28,159.569,99.88,158.51,102.85,158.51z M103.12,157.08c-4.28,0-8.08,1.11-11.44,3.33c-3.35,2.22-5.97,5.319-7.85,9.33
			c-1.88,4.03-2.81,8.63-2.81,13.84c0,5.34,0.9,9.94,2.72,13.79c1.81,3.88,4.39,6.82,7.72,8.859c3.3,2.041,7.18,3.029,11.59,3.029
			c4.28,0,8.11-1.078,11.46-3.3c3.35-2.22,5.96-5.33,7.83-9.358c1.88-4.012,2.84-8.631,2.84-13.842c0-5.318-0.93-9.92-2.74-13.789
			c-1.84-3.851-4.42-6.789-7.73-8.83C111.41,158.101,107.54,157.08,103.12,157.08z"/>
		<path fill="#333333" d="M161.75,160.681v-1.421h-8.83h-8.9v1.421c1.68,0,2.88,0.159,3.65,0.461c0.77,0.31,1.29,0.879,1.56,1.688
			c0.27,0.819,0.43,2.13,0.43,3.92v35.63c0,1.811-0.16,3.12-0.43,3.939c-0.27,0.811-0.79,1.381-1.56,1.671
			c-0.77,0.319-1.97,0.46-3.65,0.46v1.54h20.18h15.94c-0.32-3.38-0.47-6.41-0.47-9.13c0-2.4,0.06-4.352,0.2-5.84h-1.61
			c-0.36,3.58-0.88,6.289-1.54,8.148c-0.68,1.859-1.76,3.189-3.26,4.03c-1.52,0.84-3.71,1.25-6.61,1.25h-5.1
			c-1.67,0-2.9-0.14-3.64-0.41c-0.77-0.271-1.29-0.82-1.57-1.63c-0.29-0.82-0.43-2.131-0.43-3.94v-35.72c0-1.79,0.14-3.1,0.43-3.92
			c0.28-0.811,0.8-1.38,1.57-1.689C158.85,160.84,160.08,160.681,161.75,160.681z"/>
		<path fill="#333333" d="M225.37,159.26v1.421c2.04,0,3.58,0.34,4.57,1c1,0.68,1.5,1.739,1.5,3.239c0,1.42-0.48,3.37-1.38,5.82
			l-11.35,30.1l-12.61-34.271c-0.55-1.43-0.82-2.539-0.82-3.35c0-0.949,0.36-1.609,1.13-1.971c0.77-0.359,2.04-0.568,3.81-0.568
			v-1.422h-8.9c-3.08,0-5.57-0.029-7.45-0.119v1.541c2.06,0,3.67,1.469,4.8,4.42l16.98,44.89h0.55h0.56l16.35-43.19
			c1.32-3.578,3.15-5.64,5.51-6.189v-1.469c-1.41,0.09-3.15,0.118-5.23,0.118H225.37z"/>
		<path fill="#333333" d="M289.05,196.42h-1.61c-0.359,3.261-0.879,5.71-1.539,7.38c-0.67,1.682-1.76,2.9-3.26,3.67
			c-1.511,0.771-3.711,1.141-6.611,1.141h-5.09c-1.68,0-2.899-0.141-3.649-0.409c-0.771-0.271-1.29-0.82-1.56-1.63
			c-0.301-0.82-0.431-2.131-0.431-3.94v-17.31h4.62c1.88,0,3.35,0.55,4.391,1.63c1.039,1.09,1.649,2.7,1.879,4.83
			c0.201,2.13,0.341,3.37,0.381,3.71h1.609c-0.27-4.35-0.41-7.721-0.41-10.141l-0.039-3.42c0-2.131,0.069-4.369,0.25-6.729h-1.61
			c-0.07,0.409-0.181,1.31-0.36,2.67c-0.18,1.38-0.66,2.739-1.43,4.062c-0.77,1.31-2.33,1.969-4.66,1.969h-4.62v-17.17
			c0-1.811,0.13-3.149,0.431-3.959c0.27-0.82,0.789-1.36,1.56-1.66c0.75-0.271,1.97-0.43,3.649-0.43h5.771
			c2.45,0,4.261,0.39,5.479,1.14c1.221,0.739,2.08,1.938,2.58,3.569c0.5,1.659,0.931,4.17,1.291,7.521h1.59
			c-0.141-1.149-0.211-2.71-0.211-4.71c0-2.65,0.16-5.641,0.48-8.939h-14.54h-20.17v1.42c1.67,0,2.87,0.159,3.64,0.461
			c0.771,0.31,1.291,0.879,1.561,1.688c0.279,0.819,0.43,2.13,0.43,3.95v35.729c0,1.82-0.15,3.15-0.43,3.971
			c-0.27,0.811-0.79,1.381-1.561,1.67c-0.77,0.32-1.97,0.461-3.64,0.461v1.38h20.17h15.94c-0.311-3.22-0.471-6.091-0.471-8.681
			C288.85,199.271,288.92,197.642,289.05,196.42z"/>
		<path fill="#333333" d="M324.58,183.899h-4.69v-17.219c0-1.65,0.13-2.892,0.41-3.73c0.271-0.84,0.771-1.43,1.49-1.77
			c0.729-0.32,1.81-0.5,3.26-0.5c4.08,0,7.021,1,8.83,2.948c1.82,1.94,2.72,4.841,2.72,8.649c0,2.381-0.34,4.41-1.02,6.091
			c-0.68,1.68-1.9,3.04-3.67,4.03C330.15,183.399,327.7,183.899,324.58,183.899z M350.8,206.431l-1.04-0.841
			c-0.77,1.091-1.41,1.86-1.899,2.312c-0.5,0.459-1.141,0.66-1.91,0.66c-0.63,0-1.17-0.201-1.58-0.61c-0.43-0.41-0.79-1.04-1.09-1.9
			c-0.32-0.858-0.61-2.04-0.9-3.579l-1.729-7.57c-0.45-2.129-1.061-3.819-1.78-5.109c-0.75-1.27-1.75-2.29-2.99-3.04
			c-1.25-0.72-2.899-1.29-4.99-1.649l-0.83-0.141c3.261-0.5,5.881-1.47,7.921-2.97c2.02-1.47,3.439-3.14,4.3-5
			c0.87-1.86,1.3-3.69,1.3-5.53c0-2.33-0.64-4.41-1.91-6.25c-1.26-1.83-3.17-3.279-5.68-4.35c-2.51-1.062-5.57-1.602-9.19-1.602
			h-4.51h-6h-8.49v1.422c1.67,0,2.87,0.158,3.641,0.459c0.77,0.311,1.29,0.881,1.56,1.689c0.28,0.82,0.44,2.13,0.44,3.95v35.688
			c0,1.812-0.16,3.15-0.44,3.961c-0.27,0.819-0.79,1.381-1.56,1.68c-0.771,0.311-1.971,0.451-3.641,0.451v1.43h8.9h8.83v-1.43
			c-1.681,0-2.9-0.142-3.65-0.451c-0.77-0.319-1.29-0.891-1.56-1.75c-0.301-0.83-0.431-2.189-0.431-4.049v-16.99h6.63
			c1.721,0,3.08,0.41,4.08,1.229c1,0.811,1.721,1.9,2.221,3.262c0.47,1.358,1,3.299,1.54,5.818l1.54,7.221
			c0.63,2.949,1.56,4.989,2.779,6.141c1.23,1.13,2.79,1.72,4.69,1.72c1.72,0,3.13-0.34,4.189-0.989
			C348.63,209.04,349.71,207.95,350.8,206.431z"/>
		<path fill="#333333" d="M382.84,160.681v-1.421h-8.83h-8.899v1.421c1.67,0,2.87,0.159,3.64,0.461c0.77,0.31,1.29,0.879,1.56,1.688
			c0.28,0.819,0.431,2.13,0.431,3.95v35.688c0,1.812-0.15,3.15-0.431,3.962c-0.27,0.818-0.79,1.379-1.56,1.68
			c-0.77,0.31-1.97,0.449-3.64,0.449v1.43h8.899h8.83v-1.43c-1.68,0-2.899-0.141-3.649-0.449c-0.771-0.301-1.29-0.86-1.561-1.68
			c-0.3-0.812-0.43-2.15-0.43-3.962V166.78c0-1.82,0.13-3.131,0.43-3.95c0.271-0.81,0.79-1.38,1.561-1.688
			C379.94,160.84,381.16,160.681,382.84,160.681z"/>
		<path fill="#333333" d="M444.6,160.681v-1.649c-1.54,0.159-3.699,0.229-6.46,0.229c-3.08,0-5.46-0.069-7.09-0.229v1.649
			c1.811,0,3.17,0.229,4.061,0.641c0.88,0.4,1.47,1.08,1.79,2.01c0.31,0.949,0.47,2.359,0.47,4.22v30.95l-24.57-39.45
			c-1.54,0.142-3.35,0.21-5.43,0.21c-2.79,0-4.94-0.068-6.46-0.229v1.65c1.68,0,2.88,0.158,3.649,0.459
			c0.771,0.311,1.29,0.881,1.561,1.689c0.27,0.82,0.43,2.13,0.43,3.949v35.101c0,1.86-0.16,3.261-0.45,4.19
			c-0.3,0.949-0.84,1.63-1.609,2.039c-0.771,0.41-1.971,0.609-3.58,0.609v1.271h6.46h7.11v-1.271c-1.86,0-3.221-0.199-4.08-0.609
			c-0.86-0.409-1.45-1.069-1.771-2c-0.31-0.92-0.47-2.311-0.47-4.141v-37.658l29.21,45.68h1.59v-42.561
			c0-1.811,0.13-3.189,0.43-4.119c0.29-0.932,0.83-1.61,1.63-2.021C441.79,160.892,442.99,160.681,444.6,160.681z"/>
		<path fill="#333333" d="M498.11,196.42h-1.61c-0.36,3.261-0.88,5.71-1.54,7.38c-0.68,1.682-1.76,2.9-3.26,3.67
			c-1.51,0.771-3.71,1.141-6.61,1.141h-5.1c-1.67,0-2.891-0.141-3.641-0.409c-0.77-0.271-1.29-0.82-1.56-1.63
			c-0.3-0.82-0.43-2.131-0.43-3.94v-17.31h4.62c1.88,0,3.35,0.55,4.39,1.63c1.04,1.09,1.649,2.7,1.88,4.83
			c0.2,2.13,0.34,3.37,0.38,3.71h1.61c-0.271-4.35-0.41-7.721-0.41-10.141l-0.04-3.42c0-2.131,0.07-4.369,0.25-6.729h-1.61
			c-0.069,0.409-0.18,1.31-0.359,2.67c-0.181,1.38-0.66,2.739-1.431,4.062c-0.77,1.31-2.33,1.969-4.659,1.969h-4.62v-17.17
			c0-1.811,0.13-3.149,0.43-3.959c0.27-0.82,0.79-1.36,1.56-1.66c0.75-0.271,1.971-0.43,3.641-0.43h5.779
			c2.45,0,4.261,0.39,5.48,1.14c1.22,0.739,2.08,1.938,2.58,3.569c0.5,1.659,0.93,4.17,1.29,7.521h1.59
			c-0.14-1.149-0.21-2.71-0.21-4.71c0-2.65,0.16-5.641,0.48-8.939h-14.54H462.26v1.42c1.681,0,2.88,0.159,3.65,0.461
			c0.77,0.31,1.29,0.879,1.56,1.688c0.271,0.819,0.431,2.13,0.431,3.95v35.729c0,1.82-0.16,3.15-0.431,3.971
			c-0.27,0.811-0.79,1.381-1.56,1.67c-0.771,0.32-1.97,0.461-3.65,0.461v1.38h20.181h15.939c-0.31-3.22-0.47-6.091-0.47-8.681
			C497.91,199.271,497.97,197.642,498.11,196.42z"/>
	</g>
	<rect y="128.82" fill="#9A5A58" width="202.9" height="2.9"/>
	<rect x="297.1" y="128.82" fill="#9A5A58" width="202.9" height="2.9"/>
	<rect y="241.88" fill="#9A5A58" width="500" height="2.891"/>
	<path fill="#9A5A58" d="M18.84,95.48c0-2.4,1.95-4.351,4.35-4.351s4.35,1.95,4.35,4.351c0,2.399-1.95,4.35-4.35,4.35
		S18.84,97.88,18.84,95.48z"/>
	<path fill="#9A5A58" d="M466.67,95.48c0-2.4,1.94-4.351,4.34-4.351c2.41,0,4.351,1.95,4.351,4.351c0,2.399-1.94,4.35-4.351,4.35
		C468.61,99.83,466.67,97.88,466.67,95.48z"/>
	<g>
		<g>
			<path fill="#9A5A58" d="M231.02,305.01l40.8-40.81c1.289,0.689,2.91,0.5,4-0.58c1.32-1.33,1.32-3.479,0-4.811
				c-1.33-1.319-3.48-1.319-4.811,0c-1.08,1.09-1.27,2.721-0.58,4l-40.8,40.811c-1.29-0.689-2.91-0.51-4,0.58
				c-1.32,1.33-1.32,3.48,0,4.8c1.33,1.33,3.48,1.33,4.81,0C231.52,307.92,231.7,306.29,231.02,305.01z"/>
		</g>
		<g>
			<path fill="#333333" d="M270.43,305.01l-40.8-40.81c-1.29,0.689-2.91,0.5-4-0.58c-1.32-1.33-1.32-3.479,0-4.811
				c1.33-1.319,3.48-1.319,4.81,0c1.08,1.09,1.26,2.721,0.58,4l40.8,40.811c1.289-0.689,2.91-0.51,4,0.58c1.32,1.33,1.32,3.48,0,4.8
				c-1.33,1.33-3.48,1.33-4.811,0C269.93,307.92,269.74,306.29,270.43,305.01z"/>
		</g>
	</g>
	<g>
		<polygon fill="#9A5A58" points="172.26,276.979 172.26,291.16 182.47,291.16 182.47,288.91 174.66,288.91 174.66,285.11 
			181.45,285.11 181.45,282.979 174.66,282.979 174.66,279.22 182.22,279.22 182.22,276.979 		"/>
		<polygon fill="#9A5A58" points="197.19,279.149 197.19,276.979 186.21,276.979 186.21,279.149 190.51,279.149 190.51,291.16 
			192.89,291.16 192.89,279.149 		"/>
		<path fill="#9A5A58" d="M204.84,287.53c-0.97-0.95-1.45-2.15-1.45-3.6c0-1.451,0.48-2.621,1.45-3.552
			c0.98-0.93,2.18-1.41,3.63-1.41c0.81,0,1.51,0.142,2.1,0.392c0.59,0.27,1.25,0.72,1.93,1.358l1.51-1.659
			c-1.47-1.629-3.3-2.439-5.5-2.439c-2.22,0-4.03,0.72-5.46,2.13c-1.45,1.399-2.15,3.17-2.15,5.271c0,2.109,0.7,3.851,2.11,5.229
			c1.4,1.392,3.19,2.069,5.34,2.069c2.13,0,3.97-0.819,5.46-2.5l-1.54-1.579c-0.66,0.61-1.29,1.06-1.88,1.34
			c-0.59,0.271-1.29,0.399-2.11,0.399C206.95,288.979,205.79,288.51,204.84,287.53z"/>
		<path fill="#9A5A58" d="M219.61,291.319c0.41,0,0.77-0.159,1.09-0.43c0.29-0.301,0.45-0.66,0.45-1.091
			c0-0.409-0.16-0.771-0.45-1.069c-0.32-0.271-0.68-0.431-1.09-0.431c-0.4,0-0.77,0.16-1.06,0.431c-0.3,0.301-0.43,0.66-0.43,1.069
			c0,0.431,0.13,0.79,0.43,1.091C218.84,291.16,219.21,291.319,219.61,291.319z"/>
	</g>
	<g>
		<path fill="#9A5A58" d="M288.811,284.819l-4.301,4.301v2.04h9.69v-2.29h-6.431l3.33-3.4c1-1.039,1.7-1.88,2.08-2.56
			c0.391-0.65,0.59-1.36,0.59-2.08c0-1.29-0.449-2.31-1.359-3.08c-0.9-0.75-1.939-1.13-3.12-1.13s-2.149,0.25-2.899,0.72
			c-0.75,0.479-1.431,1.181-2.041,2.11l1.93,1.109c0.771-1.181,1.721-1.789,2.9-1.789c0.65,0,1.2,0.198,1.631,0.608
			c0.43,0.41,0.649,0.88,0.649,1.45c0,0.59-0.2,1.15-0.61,1.699C290.439,283.069,289.76,283.84,288.811,284.819z"/>
		<path fill="#9A5A58" d="M304.52,291.319c1.931,0,3.37-0.659,4.351-2c0.95-1.311,1.45-3.101,1.45-5.34c0-2.221-0.5-4.01-1.45-5.351
			c-0.98-1.33-2.42-2.01-4.351-2.01c-1.949,0-3.399,0.68-4.35,2.01c-0.95,1.34-1.42,3.13-1.42,5.351c0,2.24,0.47,4.029,1.42,5.34
			C301.12,290.66,302.57,291.319,304.52,291.319z M304.52,278.681c1.181,0,2.061,0.5,2.601,1.449c0.55,0.971,0.84,2.262,0.84,3.852
			c0,1.608-0.29,2.898-0.84,3.85c-0.54,0.97-1.42,1.45-2.601,1.45c-1.199,0-2.08-0.48-2.629-1.45c-0.561-0.979-0.83-2.27-0.83-3.85
			c0-1.59,0.27-2.86,0.83-3.83C302.439,279.181,303.32,278.681,304.52,278.681z"/>
		<polygon fill="#9A5A58" points="314.36,279.11 317.23,279.11 317.23,291.16 319.52,291.16 319.52,276.979 314.36,276.979 		"/>
		<path fill="#9A5A58" d="M325.46,276.96v6.811l1.021,1.09c0.81-0.43,1.649-0.659,2.56-0.659c0.9,0,1.65,0.229,2.24,0.64
			c0.59,0.432,0.88,1.04,0.88,1.811s-0.29,1.359-0.84,1.771c-0.561,0.399-1.17,0.61-1.851,0.61c-0.68,0-1.29-0.12-1.859-0.36
			c-0.57-0.25-0.95-0.46-1.13-0.62c-0.181-0.13-0.341-0.27-0.431-0.38l-1.27,1.74c1.13,1.271,2.649,1.909,4.55,1.909
			c1.45,0,2.689-0.43,3.689-1.34s1.521-2.039,1.521-3.399s-0.5-2.438-1.45-3.261c-0.95-0.789-2.109-1.199-3.42-1.199
			c-0.77,0-1.45,0.18-2.04,0.5v-3.49h5.98v-2.17h-8.15V276.96z"/>
	</g>
	<g>
		<path fill="#333333" d="M57.64,58.3l0.45-0.239c-0.54-1.23-0.88-2.181-1.04-2.84C56.94,54.57,56.98,54,57.23,53.5
			c0.29-0.5,0.84-0.97,1.65-1.42l1.11-0.62L67.1,64.4c0.34,0.63,0.55,1.13,0.59,1.47c0.05,0.34-0.02,0.63-0.25,0.9
			c-0.22,0.279-0.63,0.59-1.22,0.91l0.23,0.409c0.63-0.359,1.65-0.909,3.01-1.659c1.27-0.7,2.26-1.24,2.99-1.65l-0.23-0.41
			c-0.61,0.34-1.09,0.521-1.43,0.57c-0.34,0.05-0.63-0.07-0.9-0.29c-0.27-0.23-0.57-0.66-0.91-1.3l-7.11-12.93l1.11-0.609
			c0.84-0.45,1.54-0.681,2.09-0.63c0.54,0.04,1.04,0.31,1.51,0.79c0.48,0.479,1.09,1.27,1.86,2.38l0.45-0.25
			c-0.29-0.45-0.63-1.04-1.04-1.811c-0.47-0.84-0.95-1.81-1.45-2.95c-1.13,0.641-3.03,1.681-5.71,3.15
			c-2.69,1.5-4.59,2.54-5.72,3.15c0.67,1,1.24,1.92,1.72,2.779C57.09,57.19,57.41,57.811,57.64,58.3z"/>
		<path fill="#333333" d="M89.66,36.851l-0.21-0.4c-0.58,0.271-1.47,0.7-2.67,1.26L84.13,39l0.21,0.41c0.5-0.25,0.9-0.38,1.17-0.38
			c0.28,0,0.5,0.09,0.71,0.31c0.2,0.23,0.45,0.62,0.74,1.181l2.61,5.41l-6.8,3.27l-2.6-5.42c-0.27-0.56-0.43-0.99-0.5-1.29
			c-0.02-0.29,0.07-0.54,0.23-0.77c0.2-0.2,0.54-0.431,1.04-0.681l-0.2-0.399c-0.64,0.31-1.52,0.72-2.65,1.26
			c-1.2,0.59-2.09,1.02-2.68,1.29l0.21,0.41c0.5-0.221,0.88-0.36,1.15-0.36c0.28,0,0.52,0.09,0.73,0.29
			c0.22,0.229,0.47,0.62,0.75,1.18l5.41,11.28c0.27,0.59,0.43,1.02,0.47,1.31c0.03,0.32-0.04,0.57-0.22,0.771
			c-0.18,0.21-0.52,0.43-1.02,0.66l0.2,0.41l2.67-1.29c1.14-0.551,2.02-0.95,2.65-1.271l-0.2-0.41c-0.5,0.25-0.91,0.391-1.18,0.391
			c-0.27,0.02-0.52-0.07-0.72-0.301c-0.21-0.22-0.43-0.609-0.7-1.18l-2.63-5.43l6.79-3.26l2.63,5.43c0.27,0.57,0.41,1,0.45,1.29
			c0.05,0.3-0.02,0.55-0.2,0.75c-0.18,0.21-0.55,0.43-1.04,0.68l0.2,0.41l2.65-1.29c1.2-0.57,2.08-1,2.67-1.27l-0.2-0.41
			c-0.5,0.229-0.89,0.359-1.16,0.359c-0.27,0.03-0.52-0.06-0.72-0.29c-0.21-0.229-0.45-0.609-0.73-1.199l-5.41-11.28
			c-0.29-0.57-0.45-1-0.5-1.29c-0.04-0.29,0.05-0.54,0.23-0.771C88.82,37.311,89.16,37.08,89.66,36.851z"/>
		<path fill="#333333" d="M116,39.49l-0.48,0.2c0.27,1.04,0.43,1.859,0.43,2.45c0,0.58-0.18,1.109-0.54,1.51
			c-0.36,0.43-1,0.82-1.88,1.18l-1.56,0.66c-0.52,0.22-0.91,0.34-1.18,0.34s-0.52-0.09-0.7-0.32c-0.21-0.229-0.43-0.609-0.66-1.18
			l-2.26-5.479l1.42-0.591c0.57-0.22,1.09-0.25,1.56-0.02c0.48,0.23,0.91,0.7,1.27,1.38c0.36,0.68,0.57,1.09,0.64,1.18l0.47-0.199
			c-0.63-1.271-1.08-2.29-1.38-3.04l-0.45-1.04c-0.27-0.63-0.55-1.34-0.77-2.11l-0.5,0.21c0.02,0.13,0.09,0.38,0.18,0.79
			c0.09,0.41,0.11,0.84,0.02,1.29c-0.09,0.45-0.47,0.84-1.2,1.13l-1.42,0.59l-2.27-5.43c-0.22-0.57-0.34-1-0.36-1.29
			c0-0.3,0.09-0.55,0.27-0.729c0.21-0.181,0.57-0.381,1.07-0.61l1.79-0.75c0.72-0.29,1.33-0.38,1.83-0.29
			c0.47,0.09,0.9,0.4,1.31,0.9c0.39,0.5,0.86,1.319,1.45,2.399l0.48-0.2c-0.21-0.359-0.43-0.88-0.7-1.56
			c-0.37-0.89-0.75-1.91-1.11-3.061c-0.91,0.36-2.4,0.971-4.49,1.83c-2.72,1.141-4.8,2-6.2,2.561l0.18,0.41
			c0.52-0.2,0.9-0.29,1.18-0.29c0.27,0,0.52,0.109,0.68,0.34c0.2,0.22,0.43,0.609,0.65,1.17l4.64,11.28
			c0.23,0.59,0.37,1.02,0.39,1.319c0.02,0.29-0.07,0.54-0.25,0.721c-0.18,0.18-0.54,0.39-1.04,0.59l0.16,0.41
			c1.4-0.57,3.46-1.431,6.2-2.561c2.31-0.95,3.94-1.609,4.92-2.02c-0.5-0.931-0.91-1.79-1.23-2.58
			C116.29,40.37,116.11,39.87,116,39.49z"/>
		<path fill="#333333" d="M138.69,18.561l-0.14-0.41c-0.68,0.25-1.61,0.57-2.78,0.95l-1.04,0.37l-0.21,14.72l-9.35-11.51
			c-0.45,0.21-1.07,0.43-1.84,0.699c-0.88,0.32-1.56,0.53-2.06,0.641l0.16,0.47c0.55-0.18,0.93-0.24,1.2-0.24
			c0.27,0.021,0.5,0.13,0.66,0.36c0.2,0.22,0.38,0.63,0.59,1.2l3.78,11.029c0.18,0.591,0.29,1.061,0.32,1.381
			c0,0.319-0.09,0.59-0.3,0.81c-0.22,0.229-0.56,0.41-1.06,0.57l0.16,0.43c0.47-0.16,1.15-0.38,2.04-0.7
			c0.95-0.32,1.69-0.59,2.21-0.77l-0.15-0.431c-0.59,0.2-1.02,0.29-1.34,0.25c-0.32-0.029-0.57-0.159-0.77-0.43
			c-0.23-0.25-0.43-0.68-0.61-1.27l-4.12-11.96l10.53,12.64l0.36-0.14l0.29-16.28l4.17,12.12c0.18,0.58,0.29,1.01,0.29,1.29
			c0,0.29-0.11,0.52-0.31,0.699c-0.21,0.181-0.57,0.36-1.09,0.54l0.16,0.431c0.61-0.2,1.54-0.521,2.81-0.971
			c1.17-0.39,2.1-0.699,2.78-0.949l-0.16-0.431c-0.54,0.181-0.92,0.271-1.2,0.25c-0.27,0-0.49-0.14-0.68-0.37
			c-0.18-0.22-0.38-0.609-0.56-1.199l-3.85-11.25c-0.23-0.57-0.32-1-0.32-1.29c0-0.28,0.11-0.521,0.32-0.71
			C137.78,18.92,138.14,18.74,138.69,18.561z"/>
		<path fill="#333333" d="M163.23,24.12l-0.5,0.14c0.13,1.04,0.18,1.83,0.09,2.4c-0.09,0.59-0.34,1.07-0.75,1.43
			c-0.41,0.36-1.09,0.681-1.99,0.931l-1.66,0.45c-0.54,0.159-0.95,0.229-1.22,0.18c-0.27-0.021-0.5-0.141-0.65-0.36
			c-0.16-0.229-0.32-0.609-0.46-1.2l-1.49-5.439l1.49-0.43c0.59-0.131,1.11-0.091,1.54,0.159c0.43,0.271,0.77,0.73,1.04,1.4
			c0.25,0.68,0.41,1.09,0.48,1.21l0.52-0.16c-0.48-1.29-0.81-2.31-1-3.06l-0.27-1.021c-0.18-0.66-0.36-1.359-0.5-2.08l-0.52,0.15
			c0,0.12,0.05,0.37,0.09,0.77c0.05,0.41-0.02,0.82-0.15,1.25c-0.16,0.431-0.62,0.75-1.34,0.931l-1.5,0.43l-1.49-5.44
			c-0.18-0.56-0.25-0.989-0.23-1.289c0.03-0.271,0.14-0.5,0.37-0.65c0.22-0.14,0.61-0.3,1.15-0.46l1.86-0.521
			c0.77-0.199,1.4-0.22,1.85-0.09c0.46,0.16,0.87,0.5,1.18,1c0.32,0.521,0.68,1.33,1.11,2.44l0.5-0.13
			c-0.14-0.391-0.29-0.91-0.48-1.59c-0.24-0.881-0.47-1.881-0.68-3.011l-4.66,1.271l-6.5,1.79l0.11,0.41
			c0.55-0.141,0.96-0.21,1.2-0.19c0.3,0.05,0.5,0.19,0.66,0.41c0.21,0.229,0.36,0.64,0.5,1.2l3.08,11.26
			c0.16,0.59,0.23,1.02,0.2,1.29c-0.04,0.27-0.16,0.5-0.36,0.66c-0.23,0.18-0.59,0.34-1.13,0.47l0.11,0.43
			c1.45-0.41,3.62-0.989,6.5-1.79c2.4-0.649,4.1-1.13,5.12-1.399c-0.39-0.95-0.68-1.84-0.88-2.63
			C163.38,25.03,163.27,24.53,163.23,24.12z"/>
		<path fill="#333333" d="M202.05,4.721l-0.06-0.41c-0.73,0.14-1.7,0.3-2.9,0.479L198,4.971l-2.78,13.88l-7.18-12.29
			c-0.5,0.109-1.16,0.22-1.95,0.359c-0.91,0.16-1.63,0.25-2.15,0.29l0.09,0.46c0.56-0.09,0.97-0.09,1.22-0.05
			c0.3,0.07,0.45,0.23,0.59,0.45c0.14,0.25,0.25,0.66,0.36,1.229l1.79,11c0.09,0.591,0.14,1.051,0.09,1.36
			c-0.04,0.32-0.2,0.55-0.43,0.7c-0.25,0.189-0.63,0.3-1.15,0.39l0.06,0.45c0.5-0.07,1.23-0.18,2.13-0.34
			c1-0.16,1.79-0.29,2.34-0.38l-0.07-0.46c-0.61,0.1-1.07,0.12-1.38,0.029c-0.32-0.069-0.55-0.25-0.68-0.52
			c-0.14-0.28-0.27-0.73-0.36-1.32l-1.95-11.96l8.13,13.62l0.36-0.05l3.15-15.4l1.99,12.12c0.09,0.59,0.09,0.99,0.05,1.271
			c-0.05,0.27-0.19,0.47-0.41,0.609c-0.23,0.13-0.64,0.25-1.18,0.34l0.07,0.45c0.63-0.09,1.63-0.25,2.94-0.479
			c1.2-0.181,2.18-0.34,2.9-0.471l-0.07-0.449c-0.56,0.09-0.97,0.109-1.24,0.04c-0.27-0.04-0.46-0.2-0.59-0.45
			c-0.14-0.23-0.25-0.641-0.34-1.23L200.51,6.94c-0.11-0.561-0.13-1-0.09-1.271c0.05-0.27,0.21-0.47,0.43-0.609
			C201.08,4.931,201.49,4.811,202.05,4.721z"/>
		<path fill="#333333" d="M226.35,1l-0.05-0.5c-0.5,0.101-1.22,0.16-2.15,0.23c-1.02,0.09-1.81,0.16-2.36,0.16l0.05,0.5
			c0.54-0.051,0.95,0,1.27,0.109c0.32,0.141,0.54,0.34,0.72,0.66c0.16,0.32,0.27,0.75,0.32,1.33l0.66,7.57
			c0.15,1.989-0.05,3.58-0.61,4.729c-0.57,1.16-1.66,1.79-3.29,1.931c-1.04,0.09-1.86-0.091-2.42-0.57c-0.59-0.47-1-1.13-1.22-1.97
			c-0.25-0.841-0.43-1.9-0.53-3.19l-0.7-8.04C216,3.36,216,2.91,216.07,2.63c0.06-0.27,0.22-0.47,0.47-0.609
			c0.23-0.13,0.64-0.221,1.2-0.271L217.7,1.3c-0.73,0.07-1.73,0.16-2.95,0.25c-1.31,0.131-2.29,0.221-2.96,0.271l0.04,0.45
			c0.57-0.04,0.95-0.04,1.22,0.05c0.28,0.09,0.46,0.27,0.59,0.52c0.12,0.271,0.21,0.7,0.25,1.29l0.66,7.591
			c0.09,1.13,0.22,2.06,0.38,2.76c0.16,0.7,0.39,1.29,0.66,1.77c0.27,0.49,0.68,0.92,1.2,1.33c0.95,0.82,2.29,1.13,3.99,0.98
			c0.92-0.07,1.74-0.34,2.46-0.82c0.71-0.48,1.23-1.09,1.57-1.81c0.27-0.61,0.45-1.341,0.54-2.2c0.07-0.84,0.07-1.83-0.02-3.01
			l-0.64-7.271c-0.06-0.61-0.06-1.09,0-1.4c0.07-0.319,0.23-0.569,0.48-0.729C225.42,1.162,225.8,1.05,226.35,1z"/>
		<path fill="#333333" d="M242.28,0.5V0.021c-0.72,0.02-1.7,0.05-2.94,0.05c-1.36,0.04-2.33,0.04-2.97,0.04V0.59
			c0.55,0,0.95,0.07,1.22,0.16c0.25,0.09,0.44,0.29,0.53,0.561c0.09,0.27,0.15,0.729,0.18,1.34l0.2,12.229
			c0,0.63-0.04,1.091-0.14,1.36c-0.09,0.27-0.27,0.47-0.49,0.59c-0.25,0.11-0.66,0.15-1.2,0.15v0.529c1.49,0,3.73-0.05,6.72-0.119
			l5.3-0.091c-0.14-1.149-0.2-2.199-0.2-3.119c-0.03-0.82-0.03-1.5,0.02-2.021l-0.52,0.021c-0.09,1.229-0.25,2.18-0.48,2.81
			c-0.22,0.64-0.56,1.11-1.06,1.41c-0.5,0.29-1.22,0.45-2.17,0.47l-1.7,0.021c-0.57,0-0.98-0.04-1.25-0.131
			c-0.27-0.09-0.43-0.27-0.52-0.55c-0.09-0.27-0.16-0.72-0.16-1.35l-0.2-12.26c-0.02-0.61,0.02-1.061,0.11-1.33
			c0.09-0.271,0.25-0.48,0.5-0.59C241.31,0.561,241.72,0.5,242.28,0.5z"/>
		<path fill="#333333" d="M257.279,5.19l0.521,0.02c0.181-1.29,0.36-2.239,0.591-2.85c0.219-0.62,0.56-1.05,1.039-1.32
			c0.48-0.27,1.2-0.359,2.17-0.319l1.25,0.05l-0.699,14.09c-0.051,0.68-0.121,1.17-0.25,1.49c-0.141,0.319-0.391,0.52-0.7,0.609
			c-0.32,0.12-0.82,0.16-1.5,0.12l-0.021,0.47c0.721,0.051,1.881,0.091,3.42,0.181c1.45,0.05,2.58,0.12,3.4,0.16l0.02-0.471
			c-0.68-0.05-1.18-0.12-1.5-0.25c-0.31-0.14-0.52-0.37-0.609-0.68c-0.11-0.32-0.16-0.84-0.11-1.52L265,0.88l1.25,0.07
			c0.95,0.05,1.65,0.23,2.1,0.54c0.45,0.32,0.75,0.77,0.91,1.41c0.16,0.63,0.27,1.58,0.34,2.88l0.521,0.04
			c-0.05-0.521-0.021-1.2,0.021-2.04c0.049-0.93,0.139-1.97,0.319-3.12c-1.29-0.05-3.47-0.16-6.5-0.32
			c-3.08-0.14-5.28-0.25-6.55-0.34c0.05,1.16,0.07,2.221,0.029,3.17C257.391,4.01,257.32,4.69,257.279,5.19z"/>
		<path fill="#333333" d="M286.2,2.51l0.04-0.449c-0.7-0.07-1.67-0.19-2.92-0.32l-2.94-0.3l-0.05,0.46
			c0.55,0.06,0.95,0.16,1.18,0.29c0.23,0.14,0.381,0.34,0.45,0.609c0.05,0.301,0.05,0.75,0,1.36l-1.31,12.3
			c-0.07,0.63-0.16,1.061-0.271,1.34c-0.14,0.271-0.319,0.45-0.59,0.54c-0.271,0.091-0.681,0.091-1.22,0.021l-0.051,0.479
			c0.631,0.04,1.631,0.16,2.94,0.29c1.25,0.141,2.22,0.23,2.931,0.32l0.039-0.479c-0.56-0.061-0.97-0.16-1.199-0.271
			c-0.23-0.13-0.381-0.34-0.431-0.63c-0.069-0.3-0.069-0.75,0-1.38l1.31-12.3c0.051-0.61,0.141-1.04,0.281-1.32
			c0.109-0.271,0.289-0.43,0.56-0.521C285.221,2.46,285.63,2.46,286.2,2.51z"/>
		<path fill="#333333" d="M300.9,14.86l-1.541-0.25l1.11-6.8c0.091-0.54,0.21-0.931,0.341-1.2c0.14-0.271,0.319-0.43,0.59-0.5
			c0.25-0.061,0.609-0.061,1.09,0c0.91,0.16,1.63,0.43,2.13,0.84c0.5,0.41,0.81,0.95,0.97,1.63c0.16,0.68,0.16,1.5,0,2.49
			c-0.22,1.36-0.699,2.38-1.4,3.08C303.49,14.88,302.4,15.101,300.9,14.86z M299.3,15.04l1.761,0.271
			c1.469,0.27,2.699,0.199,3.689-0.16c0.98-0.36,1.73-0.91,2.22-1.63c0.5-0.73,0.82-1.5,0.95-2.33c0.14-0.891,0.05-1.7-0.24-2.45
			c-0.319-0.75-0.84-1.38-1.609-1.9c-0.771-0.5-1.75-0.859-2.95-1.069l-1.49-0.221c-0.729-0.119-1.36-0.229-1.95-0.34
			c-1.24-0.18-2.17-0.34-2.81-0.46l-0.06,0.431c0.539,0.1,0.949,0.21,1.17,0.34c0.229,0.14,0.39,0.34,0.43,0.62
			c0.05,0.27,0.029,0.699-0.061,1.239l-1.84,11.261c-0.09,0.56-0.199,0.97-0.34,1.199c-0.13,0.25-0.34,0.41-0.609,0.45
			c-0.271,0.07-0.681,0.05-1.221-0.04l-0.07,0.45c0.631,0.09,1.631,0.25,2.94,0.47c1.45,0.23,2.56,0.41,3.351,0.551l0.069-0.461
			c-0.68-0.109-1.17-0.239-1.47-0.359c-0.29-0.16-0.471-0.36-0.54-0.63c-0.09-0.271-0.07-0.681,0.021-1.25L299.3,15.04z"/>
		<path fill="#333333" d="M333.02,12.13l0.11-0.449c-0.5-0.091-1.18-0.23-2.08-0.431c-1-0.229-1.77-0.43-2.31-0.59l-0.12,0.45
			c0.52,0.14,0.91,0.3,1.18,0.479c0.271,0.2,0.431,0.471,0.5,0.79c0.07,0.32,0.04,0.771-0.09,1.311l-1.59,6.91
			c-0.43,1.81-1.08,3.149-1.97,4.01c-0.881,0.84-2.131,1.09-3.71,0.729c-1.021-0.25-1.721-0.68-2.131-1.25
			c-0.409-0.59-0.609-1.31-0.59-2.13c0-0.81,0.16-1.81,0.45-3.01l1.68-7.32c0.141-0.54,0.271-0.949,0.431-1.17
			c0.14-0.229,0.34-0.37,0.609-0.41c0.271-0.02,0.681,0.021,1.221,0.131l0.12-0.4c-0.73-0.16-1.681-0.39-2.9-0.66
			c-1.29-0.3-2.24-0.52-2.88-0.68l-0.11,0.41c0.54,0.13,0.93,0.29,1.16,0.43c0.22,0.13,0.34,0.36,0.38,0.63
			c0.05,0.271,0,0.7-0.14,1.25l-1.601,6.95c-0.25,1.04-0.409,1.899-0.46,2.58c-0.04,0.68-0.02,1.27,0.12,1.77
			c0.13,0.521,0.38,1.04,0.74,1.54c0.68,1,1.86,1.67,3.51,2.08c0.91,0.21,1.79,0.21,2.61,0.03c0.81-0.23,1.47-0.59,2.01-1.14
			c0.46-0.5,0.86-1.08,1.18-1.811c0.32-0.72,0.591-1.63,0.841-2.689l1.54-6.66c0.13-0.57,0.27-0.98,0.43-1.25
			c0.16-0.271,0.38-0.431,0.66-0.5C332.09,12,332.5,12.021,333.02,12.13z"/>
		<path fill="#333333" d="M345.84,23.33l-1.5-0.43l1.61-5.42c0.16-0.521,0.319-0.9,0.479-1.15c0.15-0.229,0.36-0.359,0.63-0.41
			c0.271-0.04,0.631,0,1.11,0.141c1.29,0.399,2.13,0.989,2.54,1.79c0.4,0.79,0.43,1.79,0.06,2.96c-0.22,0.77-0.52,1.38-0.88,1.84
			c-0.38,0.45-0.899,0.77-1.56,0.899C347.65,23.71,346.83,23.641,345.84,23.33z M352.13,32.91l-0.27-0.37
			c-0.36,0.28-0.63,0.46-0.811,0.57c-0.21,0.07-0.43,0.09-0.66,0.02c-0.229-0.06-0.39-0.18-0.479-0.34c-0.09-0.2-0.15-0.43-0.18-0.7
			c-0.021-0.319,0-0.72,0.069-1.22l0.16-2.56c0.04-0.7,0-1.29-0.11-1.771c-0.119-0.47-0.34-0.88-0.659-1.24
			c-0.341-0.34-0.82-0.68-1.431-1l-0.27-0.14c1.09,0.19,2.02,0.12,2.81-0.15c0.79-0.279,1.4-0.68,1.86-1.18
			c0.43-0.5,0.74-1.02,0.92-1.609c0.21-0.721,0.19-1.431-0.04-2.131c-0.23-0.699-0.7-1.33-1.41-1.92
			c-0.7-0.569-1.63-1.02-2.78-1.359c-0.27-0.07-0.75-0.21-1.449-0.431c-0.7-0.21-1.341-0.39-1.9-0.569L342.78,14l-0.141,0.431
			c0.551,0.18,0.91,0.34,1.141,0.489c0.2,0.19,0.31,0.41,0.34,0.681c0,0.3-0.07,0.729-0.23,1.29l-3.33,11.239
			c-0.18,0.591-0.34,0.971-0.52,1.2c-0.18,0.22-0.38,0.34-0.66,0.38c-0.27,0.03-0.649-0.04-1.2-0.2l-0.13,0.431
			c0.61,0.18,1.561,0.45,2.851,0.859c1.18,0.341,2.13,0.61,2.81,0.82l0.13-0.43c-0.54-0.16-0.899-0.32-1.13-0.48
			c-0.22-0.2-0.34-0.43-0.34-0.7c0-0.3,0.07-0.729,0.25-1.319l1.61-5.36l2.109,0.61c0.54,0.18,0.95,0.43,1.2,0.77
			c0.22,0.36,0.36,0.771,0.4,1.221c0.05,0.449,0.029,1.09-0.04,1.899l-0.16,2.38c-0.07,0.95,0.05,1.66,0.34,2.13
			c0.27,0.45,0.72,0.79,1.34,0.971c0.54,0.16,1.01,0.21,1.42,0.14C351.23,33.36,351.66,33.181,352.13,32.91z"/>
		<path fill="#333333" d="M367.84,31.95l-1.47-0.53l2.439-6.81c0.181-0.55,0.391-0.93,0.57-1.18s0.41-0.391,0.68-0.41
			c0.271-0.021,0.631,0.05,1.091,0.18c0.859,0.32,1.51,0.75,1.92,1.25s0.63,1.13,0.63,1.86c0,0.72-0.15,1.58-0.49,2.56
			c-0.5,1.351-1.18,2.351-2,2.94C370.37,32.42,369.24,32.471,367.84,31.95z M366.21,31.851l1.67,0.59
			c1.41,0.52,2.63,0.68,3.67,0.479c1.04-0.199,1.9-0.63,2.54-1.29c0.63-0.64,1.09-1.38,1.4-2.22c0.319-0.88,0.39-1.74,0.25-2.56
			c-0.16-0.82-0.561-1.561-1.221-2.24c-0.659-0.66-1.56-1.2-2.699-1.61c-0.24-0.09-0.721-0.25-1.4-0.5
			c-0.68-0.229-1.31-0.45-1.88-0.68c-1.18-0.41-2.08-0.75-2.67-0.97l-0.14,0.409c0.52,0.2,0.89,0.381,1.09,0.561
			c0.199,0.18,0.319,0.43,0.319,0.729c0,0.29-0.12,0.721-0.319,1.29l-4.051,11.25c-0.21,0.591-0.39,0.98-0.569,1.2
			c-0.181,0.21-0.431,0.32-0.7,0.34c-0.27,0-0.68-0.09-1.2-0.27l-0.16,0.43c0.61,0.23,1.54,0.57,2.811,1.021
			c1.359,0.5,2.42,0.88,3.189,1.16l0.16-0.431c-0.64-0.229-1.09-0.46-1.359-0.64c-0.271-0.22-0.431-0.47-0.45-0.75
			c-0.03-0.311,0.069-0.72,0.29-1.29L366.21,31.851z"/>
		<path fill="#333333" d="M394.01,31.76c0.86,0.391,1.54,1.04,1.99,1.95c0.46,0.931,0.64,2.061,0.57,3.37
			c-0.07,1.32-0.431,2.74-1.061,4.24c-0.64,1.49-1.39,2.72-2.25,3.71c-0.88,1-1.81,1.66-2.76,2.02c-0.95,0.341-1.9,0.311-2.81-0.069
			c-0.881-0.391-1.54-1.04-1.99-1.95c-0.45-0.93-0.66-2.04-0.59-3.35c0.069-1.311,0.43-2.74,1.09-4.261
			c0.63-1.47,1.38-2.689,2.24-3.689c0.859-1,1.79-1.65,2.76-2.021C392.16,31.38,393.11,31.4,394.01,31.76z M394.28,31.4
			c-1.311-0.55-2.65-0.7-3.96-0.48c-1.311,0.25-2.54,0.86-3.62,1.84c-1.11,0.971-2,2.261-2.67,3.851c-0.681,1.63-1,3.14-0.96,4.57
			c0.05,1.43,0.46,2.67,1.229,3.72c0.74,1.02,1.811,1.85,3.17,2.439c1.311,0.551,2.62,0.7,3.94,0.48c1.31-0.271,2.51-0.89,3.6-1.84
			c1.09-0.99,1.99-2.26,2.67-3.87c0.681-1.61,1-3.13,0.95-4.55c-0.04-1.431-0.45-2.67-1.2-3.721
			C396.66,32.8,395.62,31.99,394.28,31.4z"/>
		<path fill="#333333" d="M406.57,49.53l-0.48-0.25c-1.31,2.7-2.189,4.42-2.649,5.19l0.479,0.25c0.23-0.36,0.41-0.631,0.57-0.75
			c0.13-0.131,0.27-0.181,0.399-0.131c0.16,0.091,0.37,0.29,0.591,0.65c0.25,0.41,0.55,0.8,0.909,1.18c0.36,0.34,0.86,0.681,1.54,1
			c0.811,0.4,1.65,0.61,2.471,0.65c0.81,0,1.58-0.2,2.279-0.61c0.681-0.45,1.25-1.109,1.7-1.989c0.36-0.75,0.521-1.45,0.48-2.15
			c-0.05-0.7-0.21-1.38-0.5-2.061c-0.32-0.68-0.75-1.52-1.34-2.52c-0.16-0.22-0.45-0.7-0.86-1.38c-0.41-0.68-0.72-1.36-0.95-2.061
			c-0.229-0.699-0.13-1.449,0.271-2.239c0.229-0.48,0.52-0.86,0.93-1.16c0.41-0.271,0.859-0.43,1.359-0.45
			c0.5,0,0.971,0.09,1.471,0.32c0.729,0.359,1.22,0.859,1.54,1.489c0.319,0.641,0.43,1.32,0.39,2.04
			c-0.05,0.73-0.229,1.471-0.5,2.221L417.14,47c1.051-2.13,1.79-3.63,2.29-4.46l-0.47-0.229c-0.229,0.38-0.43,0.66-0.57,0.79
			c-0.159,0.14-0.29,0.18-0.43,0.09c-0.18-0.07-0.36-0.29-0.54-0.65l-0.479-0.729c-0.16-0.2-0.36-0.431-0.631-0.66
			c-0.279-0.22-0.64-0.43-1.069-0.65c-0.721-0.34-1.42-0.52-2.15-0.52c-0.72,0-1.43,0.18-2.06,0.56c-0.63,0.391-1.16,1-1.54,1.811
			c-0.38,0.77-0.54,1.52-0.5,2.25c0.05,0.72,0.21,1.42,0.52,2.08c0.3,0.68,0.73,1.449,1.29,2.35c0.521,0.87,0.91,1.57,1.181,2.16
			c0.27,0.59,0.43,1.17,0.479,1.74c0.04,0.59-0.07,1.13-0.34,1.699c-0.32,0.63-0.73,1.11-1.18,1.45
			c-0.48,0.29-0.971,0.45-1.471,0.47c-0.5-0.02-1-0.13-1.47-0.359c-1.25-0.61-1.95-1.49-2.11-2.67
			C405.71,52.34,405.93,51.03,406.57,49.53z"/>
		<path fill="#333333" d="M433.85,64.98l-0.479-0.25c-0.65,0.93-1.22,1.59-1.69,2.02c-0.479,0.38-1,0.561-1.569,0.58
			c-0.561-0.02-1.271-0.27-2.101-0.72l-1.5-0.82c-0.5-0.27-0.81-0.52-0.97-0.72c-0.18-0.23-0.23-0.48-0.18-0.771
			c0.04-0.319,0.25-0.75,0.56-1.29l3.021-5.479l1.329,0.72c0.54,0.32,0.86,0.73,0.98,1.271c0.11,0.54,0,1.18-0.32,1.899
			c-0.34,0.73-0.52,1.16-0.569,1.29l0.479,0.25c0.63-1.359,1.15-2.42,1.561-3.17l0.569-1.02c0.36-0.65,0.74-1.33,1.2-2.011
			l-0.479-0.27c-0.091,0.11-0.25,0.34-0.5,0.68c-0.271,0.36-0.61,0.65-1.04,0.88c-0.431,0.23-0.971,0.16-1.65-0.229l-1.34-0.72
			l3.01-5.44c0.32-0.56,0.57-0.95,0.8-1.18c0.221-0.2,0.471-0.29,0.74-0.271c0.27,0.05,0.64,0.181,1.14,0.46l1.69,0.92
			c0.71,0.41,1.16,0.82,1.39,1.271c0.2,0.46,0.221,1.02,0.061,1.66c-0.16,0.649-0.521,1.58-1.061,2.779l0.471,0.271
			c0.189-0.4,0.46-0.95,0.819-1.63c0.5-0.9,1.09-1.88,1.811-2.96c-0.84-0.46-2.24-1.23-4.23-2.34l-5.89-3.24l-0.23,0.41
			c0.48,0.27,0.79,0.52,0.98,0.75c0.149,0.229,0.2,0.479,0.149,0.77c-0.06,0.32-0.239,0.75-0.56,1.311l-6.21,11.279
			c-0.31,0.59-0.58,0.95-0.81,1.181c-0.23,0.199-0.48,0.29-0.75,0.29c-0.271-0.04-0.66-0.181-1.131-0.45l-0.229,0.41
			c1.32,0.72,3.29,1.79,5.89,3.239c2.17,1.2,3.71,2.061,4.641,2.561c0.46-1.05,0.89-1.93,1.319-2.7
			C433.31,65.82,433.6,65.32,433.85,64.98z"/>
	</g>
</g>
</svg>
