<?xml version="1.0" encoding="utf-8"?>
<!-- Generator: Adobe Illustrator 16.0.0, SVG Export Plug-In . SVG Version: 6.00 Build 0)  -->
<!DOCTYPE svg PUBLIC "-//W3C//DTD SVG 1.1//EN" "http://www.w3.org/Graphics/SVG/1.1/DTD/svg11.dtd">
<svg version="1.1" id="Layer_1" xmlns="http://www.w3.org/2000/svg" xmlns:xlink="http://www.w3.org/1999/xlink" x="0px" y="0px"
     width="495.3px" height="180.528px" viewBox="0 0 495.3 180.528" enable-background="new 0 0 495.3 180.528" xml:space="preserve">
<g>
    <g>
        <path fill-rule="evenodd" clip-rule="evenodd" fill="#9c5b57" d="M228.55,51.268c-0.28-1.801-0.83-3.561-1.22-5.36
            c-0.23-0.19-0.6-0.41-1.06-0.59c-0.49-0.21-1.1-0.38-1.75-0.55c-0.66-0.16-1.37-0.301-2.1-0.471c-0.37-0.1-0.69-0.14-1.13-0.33
            c-0.37-0.199-0.65-0.409-0.94-0.63c-0.4-0.31-0.73-0.67-1-1.02c0.52,1.1,1.18,2.14,1.96,3.11c1.39,1.739,2.62,3.479,2.96,5.699
            c-0.05,0.221,0.02,0.41,0.16,0.57c0.08,0.46,0.15,0.92,0.24,1.38c0.53,2.66,0.94,5.34,0.76,8.07c-0.09,1.34-0.34,2.62-1.99,3.149
            c-0.85,0.261-1.49,0.96-1.95,1.73c-0.41,0.68-0.25,1.06,0.56,1.14c1.21,0.13,2.43,0.16,3.64-0.05c0.28-0.05,0.58-0.1,0.77-0.33
            c1.31-1.52,2.55-3.149,2.62-5.18C229.18,58.158,229.12,54.708,228.55,51.268z M283.01,44.717c-0.83-0.199-1.7-0.319-2.52-0.55
            c-3.57-1-7.29-1.67-10.36-3.939l-1.31-1.19c-0.36-0.609-0.83-1.149-1.19-1.77c-0.5-0.87-1.08-1.73-1.93-2.351
            c0.01-0.12-0.05-0.14-0.14-0.109c-0.9-1.19-1.95-2.24-3.29-2.94c-2.17-1.13-4.39-2.17-6.77-2.83c-4.06-1.13-8.28-1.55-12.39-2.5
            c-2.18-0.5-4.51-0.71-6.43-1.78c-3.06-1.71-5.43-4.21-6.81-7.479c-0.3-0.7-0.06-0.84,0.59-0.7c0.97,0.19,1.91,0.14,2.79-0.33
            c0.46-0.229,0.79-0.58,0.75-1.1c-0.03-0.53-0.48-0.65-0.92-0.8c-1.47-0.53-2.93-1.061-4.19-2.011
            c-1.86-1.399-3.28-3.109-4.09-5.279c-0.4-1.07-1.16-1.811-2.26-2.101c-2.06-0.54-2.73-2.26-3.56-3.84
            c-0.28-0.51-0.52-1.04-1.16-1.11c-0.64-0.069-1.05,0.351-1.39,0.82c-0.83,1.18-1.44,2.44-1.46,3.89c-0.01,0.75-0.33,0.841-1,0.721
            c-0.61-0.101-1.31-0.24-1.68,0.5c-0.19,0.069-0.2,0.22-0.17,0.38c-0.16,0.97,0.5,1.6,1.07,2.189c1.44,1.53,1.11,3.33,0.73,5.021
            c-0.26,1.14-0.42,2.21-0.23,3.37c0.44,2.46,0.81,4.92,0.66,7.42c-0.12,2.22-0.01,4.439,0.88,6.52c0.81,1.851,1.71,3.67,2.59,5.5
            c0.12,0.25,0.23,0.49,0.24,0.78c0.05,1.271,0.27,2.47,0.64,3.61c0.2,0.239,0.45,0.529,0.77,0.85c0.37,0.38,0.83,0.79,1.36,1.17
            c0.25,0.19,0.56,0.38,0.82,0.53c0.23,0.1,0.63,0.2,0.97,0.29c0.7,0.18,1.42,0.37,2.09,0.61c0.66,0.229,1.26,0.5,1.75,0.789
            c0.48,0.301,0.84,0.641,1.03,0.9c0.18,0.271,0.24,0.44,0.24,0.44c0.36,0.5,0.58,1.09,0.9,1.609c-0.03,0.17,0.04,0.28,0.16,0.38
            c0.18,0.67,0.38,1.32,0.53,1.98c0.5,2.4,0.52,4.83,0.65,7.26c0.03,0.65,0.06,1.311,0.11,1.96c0.22,2.73-0.28,5.26-2.09,7.47
            c-0.81,0.99-0.49,1.601,0.77,1.75c0.68,0.08,1.34,0.16,2.01,0.12c1.63-0.1,2.1-0.54,2.17-2.109c0.09-2.34,0.05-4.681,0.43-7
            c0.35-2.12,0.85-4.221,1.09-6.37c0.23-2.04,0.53-4.07,0.78-6.12c0.07-0.59,0.25-0.78,0.78-0.69l0.01,0.011h0.1l0.66,0.12
            c0.48,0.1,1.19,0.199,2.02,0.329l1.36,0.19c0.48,0.07,0.99,0.09,1.51,0.16s1.07,0.06,1.62,0.12c0.55,0.05,1.11,0.01,1.66,0.029
            c0.54,0.021,1.13-0.02,1.68-0.029l1.64-0.05c1.06-0.03,2.07-0.04,2.93,0.029c0.87,0.061,1.6,0.271,2.05,0.521
            c0.21,0.12,0.37,0.25,0.45,0.35l0.14,0.14c-0.02-0.02-0.08-0.05-0.16-0.109c-0.11-0.08-0.28-0.16-0.51-0.24
            c-0.45-0.18-1.14-0.25-1.98-0.21c-0.84,0.03-1.81,0.12-2.88,0.21c-0.53,0.04-1.08,0.09-1.64,0.11l-0.61,0.029
            c0.01,0.03,0.01,0.051,0.02,0.07c0.17,0.771,0.69,1.33,1.19,1.9c1.48,1.68,2.77,3.5,4.03,5.35c0.98,1.43,1.22,3,0.7,4.65
            c-0.3,0.95-0.7,1.87-1,2.819c-0.21,0.71-0.61,1.15-1.36,1.391c-0.62,0.2-1.28,0.46-1.54,1.16c-0.18,0.479-0.14,0.79,0.51,0.779
            c1.15-0.02,2.3-0.05,3.45-0.01c0.64,0.021,0.99-0.2,1.23-0.77c1.09-2.53,1.97-5.131,2.84-7.74c0.4-1.17,0.14-2.12-0.76-3.05
            c-1.65-1.761-1.51-3.96-1.52-6.341c0.89,0.931,1.64,1.681,2.37,2.45c2.08,2.17,4.59,3.99,5.91,6.811
            c0.34,0.739,0.61,1.47,0.73,2.279c0.24,1.62-0.47,2.99-0.94,4.431c-0.19,0.58-0.5,0.96-1.1,1.189
            c-0.55,0.21-1.15,0.431-1.39,1.061c-0.19,0.46-0.19,0.74,0.47,0.79c1.16,0.1,2.29,0.05,3.42-0.23c0.49-0.12,0.76-0.33,0.89-0.83
            c0.74-2.739,1.27-5.52,1.47-8.359c0.06-0.891-0.14-1.66-0.62-2.391c-1.03-1.569-2.1-3.12-2.84-4.859l-0.07-0.38
            c-0.67-2.421-0.58-5.33,0.13-7.141l0.01-0.02l0.08-0.2c0.1-0.271,0.34-0.79,0.76-1.48c0.58-0.939-0.28,1.091-0.15,1.931
            l0.01,0.029c0.05,0.08,0.12,0.11,0.21,0.051c0.69-0.4,0.69,0.239,0.92,0.52c0.27,0.311,0.48,0.87,0.77,0.91
            c0.78,0.09,0.84,0.68,1.12,1.14c0.21,0.36,0.23,1.181,0.98,0.431c0.17-0.181,0.26,0.09,0.31,0.189c0.72,1.271,1.9,1.76,3.25,1.44
            c0.94-0.21,1.63,0.149,2.41,0.359c0.61,0.17,1.49,0.57,1.82,0.181c0.67-0.79,1.08,0.02,1.57,0.06c0.63,0.05,1.27,0.14,1.9,0.16
            c0.15,0,0.41-0.021,0.34-0.21c-0.27-0.71,0.19-0.59,0.61-0.55c0.36,0.02,0.58-0.25,0.58-0.511c-0.01-0.619,0.37-0.579,0.81-0.619
            c0.35-0.03,1,0.069,0.9-0.41c-0.19-0.88,0.29-0.8,0.85-0.82c0.28-0.01,0.56-0.11,0.82-0.229c0.25-0.101,0.37-0.351,0.36-0.601
            C283.52,44.717,283.2,44.757,283.01,44.717z"/>
    </g>
    <g>
        <path fill-rule="evenodd" clip-rule="evenodd" fill="#333333" d="M53.48,97.778v1.41c2.05,0,3.53,0.33,4.46,0.96
            c0.94,0.649,1.41,1.75,1.41,3.319c0,1.391-0.38,3.29-1.12,5.671l-8.46,27.3l-9.84-31.4c-0.49-1.479-0.71-2.62-0.71-3.41
            c0-0.67,0.15-1.189,0.51-1.54c0.36-0.34,0.85-0.569,1.47-0.699c0.63-0.131,1.52-0.2,2.7-0.2v-1.41h-8.77c-2.79,0-5-0.03-6.65-0.12
            v1.53c1.74,0,3.1,1.479,4.04,4.41l1.81,5.58l-8.31,27.329l-10.04-31.47c-0.49-1.57-0.74-2.74-0.74-3.5c0-0.8,0.25-1.39,0.76-1.75
            c0.51-0.35,1.39-0.6,2.59-0.689v-1.44c-1.65,0.09-4.13,0.12-7.39,0.12c-3.08,0-5.51-0.03-7.34-0.12v1.53
            c2.16,0,3.75,1.46,4.73,4.35l14.53,44.44h0.56h0.54l10.91-36.311l11.92,36.311h0.54h0.58l12.94-42.74
            c1.07-3.521,2.88-5.56,5.43-6.14v-1.44c-1.39,0.09-3.11,0.12-5.16,0.12H53.48z"/>
        <path fill-rule="evenodd" clip-rule="evenodd" fill="#333333" d="M103.79,97.038c2.82,0,5.36,1.01,7.66,3
            c2.3,2,4.13,4.82,5.47,8.49c1.34,3.68,2.01,7.939,2.01,12.78c0,4.8-0.6,9.029-1.81,12.75c-1.21,3.72-2.92,6.609-5.13,8.68
            c-2.24,2.08-4.8,3.11-7.73,3.11c-2.81,0-5.38-0.98-7.68-2.98c-2.32-1.99-4.13-4.84-5.46-8.52c-1.34-3.67-2.01-7.931-2.01-12.771
            c0-4.77,0.6-9.01,1.8-12.729c1.21-3.721,2.93-6.61,5.16-8.7C98.3,98.087,100.87,97.038,103.79,97.038z M104.06,95.627
            c-4.22,0-7.97,1.09-11.27,3.29s-5.89,5.271-7.75,9.23c-1.85,3.99-2.76,8.54-2.76,13.7c0,5.29,0.89,9.84,2.67,13.649
            c1.79,3.83,4.34,6.74,7.62,8.76c3.26,2.021,7.07,3,11.43,3c4.21,0,7.99-1.069,11.29-3.27c3.3-2.19,5.87-5.271,7.72-9.25
            c1.86-3.97,2.79-8.54,2.79-13.7c0-5.27-0.91-9.82-2.7-13.649c-1.81-3.811-4.35-6.721-7.61-8.74
            C112.23,96.627,108.41,95.627,104.06,95.627z"/>
        <path fill-rule="evenodd" clip-rule="evenodd" fill="#333333" d="M162.09,99.188v-1.41h-8.71h-8.77v1.41
            c1.65,0,2.84,0.16,3.6,0.45c0.75,0.31,1.27,0.869,1.54,1.68c0.26,0.8,0.42,2.1,0.42,3.88v35.25c0,1.79-0.16,3.09-0.42,3.9
            c-0.27,0.81-0.79,1.369-1.54,1.659c-0.76,0.311-1.95,0.45-3.6,0.45v1.521h19.89h15.71c-0.31-3.34-0.46-6.34-0.46-9.03
            c0-2.38,0.06-4.3,0.2-5.78h-1.59c-0.36,3.54-0.87,6.23-1.52,8.07c-0.67,1.83-1.74,3.16-3.21,3.979c-1.5,0.83-3.66,1.24-6.52,1.24
            h-5.02c-1.65,0-2.86-0.14-3.59-0.41c-0.76-0.27-1.28-0.8-1.54-1.609c-0.29-0.811-0.43-2.11-0.43-3.9v-35.34
            c0-1.78,0.14-3.08,0.43-3.88c0.26-0.811,0.78-1.37,1.54-1.68C159.23,99.348,160.44,99.188,162.09,99.188z"/>
        <path fill-rule="evenodd" clip-rule="evenodd" fill="#333333" d="M225.03,97.778v1.41c2.01,0,3.52,0.33,4.51,0.979
            c0.98,0.681,1.47,1.73,1.47,3.21c0,1.41-0.47,3.34-1.36,5.761l-11.19,29.79l-12.43-33.91c-0.53-1.42-0.8-2.511-0.8-3.32
            c0-0.94,0.36-1.59,1.11-1.95c0.76-0.359,2.01-0.56,3.75-0.56v-1.41h-8.77c-3.03,0-5.49-0.03-7.34-0.12v1.53
            c2.03,0,3.61,1.46,4.73,4.37l16.74,44.42h0.54h0.56l16.11-42.74c1.3-3.54,3.1-5.58,5.43-6.12v-1.46
            c-1.39,0.09-3.11,0.12-5.16,0.12H225.03z"/>
        <path fill-rule="evenodd" clip-rule="evenodd" fill="#333333" d="M288.03,134.558h-1.58c-0.36,3.22-0.87,5.64-1.52,7.3
            c-0.67,1.66-1.74,2.87-3.21,3.63c-1.5,0.77-3.67,1.12-6.52,1.12h-5.02c-1.66,0-2.86-0.13-3.6-0.4c-0.76-0.27-1.27-0.81-1.54-1.609
            c-0.29-0.811-0.42-2.11-0.42-3.9v-17.13h4.55c1.85,0,3.3,0.54,4.33,1.62c1.03,1.069,1.63,2.66,1.85,4.77
            c0.2,2.11,0.34,3.34,0.38,3.681h1.59c-0.27-4.311-0.4-7.65-0.4-10.04l-0.05-3.391c0-2.1,0.07-4.319,0.25-6.649h-1.59
            c-0.06,0.399-0.18,1.3-0.35,2.64c-0.18,1.37-0.65,2.71-1.41,4.01s-2.3,1.95-4.6,1.95h-4.55v-16.99c0-1.79,0.13-3.109,0.42-3.92
            c0.27-0.81,0.78-1.34,1.54-1.64c0.74-0.26,1.94-0.42,3.6-0.42h5.69c2.41,0,4.19,0.38,5.4,1.12c1.2,0.739,2.05,1.93,2.54,3.54
            c0.49,1.64,0.92,4.119,1.28,7.439h1.56c-0.14-1.14-0.2-2.689-0.2-4.66c0-2.62,0.15-5.58,0.47-8.85h-14.33H252.7v1.41
            c1.65,0,2.83,0.16,3.59,0.45c0.76,0.31,1.27,0.869,1.54,1.68c0.27,0.8,0.43,2.1,0.43,3.899v35.37c0,1.79-0.16,3.11-0.43,3.92
            c-0.27,0.801-0.78,1.36-1.54,1.66c-0.76,0.311-1.94,0.44-3.59,0.44v1.37h19.89h15.71c-0.31-3.181-0.47-6.03-0.47-8.58
            C287.83,137.377,287.9,135.768,288.03,134.558z"/>
        <path fill-rule="evenodd" clip-rule="evenodd" fill="#333333" d="M323.28,122.158h-4.62v-17.03c0-1.64,0.13-2.87,0.4-3.699
            c0.27-0.83,0.76-1.41,1.48-1.75c0.71-0.311,1.78-0.49,3.21-0.49c4.02,0,6.92,0.979,8.7,2.91c1.79,1.93,2.68,4.8,2.68,8.56
            c0,2.36-0.33,4.37-1,6.03c-0.67,1.66-1.88,3.01-3.62,3.99C328.77,121.667,326.36,122.158,323.28,122.158z M349.13,144.458
            l-1.03-0.83c-0.76,1.08-1.38,1.84-1.87,2.29s-1.12,0.65-1.88,0.65c-0.62,0-1.16-0.2-1.56-0.61c-0.42-0.399-0.78-1.029-1.07-1.88
            c-0.31-0.85-0.6-2.02-0.89-3.54l-1.7-7.49c-0.45-2.1-1.05-3.779-1.76-5.06c-0.74-1.26-1.72-2.26-2.95-3
            c-1.23-0.72-2.86-1.28-4.91-1.64l-0.83-0.131c3.22-0.5,5.81-1.46,7.82-2.939c1.98-1.46,3.39-3.12,4.24-4.95
            c0.84-1.84,1.27-3.66,1.27-5.47c0-2.311-0.63-4.37-1.88-6.19c-1.25-1.81-3.12-3.25-5.6-4.3c-2.48-1.06-5.49-1.59-9.06-1.59h-4.44
            h-5.92h-8.37v1.41c1.65,0,2.84,0.16,3.59,0.45c0.76,0.31,1.28,0.869,1.54,1.68c0.27,0.8,0.43,2.1,0.43,3.899v35.32
            c0,1.79-0.16,3.12-0.43,3.92c-0.26,0.811-0.78,1.37-1.54,1.66c-0.75,0.311-1.94,0.45-3.59,0.45v1.41h8.77h8.71v-1.41
            c-1.65,0-2.86-0.14-3.6-0.45c-0.75-0.31-1.27-0.87-1.54-1.72c-0.29-0.83-0.42-2.181-0.42-4.021v-16.81h6.54
            c1.7,0,3.04,0.41,4.02,1.21c0.98,0.81,1.69,1.89,2.19,3.229c0.46,1.351,0.98,3.271,1.51,5.761l1.52,7.149
            c0.63,2.92,1.54,4.931,2.75,6.08c1.2,1.12,2.74,1.7,4.62,1.7c1.69,0,3.08-0.34,4.13-0.99
            C346.99,147.038,348.06,145.958,349.13,144.458z"/>
        <path fill-rule="evenodd" clip-rule="evenodd" fill="#333333" d="M380.94,99.188v-1.41h-8.71h-8.77v1.41
            c1.65,0,2.84,0.16,3.6,0.45c0.75,0.31,1.27,0.869,1.54,1.68c0.26,0.8,0.42,2.1,0.42,3.899v35.32c0,1.79-0.16,3.12-0.42,3.92
            c-0.27,0.811-0.79,1.37-1.54,1.66c-0.76,0.311-1.95,0.45-3.6,0.45v1.41h8.77h8.71v-1.41c-1.65,0-2.86-0.14-3.59-0.45
            c-0.76-0.29-1.28-0.85-1.54-1.66c-0.29-0.8-0.43-2.13-0.43-3.92v-35.32c0-1.8,0.14-3.1,0.43-3.899c0.26-0.811,0.78-1.37,1.54-1.68
            C378.08,99.348,379.29,99.188,380.94,99.188z"/>
        <path fill-rule="evenodd" clip-rule="evenodd" fill="#333333" d="M442.05,99.188v-1.641c-1.52,0.16-3.64,0.23-6.36,0.23
            c-3.04,0-5.38-0.07-6.99-0.23v1.641c1.79,0,3.12,0.22,3.99,0.63c0.88,0.399,1.46,1.07,1.77,1.99c0.31,0.939,0.47,2.33,0.47,4.17
            v30.64l-24.22-39.04c-1.52,0.13-3.31,0.2-5.36,0.2c-2.74,0-4.86-0.07-6.36-0.23v1.641c1.65,0,2.83,0.16,3.59,0.45
            c0.76,0.31,1.28,0.869,1.54,1.68c0.27,0.8,0.43,2.1,0.43,3.899v34.74c0,1.84-0.16,3.23-0.45,4.141
            c-0.29,0.949-0.82,1.619-1.58,2.02s-1.95,0.61-3.53,0.61v1.25h6.36h7.01v-1.25c-1.83,0-3.17-0.21-4.02-0.61
            c-0.85-0.4-1.43-1.05-1.74-1.97c-0.31-0.92-0.47-2.29-0.47-4.101v-37.279l28.8,45.21h1.56v-42.11c0-1.8,0.13-3.16,0.42-4.08
            s0.83-1.59,1.61-2C439.28,99.388,440.46,99.188,442.05,99.188z"/>
        <path fill-rule="evenodd" clip-rule="evenodd" fill="#333333" d="M495.03,134.558h-1.58c-0.36,3.22-0.88,5.64-1.52,7.3
            c-0.67,1.66-1.74,2.87-3.22,3.63c-1.49,0.77-3.66,1.12-6.51,1.12h-5.03c-1.65,0-2.85-0.13-3.59-0.4
            c-0.76-0.27-1.27-0.81-1.54-1.609c-0.29-0.811-0.42-2.11-0.42-3.9v-17.13h4.55c1.85,0,3.3,0.54,4.33,1.62
            c1.03,1.069,1.63,2.66,1.85,4.77c0.2,2.11,0.34,3.34,0.38,3.681h1.59c-0.27-4.311-0.41-7.65-0.41-10.04l-0.04-3.391
            c0-2.1,0.07-4.319,0.25-6.649h-1.59c-0.07,0.399-0.18,1.3-0.36,2.64c-0.18,1.37-0.64,2.71-1.4,4.01s-2.3,1.95-4.6,1.95h-4.55
            v-16.99c0-1.79,0.13-3.109,0.42-3.92c0.27-0.81,0.78-1.34,1.54-1.64c0.74-0.26,1.94-0.42,3.59-0.42h5.7c2.41,0,4.19,0.38,5.4,1.12
            c1.2,0.739,2.05,1.93,2.54,3.54c0.49,1.64,0.92,4.119,1.27,7.439h1.57c-0.14-1.14-0.2-2.689-0.2-4.66c0-2.62,0.15-5.58,0.46-8.85
            h-14.33H459.7v1.41c1.65,0,2.83,0.16,3.59,0.45c0.76,0.31,1.27,0.869,1.54,1.68c0.27,0.8,0.42,2.1,0.42,3.899v35.37
            c0,1.79-0.15,3.11-0.42,3.92c-0.27,0.801-0.78,1.36-1.54,1.66c-0.76,0.311-1.94,0.44-3.59,0.44v1.37h19.88h15.72
            c-0.31-3.181-0.47-6.03-0.47-8.58C494.83,137.377,494.9,135.768,495.03,134.558z"/>
    </g>
    <rect y="65.318" fill-rule="evenodd" clip-rule="evenodd" fill="#9c5b57" width="200" height="3.34"/>
    <rect x="293.33" y="65.318" fill-rule="evenodd" clip-rule="evenodd" fill="#9c5b57" width="200" height="3.34"/>
    <rect y="177.188" fill-rule="evenodd" clip-rule="evenodd" fill="#9c5b57" width="495" height="3.34"/>
</g>
</svg>
