<?xml version="1.0" encoding="utf-8"?>
<!-- Generator: Adobe Illustrator 16.0.0, SVG Export Plug-In . SVG Version: 6.00 Build 0)  -->
<!DOCTYPE svg PUBLIC "-//W3C//DTD SVG 1.1//EN" "http://www.w3.org/Graphics/SVG/1.1/DTD/svg11.dtd">
<svg version="1.1" id="Layer_1" xmlns="http://www.w3.org/2000/svg" xmlns:xlink="http://www.w3.org/1999/xlink" x="0px" y="0px"
	 width="500px" height="427px" viewBox="0 0 500 427" enable-background="new 0 0 500 427" xml:space="preserve">
<g>
	<g>
		<polygon fill="#ffffff" points="59.1,60.431 46.45,60.431 70.75,129.84 82.43,129.84 97.07,82.29 97.88,82.29 112.54,129.84 
			124.19,129.84 148.53,60.431 135.84,60.431 118.32,110.38 102.78,60.431 92.2,60.431 76.66,110.38 		"/>
		<path fill="#ffffff" d="M258.95,94.44c0-10.19-3.55-18.73-10.61-25.561c-7.1-6.84-15.82-10.25-26.21-10.25
			c-10.41,0-19.14,3.41-26.2,10.25c-7.07,6.83-10.58,15.37-10.58,25.561c0,10.21,3.51,18.72,10.58,25.55
			c7.061,6.84,15.79,10.25,26.2,10.25c10.39,0,19.11-3.41,26.21-10.25C255.4,113.16,258.95,104.65,258.95,94.44z M246.84,94.44
			c0,6.96-2.41,12.89-7.16,17.79c-4.75,4.899-10.61,7.31-17.55,7.31c-6.93,0-12.79-2.41-17.54-7.31c-4.79-4.9-7.16-10.83-7.16-17.79
			c0-6.971,2.37-12.86,7.16-17.76c4.75-4.9,10.61-7.351,17.54-7.351c6.94,0,12.8,2.45,17.55,7.351
			C244.43,81.58,246.84,87.47,246.84,94.44z"/>
		<polygon fill="#ffffff" points="348.5,129.54 348.5,118.45 316.6,118.45 316.6,60.33 304.82,60.33 304.82,129.54 		"/>
		<polygon fill="#ffffff" points="452.39,60.33 439.21,60.33 417.69,112 396.21,60.33 382.99,60.33 411.08,129.54 424.3,129.54 		
			"/>
		<polygon fill="#ffffff" points="54.92,178.37 54.92,247.78 105.05,247.78 105.05,236.76 66.66,236.76 66.66,218.2 100.08,218.2 
			100.08,207.76 66.66,207.76 66.66,189.391 103.85,189.391 103.85,178.37 		"/>
		<path fill="#ffffff" d="M416.4,213.811H401.85v-25.08h14.841c6.25,0,10.59,0.88,13.04,2.58c2.449,1.699,3.67,4.859,3.67,9.439
			c0,4.57-1.19,7.9-3.58,9.96C427.44,212.8,422.97,213.811,416.4,213.811z M438.55,183.431c-4.569-3.591-12.1-5.421-22.63-5.421
			H390.2v70.141h11.649v-23.59h15.36l16.51,23.59h14.812l-18.09-25.479c9.939-3.01,14.93-10.33,14.93-21.89
			C445.37,192.811,443.09,187.03,438.55,183.431z"/>
		<path fill="#ffffff" d="M80.98,333.46H66.43v-25.09h14.84c6.25,0,10.6,0.88,13.04,2.58c2.45,1.7,3.67,4.87,3.67,9.44
			c0,4.568-1.19,7.908-3.57,9.959C92.03,332.439,87.55,333.46,80.98,333.46z M103.13,303.08c-4.57-3.6-12.1-5.43-22.63-5.43H54.78
			v70.14h11.65V344.2h15.36l16.51,23.59h14.81l-18.09-25.479c9.95-3.011,14.94-10.319,14.94-21.891
			C109.96,312.45,107.67,306.67,103.13,303.08z"/>
		<rect x="177.7" y="297.65" fill="#ffffff" width="12.5" height="70.14"/>
		<polygon fill="#ffffff" points="313.76,350.021 272.88,297.65 261.029,297.65 261.029,367.79 272.88,367.79 272.88,316.602 
			312.74,367.79 325.61,367.79 325.61,297.65 313.76,297.65 		"/>
		<polygon fill="#ffffff" points="396.45,297.65 396.45,367.79 446.45,367.79 446.45,356.65 408.16,356.65 408.16,337.9 
			441.49,337.9 441.49,327.352 408.16,327.352 408.16,308.79 445.25,308.79 445.25,297.65 		"/>
	</g>
	<g>
		<path fill="#ffffff" d="M211.44,214c0.07,0.182,0.2,0.33,0.36,0.439c-0.28,0.109-0.57,0.211-0.88,0.279
			C211.09,214.48,211.26,214.24,211.44,214z M263.221,238.79c0.209-0.12,0.279-0.399,0.18-0.62l-0.7-1.46
			c-0.23-0.46-0.48-1.04-0.83-1.67l-1.22-2.08c-0.44-0.771-1.041-1.51-1.61-2.351c-0.569-0.84-1.271-1.629-1.96-2.5
			c-0.67-0.869-1.471-1.68-2.24-2.529c-0.779-0.85-1.65-1.641-2.48-2.46c-0.85-0.79-1.719-1.58-2.589-2.33
			c-0.89-0.72-1.73-1.479-2.61-2.12c-1.74-1.318-3.4-2.488-4.88-3.41c-1.47-0.92-2.73-1.649-3.64-2.1l-0.37-0.2
			c-1.93-1.149-3.94-2.22-6.01-3.2c-0.05-0.06-0.12-0.119-0.21-0.159c-0.18-0.08-0.33-0.16-0.48-0.25
			c2.25-0.49,3.98-2.681,4.19-5.131c0.29-3.489-2.33-6.27-5.07-7.85c-0.78-0.439-1.51,0.6-1.07,1.29c2.19,3.38-1.31,5.49-1.22,8.78
			c0.02,0.649,0.19,1.25,0.46,1.8c-3.53-1.49-7.15-2.771-10.72-3.89c1.51-1.16,2.26-3.2,2.2-5.15c-0.11-3.43-2.56-6.01-4.92-8.14
			c-0.59-0.53-1.73,0.159-1.34,0.949c1.35,2.71-0.63,5.511-0.29,8.341c0.15,1.229,0.68,2.279,1.46,3.119l-1.23-0.369
			c-3.13-0.9-6.33-1.71-9.57-2.4c1.79-3.7-0.21-8.64-3.05-11.13c-0.4-0.351-1.2-0.271-1.39,0.3c-0.85,2.53-1.79,5.39-0.729,8.021
			c0.32,0.8,0.85,1.54,1.51,2.109c-2.65-0.46-5.31-0.819-7.98-1.04c-0.46-1.71-2.24-2.8-3.92-2.85c-2.32-0.07-4.88,1.26-6.7,2.75
			l-0.6,0.04c-0.42,0.04-0.47,0.74-0.03,0.78l0.14,0.02c0.07,0.16,0.22,0.27,0.43,0.16l0.19-0.09c0.06,0.08,0.13,0.16,0.22,0.22
			c2.07,1.29,4.43,3.31,7.01,3.07c1.39-0.13,2.72-0.94,3.19-2.24c2.53,0.29,5.05,0.61,7.57,0.99c-0.72,0.46-1.37,1.04-1.92,1.75
			c-1.45,1.909-1.15,5.08-2.98,6.59c-0.5,0.42-0.46,1.5,0.33,1.55c2.56,0.17,5.06-0.69,6.76-2.75c1.29-1.57,2.32-4.4,1.59-6.49
			c2.67,0.49,5.33,1.08,7.98,1.8c0.62,0.171,1.23,0.351,1.84,0.53c-0.7,0.43-1.27,1.18-1.58,2.03c-0.68,1.85-0.45,3.51-1.63,5.24
			c-0.771,1.13-1.57,2.109-2.13,3.37c-0.28,0.641,0.2,1.229,0.84,1.239c5.54,0.04,9.76-5.31,8-10.729
			c3.18,1.109,6.24,2.38,9.27,3.75c-0.72,0.3-1.37,0.859-1.83,1.529c-0.64,0.94-0.86,2.091-1.16,3.182
			c-0.52,1.858-1.24,3.49-2.39,5.029c-0.62,0.829,0.3,1.76,1.13,1.289c2.55-1.449,5.92-0.568,7.78-3.318
			c1.19-1.74,1.16-3.831,0.63-5.78c1.79,0.85,3.57,1.71,5.37,2.58c0.02,0.01,0.04,0.04,0.06,0.06l0.02,0.012
			c0,0,1.91,1.148,4.73,3.028l2.26,1.552c0.81,0.539,1.63,1.14,2.479,1.778c1.72,1.24,3.49,2.642,5.2,4.12
			c0.83,0.76,1.71,1.49,2.49,2.28c0.771,0.8,1.61,1.52,2.3,2.319c0.71,0.801,1.439,1.521,2.03,2.301c0.6,0.76,1.22,1.459,1.7,2.16
			l1.35,1.89c0.391,0.58,0.67,1.11,0.93,1.54l0.801,1.35l0.02,0.04C262.71,238.859,263,238.932,263.221,238.79z"/>
		<path fill="#ffffff" d="M289.08,214.72c-0.311-0.069-0.6-0.17-0.88-0.278c0.159-0.11,0.29-0.26,0.36-0.44
			C288.74,214.24,288.91,214.48,289.08,214.72z M237.42,238.63l0.02-0.04l0.8-1.35c0.26-0.43,0.54-0.96,0.93-1.54l1.35-1.89
			c0.48-0.701,1.1-1.4,1.7-2.16c0.59-0.78,1.32-1.5,2.03-2.301c0.69-0.801,1.53-1.521,2.3-2.319c0.78-0.79,1.66-1.521,2.49-2.28
			c1.71-1.479,3.489-2.88,5.2-4.12c0.85-0.64,1.67-1.239,2.479-1.778l2.25-1.552c2.83-1.88,4.74-3.028,4.74-3.028l0.02-0.012
			c0.021-0.02,0.041-0.05,0.061-0.06c1.8-0.87,3.58-1.73,5.37-2.58c-0.53,1.95-0.56,4.04,0.63,5.78
			c1.859,2.75,5.23,1.869,7.779,3.318c0.83,0.471,1.75-0.46,1.131-1.289c-1.15-1.539-1.87-3.171-2.391-5.029
			c-0.3-1.09-0.52-2.24-1.16-3.182c-0.459-0.67-1.109-1.229-1.83-1.529c3.031-1.37,6.091-2.641,9.271-3.75
			c-1.76,5.42,2.46,10.77,8,10.729c0.64-0.01,1.12-0.601,0.84-1.239c-0.56-1.261-1.36-2.24-2.13-3.37
			c-1.18-1.73-0.949-3.391-1.63-5.24c-0.31-0.851-0.88-1.601-1.58-2.03c0.61-0.18,1.22-0.359,1.84-0.53
			c2.65-0.72,5.312-1.31,7.98-1.8c-0.73,2.09,0.3,4.92,1.59,6.49c1.7,2.06,4.2,2.92,6.76,2.75c0.79-0.05,0.83-1.13,0.33-1.55
			c-1.83-1.51-1.53-4.681-2.979-6.59c-0.551-0.71-1.2-1.29-1.92-1.75c2.52-0.38,5.039-0.7,7.569-0.99c0.47,1.3,1.8,2.11,3.19,2.24
			c2.58,0.239,4.939-1.78,7.01-3.07c0.09-0.06,0.16-0.14,0.22-0.22l0.19,0.09c0.21,0.109,0.359,0,0.43-0.16l0.141-0.02
			c0.439-0.04,0.39-0.74-0.03-0.78l-0.601-0.04c-1.819-1.49-4.38-2.82-6.699-2.75c-1.681,0.05-3.46,1.14-3.921,2.85
			c-2.669,0.221-5.329,0.58-7.979,1.04c0.66-0.569,1.189-1.31,1.51-2.109c1.061-2.631,0.12-5.49-0.729-8.021
			c-0.19-0.57-0.99-0.65-1.391-0.3c-2.84,2.49-4.84,7.43-3.05,11.13c-3.239,0.69-6.44,1.5-9.569,2.4l-1.23,0.369
			c0.779-0.84,1.311-1.89,1.46-3.119c0.34-2.83-1.64-5.631-0.29-8.341c0.391-0.79-0.75-1.479-1.34-0.949
			c-2.36,2.13-4.811,4.71-4.92,8.14c-0.061,1.95,0.689,3.99,2.199,5.15c-3.569,1.119-7.189,2.399-10.72,3.89
			c0.271-0.55,0.44-1.15,0.46-1.8c0.09-3.29-3.41-5.4-1.22-8.78c0.44-0.69-0.29-1.729-1.069-1.29c-2.74,1.58-5.361,4.36-5.07,7.85
			c0.209,2.45,1.938,4.641,4.188,5.131c-0.149,0.09-0.3,0.17-0.479,0.25c-0.09,0.04-0.159,0.1-0.209,0.159
			c-2.07,0.98-4.08,2.051-6.01,3.2l-0.371,0.2c-0.91,0.45-2.17,1.18-3.64,2.1c-1.479,0.922-3.14,2.092-4.88,3.41
			c-0.88,0.641-1.721,1.4-2.61,2.12c-0.87,0.75-1.74,1.54-2.59,2.33c-0.83,0.819-1.7,1.61-2.48,2.46
			c-0.77,0.852-1.57,1.66-2.24,2.529c-0.69,0.871-1.39,1.66-1.96,2.5c-0.57,0.841-1.17,1.58-1.61,2.351l-1.22,2.08
			c-0.35,0.63-0.6,1.21-0.83,1.67l-0.7,1.46c-0.1,0.221-0.03,0.5,0.18,0.62C237,238.932,237.29,238.859,237.42,238.63z"/>
	</g>
	<g>
	</g>
</g>
<g>
	<path fill="#ffffff" d="M493.21,419.801H6.79V7.5h486.42V419.801z M16.79,409.801h466.42V17.5H16.79V409.801z"/>
</g>
</svg>
