<?xml version="1.0" encoding="utf-8"?>
<!-- Generator: Adobe Illustrator 16.0.0, SVG Export Plug-In . SVG Version: 6.00 Build 0)  -->
<!DOCTYPE svg PUBLIC "-//W3C//DTD SVG 1.1//EN" "http://www.w3.org/Graphics/SVG/1.1/DTD/svg11.dtd">
<svg version="1.1" id="Layer_1" xmlns="http://www.w3.org/2000/svg" xmlns:xlink="http://www.w3.org/1999/xlink" x="0px" y="0px"
	 width="500px" height="162px" viewBox="0 0 500 162" enable-background="new 0 0 500 162" xml:space="preserve">
<g>
	<g>
		<path fill="#FFFFFF" d="M1.1,152.661c0.29,0.541,0.8,1.32,1.51,2.351c0.7,1.03,1.54,2.061,2.49,3.091
			c0.96,1.029,1.96,1.939,3.01,2.72c1.05,0.79,2.07,1.181,3.05,1.181c0.14,0,0.42-0.041,0.84-0.109c0.42-0.07,0.89-0.23,1.43-0.48
			c10.33-4.32,21.68-12.82,34.06-25.529l-0.26,6.959c-0.07,2.08-0.11,3.812-0.11,5.182c0,0.489,0.06,1.02,0.19,1.58
			c0.12,0.568,0.25,1.13,0.4,1.699c0.15,0.561,0.31,1.061,0.48,1.5s0.3,0.761,0.4,0.96c0.29,0.54,0.77,1.261,1.43,2.171
			c0.66,0.909,1.42,1.818,2.28,2.72c0.85,0.91,1.78,1.689,2.79,2.359c1,0.659,1.99,0.989,2.97,0.989c0.15,0,0.41-0.039,0.81-0.108
			c0.39-0.069,0.83-0.229,1.32-0.479c3.67-1.57,7.82-4.041,12.44-7.431c4.62-3.38,9.39-7.511,14.31-12.399
			c4.92-4.871,9.81-10.43,14.68-16.66c4.87-6.229,9.41-12.961,13.62-20.189c4.21-7.24,7.9-14.91,11.08-23.029
			c3.18-8.11,5.53-16.491,7.05-25.121l-21.8-21.56c0.05,0.25,0.13,0.609,0.25,1.069c0.13,0.471,0.26,1.12,0.41,1.95
			c0.15,0.84,0.27,1.851,0.37,3.05c0.09,1.21,0.14,2.641,0.14,4.311c0,5.83-0.61,11.979-1.83,18.43
			c-1.23,6.45-2.95,12.97-5.18,19.561c-2.22,6.601-4.9,13.108-8.03,19.54c-3.14,6.42-6.59,12.488-10.35,18.199
			c-3.77,5.721-7.82,10.96-12.15,15.75c-4.33,4.779-8.82,8.811-13.47,12.101c-0.05-0.54-0.07-1.19-0.07-1.95v-2.609
			c0-3.04,0.09-6.08,0.29-9.12c0.19-3.05,0.42-5.819,0.66-8.319c0.29-2.891,0.64-5.689,1.03-8.38c1.37-1.971,2.63-3.83,3.78-5.601
			c1.15-1.76,2.14-3.541,2.97-5.33c0.83-1.79,1.47-3.66,1.91-5.631c0.44-1.959,0.66-4.119,0.66-6.469c0-0.98-0.12-1.75-0.37-2.32
			c-0.24-0.561-0.49-0.99-0.73-1.291c-0.49-0.629-1.29-1.528-2.39-2.68c-1.1-1.149-2.27-2.311-3.52-3.459
			c-1.25-1.15-2.47-2.141-3.67-2.98c-1.2-0.83-2.12-1.25-2.75-1.25c-1.42,0-2.7,1.091-3.82,3.279c-1.13,2.181-2.13,5.031-3.01,8.57
			c-0.88,3.529-1.65,7.51-2.31,11.95c-0.66,4.438-1.21,8.938-1.65,13.5c-4.7,6.521-9.96,12.5-15.78,17.909
			c-5.83,5.42-11.94,10.091-18.35,14.021c1.46-6.08,3.08-12.701,4.84-19.861c1.76-7.159,3.66-14.6,5.69-22.299
			c2.03-7.69,4.21-15.541,6.53-23.541c2.33-7.989,4.81-15.859,7.45-23.609c-1.08-1.52-2.07-2.869-2.97-4.05
			c-0.91-1.17-1.93-2.5-3.08-3.97c-1.15-1.47-2.32-2.93-3.49-4.38c-1.17-1.44-2.3-2.8-3.38-4.08c-1.07-1.271-1.98-2.311-2.71-3.09
			c-2.2,6.87-4.31,13.92-6.31,21.149c-2.01,7.24-3.89,14.36-5.66,21.37c-1.76,7.01-3.34,13.811-4.73,20.38
			c-1.4,6.569-2.61,12.649-3.63,18.239c-1.03,5.59-1.82,10.562-2.35,14.9c-0.54,4.34-0.81,7.79-0.81,10.34
			c0,0.979,0.12,1.85,0.37,2.61C0.61,151.691,0.86,152.261,1.1,152.661z"/>
		<path fill="#FFFFFF" d="M370.85,92.481c0.811,0.59,1.78,1.189,2.931,1.801c1.148,0.619,2.35,1.17,3.6,1.659
			c1.25,0.49,2.311,0.761,3.19,0.81c0.3,0,0.689-0.31,1.18-0.92c0.49-0.619,1-1.39,1.54-2.319c0.54-0.931,1.09-1.949,1.65-3.05
			c0.56-1.109,1.06-2.16,1.5-3.17c0.449-1,0.819-1.881,1.14-2.649c0.32-0.761,0.5-1.229,0.55-1.431c0-0.291-0.43-0.801-1.28-1.51
			c-0.859-0.71-1.89-1.431-3.08-2.17c-1.199-0.73-2.439-1.38-3.71-1.95c-1.27-0.56-2.35-0.84-3.229-0.84
			c-0.44,0-1.061,0.56-1.87,1.69c-0.81,1.13-1.61,2.46-2.39,4.01c-0.78,1.54-1.471,3.14-2.051,4.779
			c-0.59,1.641-0.88,2.979-0.88,4.011C369.64,91.471,370.04,91.892,370.85,92.481z"/>
		<path fill="#FFFFFF" d="M196.16,94.981c0.71-1.771,1.48-3.58,2.31-5.439c2.99-6.871,5.89-12.741,8.7-17.621s5.36-8.89,7.63-12.029
			c2.28-3.141,4.2-5.431,5.77-6.881c1.56-1.439,2.57-2.17,3.01-2.17c0.24,0,0.37,0.061,0.4,0.181c0.02,0.13,0.04,0.31,0.04,0.56
			c0,0.88-0.38,2.34-1.14,4.37c-0.76,2.04-1.95,4.59-3.56,7.65c-1.62,3.069-3.67,6.609-6.17,10.64c-2.49,4.02-5.45,8.43-8.88,13.24
			c-0.83,1.17-1.76,2.42-2.79,3.75c-0.88,1.13-1.94,2.479-3.19,4.05c-1.25,1.561-2.63,3.211-4.15,4.92
			C194.78,98.491,195.45,96.75,196.16,94.981z M278.41,123.782c1.07-2.23,2.199-4.201,3.369-5.921
			c1.181-1.72,2.351-3.101,3.531-4.159c1.17-1.051,2.25-1.58,3.229-1.58c0.53,0,0.94,0.17,1.21,0.521c0.26,0.34,0.4,0.729,0.4,1.17
			c0,1.521-0.42,3.04-1.25,4.569c-0.83,1.511-1.93,3-3.301,4.449c-1.369,1.44-2.93,2.83-4.66,4.15c-1.739,1.33-3.51,2.58-5.319,3.75
			C276.4,128.331,277.33,126.01,278.41,123.782z M464.03,123.782c1.08-2.23,2.21-4.201,3.38-5.921s2.35-3.101,3.52-4.159
			c1.181-1.051,2.25-1.58,3.23-1.58c0.54,0,0.939,0.17,1.21,0.521c0.27,0.34,0.41,0.729,0.41,1.17c0,1.521-0.42,3.04-1.25,4.569
			c-0.83,1.511-1.931,3-3.3,4.449c-1.37,1.44-2.931,2.83-4.66,4.15c-1.74,1.33-3.521,2.58-5.33,3.75
			C462.03,128.331,462.96,126.01,464.03,123.782z M496.4,126.911c-2.4,2.25-4.82,4.49-7.261,6.69c-2.449,2.21-4.989,4.17-7.64,5.89
			c-2.64,1.721-5.39,3.11-8.25,4.19c-2.87,1.079-5.91,1.618-9.14,1.618c-1.811,0-3.051-0.27-3.71-0.809
			c-0.66-0.541-0.99-1.57-0.99-3.091c0-1.13,0.07-2.28,0.22-3.46c4.311-1.91,8.24-3.811,11.82-5.699
			c3.569-1.881,6.63-3.74,9.17-5.551c2.55-1.82,4.52-3.59,5.91-5.34c1.398-1.74,2.09-3.439,2.09-5.109c0-1.031-0.38-2.24-1.13-3.641
			c-0.76-1.4-1.75-2.73-2.98-4.012c-1.22-1.27-2.58-2.35-4.069-3.238c-1.49-0.881-3-1.32-4.521-1.32c-2.1,0-4.4,0.34-6.89,1.03
			c-2.5,0.688-5.011,1.72-7.53,3.09s-4.94,3.091-7.27,5.149c-2.32,2.061-4.391,4.439-6.2,7.131c-1.812,2.699-3.261,5.729-4.36,9.09
			c-0.31,0.92-0.56,1.87-0.78,2.84l-0.029,0.03c-1.4,1.198-2.851,2.42-4.37,3.64c-1.521,1.229-2.971,2.36-4.37,3.381
			c-1.39,1.029-2.63,1.869-3.7,2.51c-1.08,0.629-1.89,0.949-2.43,0.949c-0.29,0-0.44-0.14-0.44-0.438c0-0.54,0.17-1.399,0.521-2.57
			c0.34-1.18,0.779-2.55,1.319-4.12s1.15-3.25,1.83-5.039l2.062-5.371c0.68-1.789,1.33-3.52,1.938-5.188
			c0.62-1.671,1.12-3.11,1.511-4.341c0.1-0.34,0.17-0.631,0.22-0.85c0.05-0.221,0.069-0.4,0.069-0.551c0-0.73-0.47-1.59-1.43-2.57
			c-0.95-0.979-2.08-1.938-3.37-2.869c-1.3-0.93-2.59-1.721-3.859-2.359c-1.271-0.631-2.23-0.95-2.86-0.95
			c-0.54,0-1.29,0.229-2.24,0.7c-0.95,0.46-2.2,1.33-3.739,2.609c-1.54,1.271-3.431,3.029-5.65,5.26
			c-2.23,2.23-4.89,5.109-7.97,8.641c0.59-1.71,1.18-3.38,1.76-5c0.59-1.619,1.18-3.21,1.76-4.779c-2.149-1.92-4.49-3.58-7.01-5
			c-2.521-1.431-4.8-2.631-6.86-3.61c-1.27,2.851-2.46,5.801-3.56,8.87c-1.101,3.061-2.11,6.061-3.04,9.011
			c-0.73,2.3-1.4,4.521-2.01,6.649l-0.12,0.119c-1.13,0.98-2.391,2.07-3.78,3.271c-1.4,1.199-2.85,2.42-4.37,3.641
			c-1.52,1.229-2.97,2.359-4.37,3.379c-1.39,1.03-2.63,1.871-3.7,2.51c-1.079,0.631-1.89,0.951-2.43,0.951
			c-0.29,0-0.439-0.141-0.439-0.439c0-0.54,0.17-1.4,0.52-2.57c0.34-1.18,0.78-2.55,1.32-4.119c0.54-1.57,1.149-3.25,1.83-5.041
			l2.06-5.369c0.68-1.791,1.33-3.521,1.94-5.189c0.609-1.671,1.12-3.109,1.51-4.341c0.09-0.341,0.17-0.63,0.22-0.851
			c0.05-0.22,0.07-0.399,0.07-0.55c0-0.729-0.51-1.601-1.54-2.61c-1.03-1-2.19-1.959-3.49-2.869c-1.29-0.91-2.53-1.68-3.7-2.319
			c-1.18-0.631-1.909-0.95-2.199-0.95c-0.2,0-0.62,0.66-1.25,1.979c-0.641,1.33-1.391,3.07-2.24,5.23
			c-0.86,2.16-1.812,4.62-2.86,7.391c-0.84,2.22-1.649,4.479-2.42,6.771l-0.12-0.11c-0.58,0.49-1.439,1.23-2.569,2.211
			c-1.12,0.979-2.381,2.069-3.771,3.271c-1.4,1.198-2.86,2.42-4.37,3.64c-1.52,1.229-2.97,2.36-4.37,3.381
			c-1.39,1.029-2.63,1.869-3.71,2.51c-1.069,0.63-1.88,0.949-2.42,0.949c-0.29,0-0.439-0.14-0.439-0.438
			c0-0.83,0.31-2.211,0.92-4.12c0.609-1.91,1.359-4.04,2.239-6.4c0.881-2.35,1.801-4.76,2.75-7.209
			c0.95-2.451,1.75-4.631,2.381-6.551c0.149-0.439,0.14-0.949-0.03-1.539c-0.17-0.591-0.58-1.08-1.21-1.471
			c-1.76-1.33-3.62-2.631-5.58-3.9c-1.67-1.129-3.5-2.32-5.51-3.57c-2-1.25-3.96-2.369-5.87-3.35
			c-0.05-1.119-0.101-2.08-0.141-2.859c-0.05-0.791-0.1-1.301-0.148-1.551c-0.15-0.289-0.49-0.64-1.03-1.029
			c-0.54-0.391-1.13-0.75-1.76-1.069c-0.64-0.319-1.24-0.601-1.8-0.841c-0.561-0.25-0.891-0.369-0.99-0.369
			c-0.15,0-0.48,0.311-0.99,0.92s-1.12,1.41-1.8,2.391c-0.68,0.979-1.39,2.069-2.13,3.271c-0.73,1.199-1.42,2.38-2.05,3.528
			c-0.641,1.16-1.17,2.24-1.58,3.24c-0.42,1.01-0.62,1.78-0.62,2.32c0,0.489,0.14,0.811,0.438,0.949c0.631,0.5,1.36,1.04,2.2,1.62
			c0.681,0.54,1.51,1.141,2.49,1.812c0.98,0.659,2.08,1.358,3.31,2.09c-1.72,1.77-3.47,3.52-5.25,5.26l-3.1,3.01l-0.09-0.1
			c-2.4,2.25-4.83,4.49-7.271,6.689c-2.451,2.21-4.99,4.17-7.641,5.891c-2.641,1.719-5.391,3.109-8.25,4.189
			c-2.87,1.079-5.91,1.619-9.141,1.619c-1.81,0-3.049-0.27-3.709-0.811c-0.66-0.539-0.99-1.57-0.99-3.09
			c0-1.13,0.07-2.279,0.22-3.46c4.31-1.909,8.25-3.812,11.82-5.7c3.569-1.879,6.63-3.74,9.17-5.55c2.55-1.819,4.521-3.59,5.91-5.34
			c1.399-1.739,2.09-3.44,2.09-5.11c0-1.029-0.38-2.24-1.13-3.64c-0.76-1.399-1.75-2.729-2.98-4.011
			c-1.22-1.27-2.58-2.35-4.07-3.239c-1.489-0.881-3-1.319-4.51-1.319c-2.109,0-4.41,0.34-6.9,1.029
			c-2.5,0.689-5.01,1.721-7.529,3.09c-2.52,1.37-4.939,3.09-7.26,5.149c-2.33,2.062-4.4,4.44-6.211,7.131
			c-1.809,2.698-3.26,5.729-4.359,9.09c-0.29,0.88-0.54,1.79-0.75,2.72c-0.449,0.28-0.891,0.561-1.34,0.811
			c-1.38,0.761-2.82,1.341-4.34,1.73c-1.51,0.389-3.25,0.59-5.21,0.59c-0.44,0-0.82-0.041-1.13-0.11
			c-0.32-0.079-0.63-0.159-0.92-0.261c1.42-1.77,2.73-3.52,3.93-5.26c1.189-1.74,2.22-3.41,3.08-5c0.85-1.6,1.529-3.08,2.02-4.449
			c0.49-1.371,0.73-2.58,0.73-3.609c-0.1-0.54-0.48-1.211-1.141-2.021c-0.66-0.81-1.5-1.64-2.53-2.5
			c-1.03-0.859-2.15-1.67-3.38-2.43c-1.22-0.761-2.4-1.359-3.52-1.8c-0.54,0.489-1.14,1.25-1.8,2.278
			c-0.66,1.031-1.34,2.23-2.05,3.602c-0.71,1.38-1.4,2.859-2.06,4.449c-0.66,1.602-1.26,3.181-1.8,4.75
			c-0.53,1.57-0.96,3.08-1.28,4.521c-0.32,1.449-0.48,2.688-0.48,3.719c0,1.521,0.44,3.041,1.32,4.562
			c-1.02,1.229-2.09,2.39-3.19,3.489c-1.1,1.109-2.19,2.061-3.271,2.869c-1.07,0.812-2.09,1.461-3.04,1.951
			c-0.96,0.49-1.83,0.74-2.61,0.74c-0.39,0-0.67-0.16-0.84-0.48c-0.17-0.319-0.26-0.67-0.26-1.069c0-0.58,0.12-1.551,0.37-2.899
			c0.24-1.351,0.59-2.91,1.03-4.67c0.44-1.771,0.95-3.681,1.54-5.74c0.58-2.061,1.22-4.12,1.91-6.18
			c0.68-2.062,1.39-4.051,2.12-5.961c0.74-1.91,1.47-3.601,2.21-5.08c-2.06-1.859-4.27-3.479-6.65-4.85
			c-2.37-1.37-4.8-2.631-7.3-3.75c-1.03,2.84-2.12,5.8-3.27,8.859c-1.15,3.07-2.2,6.189-3.15,9.379c-0.6,2-1.13,4.021-1.6,6.051
			l-0.86,0.721c-1.23,1.029-2.61,2.16-4.15,3.381c-1.54,1.229-3.19,2.479-4.95,3.76c-1.76,1.271-3.45,2.439-5.07,3.49
			c-1.61,1.049-3.09,1.92-4.44,2.609c-1.34,0.689-2.41,1.029-3.19,1.029c-0.44,0-0.78-0.221-1.03-0.66
			c-0.24-0.439-0.37-1.42-0.37-2.939c0-2.311,0.29-5.521,0.85-9.641c0.561-4.119,1.55-8.88,2.97-14.27c2.84-2.65,5.6-5.42,8.3-8.32
			c2.69-2.891,5.06-5.561,7.12-8.01c2.39-2.851,4.67-5.641,6.82-8.391c4.6-5.891,8.33-11.04,11.2-15.45
			c2.86-4.41,5.1-8.2,6.71-11.37c1.62-3.16,2.72-5.77,3.3-7.83c0.59-2.06,0.89-3.68,0.89-4.86c0-0.59-0.07-1.06-0.19-1.43
			c-0.12-0.37-0.38-0.75-0.77-1.14c-0.29-0.34-0.76-0.87-1.39-1.58c-0.64-0.71-1.38-1.44-2.21-2.17c-0.83-0.74-1.72-1.44-2.67-2.101
			c-0.96-0.659-1.9-1.159-2.83-1.51c-0.59,0-1.649,0.351-3.189,1.03c-1.54,0.689-3.43,1.82-5.66,3.39
			c-2.22,1.57-4.73,3.63-7.52,6.181c-2.79,2.55-5.7,5.699-8.73,9.449c-3.04,3.75-6.13,8.15-9.29,13.2
			c-3.15,5.061-6.23,10.839-9.21,17.371c-1.47,3.18-2.88,6.85-4.22,10.989c-1.35,4.149-2.53,8.319-3.56,12.511
			c-1.03,4.189-1.85,8.17-2.46,11.92l-0.1,0.629c-1.75,1.562-3.45,2.781-5.11,3.631c-2.52,1.301-5.25,2.051-8.19,2.25
			c1.28-2.061,2.29-4.141,3.05-6.25c0.76-2.109,1.14-4.221,1.14-6.33c-0.15-0.34-0.53-0.96-1.14-1.84
			c-0.61-0.881-1.32-1.85-2.13-2.91c-0.8-1.051-1.61-2.079-2.42-3.09c-0.81-1-1.46-1.801-1.95-2.391l-0.44,0.439
			c-1.17,1.131-2.25,2.352-3.22,3.65c-0.98,1.299-1.82,2.51-2.5,3.64c-0.83,1.271-1.54,2.569-2.13,3.899
			c-0.88,1.711-1.43,3.25-1.65,4.59c-0.22,1.352-0.33,2.521-0.33,3.5c0,0.34,0.01,0.721,0.04,1.142c0.02,0.42,0.08,0.899,0.18,1.431
			c-2.01,2.75-3.94,5.02-5.8,6.809c-1.86,1.791-3.35,2.682-4.48,2.682c-1.07,0-1.61-0.73-1.61-2.199c0-1.771,0.46-4.261,1.39-7.471
			c0.93-3.21,2.72-6.811,5.36-10.779c1.76-2.691,3.38-4.861,4.85-6.511c1.46-1.642,2.74-2.899,3.81-3.79
			c1.08-0.88,1.93-1.5,2.57-1.87c0.64-0.37,1-0.681,1.1-0.92c0-0.2-0.22-0.601-0.66-1.221c-0.44-0.609-0.99-1.229-1.65-1.869
			c-0.66-0.642-1.37-1.222-2.13-1.729c-0.76-0.521-1.48-0.771-2.16-0.771c-0.25,0-0.55,0.021-0.92,0.069
			c-0.37,0.05-0.62,0.119-0.77,0.22c-4.55,1.28-8.48,3.142-11.78,5.591c-3.31,2.449-6.02,5.29-8.15,8.5s-3.69,6.659-4.7,10.34
			c-1,3.67-1.5,7.381-1.5,11.1c0,1.131,0.41,2.432,1.25,3.9c0.83,1.471,1.88,2.859,3.15,4.16c1.27,1.301,2.69,2.391,4.26,3.27
			c1.56,0.891,3.08,1.33,4.55,1.33c1.76,0,3.62-0.299,5.58-0.89c1.96-0.59,3.93-1.42,5.91-2.5s3.92-2.351,5.83-3.819
			c1.91-1.471,3.7-3.09,5.36-4.86c2.15,0,4.26-0.181,6.31-0.55c2.06-0.371,4.08-0.971,6.06-1.801c1.66-0.699,3.33-1.619,5-2.74
			c-0.03,0.57-0.05,1.121-0.05,1.642v1.351c0,0.42,0.05,0.779,0.15,1.069c0.15,0.739,0.73,1.841,1.76,3.31
			c1.03,1.471,2.28,2.931,3.74,4.381c1.47,1.449,3.05,2.709,4.74,3.789s3.29,1.621,4.81,1.621c1.12,0,2.52-0.4,4.18-1.181
			c1.66-0.79,3.46-1.819,5.4-3.09c1.93-1.271,3.91-2.722,5.94-4.341s3.99-3.239,5.87-4.859c0.91-0.779,1.79-1.55,2.64-2.32
			c-0.17,1.66-0.25,3.32-0.25,4.971c0,1.33,0.5,2.641,1.5,3.939c1.01,1.301,2.18,2.45,3.53,3.461c1.34,1,2.71,1.819,4.11,2.459
			c1.39,0.641,2.46,0.961,3.19,0.961c1.47-0.101,3.03-0.49,4.7-1.181c1.66-0.69,3.351-1.61,5.061-2.761
			c1.71-1.148,3.45-2.479,5.21-3.971c1.76-1.5,3.45-3.1,5.07-4.818c1.51,0.689,3.3,1.029,5.36,1.029c2,0,3.91-0.2,5.719-0.59
			c1.791-0.391,3.57-1.01,5.34-1.851c-0.029,0.681-0.049,1.37-0.049,2.069c0,1.08,0.459,2.38,1.39,3.9
			c0.93,1.52,2.09,2.979,3.489,4.379c1.391,1.4,2.9,2.58,4.511,3.57c1.62,0.979,3.08,1.471,4.41,1.471c3.13,0,6.34-0.4,9.649-1.181
			c3.301-0.79,6.76-2.079,10.381-3.899c3.619-1.811,7.43-4.221,11.42-7.211c3.529-2.649,7.26-5.859,11.199-9.619l0.061,0.061
			c0.79-0.74,1.67-1.551,2.649-2.431c0.971-0.88,1.95-1.79,2.931-2.72c0.979-0.931,1.95-1.86,2.899-2.801
			c0.96-0.93,1.82-1.811,2.61-2.65l1.61,0.892c0.54,0.29,1.1,0.56,1.689,0.81l-1.1,2.42c-0.49,1.08-1.05,2.49-1.69,4.23
			c-0.64,1.75-1.32,3.84-2.05,6.29c-0.74,2.46-1.47,5.33-2.21,8.608c0,0.881,0.37,1.791,1.1,2.722c0.74,0.938,1.62,1.778,2.65,2.539
			c1.02,0.761,2.1,1.399,3.229,1.91c1.12,0.521,2.051,0.78,2.79,0.78c1.12,0,2.511-0.4,4.181-1.181c1.66-0.79,3.46-1.819,5.39-3.09
			c1.94-1.271,3.92-2.722,5.95-4.341s3.99-3.239,5.87-4.859c1.069-0.91,2.09-1.82,3.069-2.71l-0.239,0.8
			c-0.83,2.801-1.5,5.271-1.98,7.43c0,0.881,0.36,1.791,1.101,2.722c0.729,0.938,1.609,1.778,2.64,2.539s2.1,1.399,3.229,1.91
			c1.131,0.521,2.051,0.78,2.79,0.78c1.171,0,2.591-0.4,4.261-1.181c1.66-0.79,3.439-1.819,5.35-3.09s3.88-2.722,5.91-4.341
			s3.99-3.239,5.87-4.859l1.149-0.99c-0.46,1.951-0.819,3.59-1.069,4.891c-0.271,1.38-0.41,2.21-0.41,2.5
			c0.88,0.939,1.88,1.869,2.979,2.801c1.101,0.93,2.2,1.779,3.301,2.54c1.1,0.76,2.18,1.369,3.229,1.84
			c1.05,0.46,1.99,0.699,2.82,0.699c0.689,0,1.149-0.199,1.399-0.59c0.24-0.39,0.511-0.938,0.811-1.62
			c2.35-5.54,4.74-10.34,7.189-14.38c2.45-4.05,4.771-7.511,6.971-10.38c2.21-2.859,4.17-5.221,5.91-7.061
			c1.739-1.84,3.069-3.32,4-4.449l0.149-0.15c-0.88,2.21-1.8,4.63-2.75,7.25c-0.96,2.63-1.88,5.271-2.76,7.939
			c-0.88,2.68-1.7,5.291-2.45,7.84c-0.76,2.551-1.36,4.83-1.8,6.84c0,0.881,0.359,1.791,1.1,2.722
			c0.73,0.938,1.62,1.778,2.681,2.539c1.05,0.761,2.14,1.399,3.26,1.91c1.13,0.521,2.06,0.78,2.79,0.78c1.13,0,2.52-0.4,4.189-1.181
			c1.66-0.79,3.45-1.819,5.351-3.09c1.91-1.271,3.88-2.722,5.91-4.341c1.609-1.279,3.159-2.561,4.67-3.84l-0.011,0.38
			c0,1.079,0.471,2.38,1.4,3.899c0.93,1.521,2.09,2.979,3.48,4.381c1.399,1.399,2.899,2.58,4.52,3.569
			c1.61,0.979,3.08,1.47,4.4,1.47c3.13,0,6.35-0.399,9.66-1.18c3.3-0.79,6.76-2.08,10.38-3.9c3.62-1.81,7.43-4.219,11.42-7.209
			c3.979-2.99,8.229-6.689,12.729-11.11L496.4,126.911z"/>
	</g>
	<g>
		<path fill="#FCFCFC" d="M409.61,49.801c-0.58-0.31-1.13-0.659-1.65-1.02c0.38-0.14,0.72-0.38,0.96-0.69
			C409.16,48.661,409.39,49.231,409.61,49.801z M292.74,70.091l0.07-0.06l2.289-2.28c0.75-0.71,1.58-1.64,2.66-2.58l3.68-3.069
			c1.33-1.141,2.931-2.19,4.531-3.41c1.579-1.24,3.439-2.29,5.271-3.5c1.8-1.24,3.859-2.23,5.83-3.42
			c1.989-1.16,4.12-2.15,6.189-3.24c4.21-2.03,8.521-3.88,12.62-5.46c2.04-0.811,4.021-1.58,5.92-2.24l5.36-1.88
			c6.68-2.25,11.13-3.54,11.13-3.54l0.04-0.01c0.06-0.021,0.11-0.07,0.16-0.09c4.08-0.78,8.14-1.551,12.188-2.301
			c-2.05,3.62-3.14,7.78-1.609,11.891c2.42,6.47,9.699,6.52,14.17,10.76c1.45,1.38,3.779,0.01,2.938-1.96
			c-1.56-3.7-2.229-7.34-2.35-11.33c-0.07-2.34,0.06-4.74-0.78-6.979c-0.6-1.58-1.64-3.04-2.96-4.021c6.83-1.11,13.7-2.03,20.7-2.56
			c-6.27,9.89-0.35,22.83,10.93,25.68c1.29,0.32,2.57-0.59,2.312-2.021c-0.5-2.819-1.641-5.199-2.65-7.859
			c-1.54-4.101-0.25-7.29-0.7-11.34c-0.21-1.851-0.989-3.66-2.21-4.891c1.33-0.04,2.66-0.069,4.011-0.08
			c5.76-0.04,11.46,0.21,17.119,0.641c-2.52,3.779-1.85,10,0,13.819c2.41,5.011,7.07,8.051,12.36,9.08
			c1.63,0.32,2.26-1.819,1.44-2.909c-2.971-4.011-0.78-10.181-2.78-14.75c-0.75-1.711-1.78-3.221-3.021-4.511
			c5.301,0.561,10.591,1.261,15.881,2.03c0.3,2.86,2.6,5.18,5.369,6.17c5.12,1.85,10.91-0.92,15.75-2.41
			c0.23-0.069,0.41-0.18,0.561-0.319l0.35,0.29c0.36,0.319,0.74,0.189,0.96-0.101l0.29,0.05c0.91,0.141,1.17-1.279,0.33-1.58
			c-0.399-0.13-0.81-0.26-1.21-0.39c-2.95-3.96-7.479-7.96-12.229-9.06c-3.45-0.801-7.61,0.43-9.391,3.6
			c-5.529-0.98-11.12-1.68-16.729-2.17c1.609-0.79,3.06-1.98,4.12-3.41c3.449-4.689,2.979-10.89,2.51-16.4
			c-0.11-1.25-1.69-1.829-2.68-1.35c-7.011,3.47-13.53,12.28-11.74,20.63c-6.931-0.359-13.84-0.439-20.63-0.3l-2.69,0.07
			c2-1.25,3.601-3.061,4.521-5.44c2.1-5.47-0.521-12.12,3.55-16.81c1.2-1.38-0.771-3.351-2.23-2.61
			c-5.87,2.99-12.12,6.84-14.05,13.63c-1.1,3.86-0.6,8.34,1.89,11.45c-7.8,0.35-15.79,0.99-23.699,2.08
			c0.81-0.95,1.449-2.061,1.81-3.36c1.84-6.5-4.229-12.58,1.9-18.18c1.25-1.13,0.27-3.61-1.521-3.13
			c-6.359,1.689-13.069,5.85-14.21,12.979c-0.81,5,1.62,10.28,5.96,12.471c-0.359,0.09-0.7,0.18-1.109,0.239
			c-0.21,0.04-0.37,0.11-0.5,0.21c-4.69,0.851-9.311,1.92-13.811,3.2l-0.85,0.19c-2.07,0.43-4.99,1.2-8.45,2.27
			c-3.46,1.04-7.42,2.5-11.6,4.21c-2.11,0.811-4.2,1.891-6.37,2.851c-2.13,1.04-4.29,2.14-6.42,3.27
			c-2.101,1.21-4.24,2.311-6.25,3.601c-2.011,1.29-4.021,2.479-5.83,3.869c-1.82,1.36-3.65,2.561-5.22,3.95
			c-1.57,1.37-3.171,2.521-4.439,3.84l-3.521,3.5c-1.029,1.061-1.81,2.101-2.51,2.891l-2.15,2.55c-0.33,0.38-0.319,0.96,0.041,1.33
			C291.74,70.471,292.359,70.471,292.74,70.091z"/>
	</g>
</g>
</svg>
