<svg xmlns="http://www.w3.org/2000/svg" width="1142mm" height="292.14mm" viewBox="0 0 3237.17 828.11">
  <title>black</title>
  <path d="M456.67,59a6.36,6.36,0,0,1-6.54-6.09c-.07-3.16,3.15-6.14,6.58-6.09,3.24.06,6.32,2.93,6.36,5.94A6.44,6.44,0,0,1,456.67,59Z" transform="translate(-16.41 -23.9)"/>
  <path d="M576.44,267.59A95.15,95.15,0,0,0,549,229.89c-20.29-17.23-43.84-25.93-70.16-26.66a109.11,109.11,0,0,0-48.23,9.7c-16.5,7.48-32.41,16.31-48.44,24.8-5.55,2.94-6.53,3.11-8.26-1.35-13.47-34.69-36.84-61.13-68-80.87a34,34,0,0,0-29.71-3.85C261,156.6,249.5,167,238.84,178c-20.82,21.45-40.44,44.08-61.32,65.47-8,8.22-18,14.64-27.36,21.42-9.57,6.89-21,10.95-29,20.36-8.92,10.52-15.13,22.19-14.28,36,.6,9.81,3,19.66,5.76,29.14,3.11,10.66,7.46,21,11.47,31.35,1.54,4,.81,6.18-3.62,6.91-4.68.78-9.3,1.9-14,2.71-10.62,1.84-21.22,3.88-31.9,5.26-10.19,1.31-20.48,1.89-30.72,2.76-8.82.75-17.65,1.46-27,2.23-.41.18-.45.28-.49,1.35a7.06,7.06,0,0,0,.58,3.69,5.41,5.41,0,0,0,.62,1.12,21.39,21.39,0,0,1,2.92,2.77c20.3,19.06,44.58,28.42,72.21,28.35,12.8,0,25.74-.62,38.1-5.15,5.16-1.89,7.12-.32,7.19,4.93a25,25,0,0,0,6.34,17.08c2.3,2.55,4.68,5.06,6.77,7.78,5.35,7,3.15,13.7-5.17,16.21l-.76.24.17,2.67,4.29.76a.82.82,0,0,1,.54,1.25c-3,4.61-5.73,8.94-8.6,13.19-4.12,6.1-8.67,11.93-12.45,18.23-3.44,5.73-2,8.77,4.25,11.42,3.77,1.59,7.57,3.12,11.23,4.93,4,2,5.13,5.31,3.37,9.46a63.61,63.61,0,0,1-2.74,5.75c-3.61,6.61-3,8.71,3.68,11.85.94.44,1.84,1,2.88,1.56a.81.81,0,0,1,.34,1,22,22,0,0,1-1.5,3.11c-2.51,3.85-1.13,6.81,2,9.37,1.14.92,2.44,1.66,3.62,2.54,6.06,4.49,9.73,9.64,7.69,18a31.83,31.83,0,0,0,.24,14.1c1.78,7.8,8.37,12.16,18.84,11.57,11.87-.67,23.65-2.94,35.5-4.14,9.55-1,19.45-3.15,28.68-1.64,18.56,3.05,30.48,16,38.21,32.32,12.39,26.22,17.74,53.74,15,83-2.22,23.8-6.79,46.95-14.9,69.34-6.79,18.74-14.91,36.83-32.09,48.87-.34.24-.48.77-1,2a.81.81,0,0,0,.73,1.13c5,.16,9.48.75,13.73.09A113,113,0,0,0,324.67,825c12.67-11,24.3-23.25,36.28-35.05,10.6-10.44,20.72-21.4,31.66-31.47,17.64-16.23,37.57-26.23,62.57-20,1.23.31,2.61,0,4.6-.24a.81.81,0,0,0,.56-1.29,28.19,28.19,0,0,0-2.8-3.57c-11.76-11.31-21.52-24.2-30.11-38-20-32.19-31.55-66.37-25-105,.82-4.84,2.83-6.5,7.15-6.72,6.37-.32,12.73-.64,19.09-1.07,7.63-.52,11.9-3.84,13.32-11.33,1-5.49,4-8.29,9.22-9.39,2.88-.61,5.71-1.45,8.56-2.17,6.6-1.66,12.22-5.07,13.77-11.88,1-4.58.47-9.71-.27-14.45-.63-4-2.26-7.89-3.7-12.21a.81.81,0,0,1,.88-1.06c3.62.43,6.68,1.18,9.56.73,13.89-2.12,22.74-15.05,20.68-29.17-.34-2.3-.12-5.75,1.32-7.08,8.72-8,13.94-17.05,15.5-29.41,1.82-14.51,1.56-28.25-3.84-41.77-1.73-4.33-1-7,3-9.87,23.92-17,44.64-36.89,57.2-64.06C584.78,315.86,586.13,291.89,576.44,267.59ZM390.62,277.82c-38.45,22.75-76.33,46.47-114.54,69.63-19.17,11.62-38.5,23-57.86,34.24a46,46,0,0,1-5.84,2.84.81.81,0,0,1-.72-1.46c7.08-4.13,14.18-8.22,21.08-12.63,19.87-12.68,39.58-25.62,59.34-38.49,34.58-22.51,69.2-45,106.09-63.59,19.48-9.84,39.55-18.23,60.9-23.1a93,93,0,0,1,20.83-2.81.81.81,0,0,1,0,1.63c-9.91.79-19.53,3.36-29.05,6.38A292.24,292.24,0,0,0,390.62,277.82Zm120.71,4.25c-10.64-5.14-22-4.51-33.13-2.65A286.19,286.19,0,0,0,422.59,295a2.34,2.34,0,0,1-.77.12.82.82,0,0,1-.81-.55h0a.81.81,0,0,1,.5-1c10.5-3.67,20.91-7.66,31.55-10.87,13-3.91,26.07-7.82,39.87-6.67,10.52.88,20.84,2.67,28.46,11.14.52.57,1,1.21,1.72,2.17C518.9,286.7,515.31,284,511.33,282.06Z" transform="translate(-16.41 -23.9)"/>
  <path d="M660.45,334.46a233.3,233.3,0,0,0-15-61.29c-9.93-24.78-22.28-48.06-42.71-66.17-14.82-13.14-32.24-21.21-51-26.38-18.13-5-36.7-3.8-55.12-1.74-7.73.86-15.31,3.17-23,4.82l.26,1.61c2-.09,4.08,0,6.09-.29,5.67-.73,11.32-2.17,17-2.3,16.16-.38,32.24-.65,48.16,3.91,23.79,6.81,44.52,17.88,59.58,38.14,14.81,19.93,22.58,42.71,26.77,66.82,4.58,26.36,4.85,53,5.09,79.71a179.48,179.48,0,0,0,2.22,23.9,22.35,22.35,0,0,0,3.81,8.93c3.16,4.64,8.83,5.08,12.62.95a23.06,23.06,0,0,0,5-8.27,66.5,66.5,0,0,0,1.89-8c-.12.22-.24.44-.37.66.13-.22.25-.44.37-.66C665.4,376,661,339.79,660.45,334.46Z" transform="translate(-16.41 -23.9)"/>
  <path d="M455.12,196.67c18.55-5.46,37.44-5.95,56.67-4.61,18.66,1.3,35.52,7.24,51.14,17,23.74,14.88,38.23,36.69,46.19,63.15,4.7,15.61,6.42,31.63,7,47.91a413.43,413.43,0,0,1-11.21,108.52c-6.64,28.21-14.29,56.18-27.74,82.1-4.45,8.57-9.16,17.1-17.59,22.62-8.66,5.67-17.42,2-20.76-7.94-2.34-6.94-.5-13.43,1.28-19.61,3.56-12.39,8.16-24.5,12.63-36.62,10.51-28.5,21.91-56.69,31.57-85.47a245.66,245.66,0,0,0,12.23-63.87c1.2-20.21.21-39.86-6.47-59-11.25-32.28-34.63-50.92-67-59.69a144.62,144.62,0,0,0-42.21-4.76c-6.36.18-12.69,1.08-19,1.55-2.19.16-4.39,0-6.59,0Z" transform="translate(-16.41 -23.9)"/>
  <path d="M437.37,193.75a8.53,8.53,0,0,1,1.17-2.33c13.39-13.52,23-29.68,32.21-46.12,9.73-17.43,18.38-35.5,28.73-52.56,12.41-20.46,30.14-34.14,55.12-35C574.37,57,588,67.47,597.35,84c7.13,12.62,7.93,26.29,4.06,39.94-4.49,15.87-15.54,24.73-32,26-14.22,1.06-27.73-1-39.21-10.69-10.36-8.73-14.4-19.71-11.95-32.83C520.71,93,528.72,84,541.75,80c7.45-2.29,14.24-.26,19.82,5.33,3.75,3.76,4.47,8.47,3.06,13.19-1.34,4.5-5.68,5.54-9.8,6.26-4.35.75-8.76,1.16-13.07,2a10.8,10.8,0,0,0-8.64,7.84,5,5,0,0,0,.72,3.92c.42.53,2.48.24,3.52-.27,7.71-3.79,8.51-3.43,11,5.18a62.19,62.19,0,0,0,2.56,7.42c1.73,3.95,5.13,4.63,9,4.28,4.09-.37,3.55-3.46,3.87-6.19.59-5.05,2.53-6,7.33-3.87a66.35,66.35,0,0,0,10.92,4.1c3.25.77,5.72-1.08,5.13-4.65-1.59-9.69.55-19,1.84-28.52,1.52-11.24-4.81-20.43-14.5-26.22-19-11.35-43.35-2.92-56.46,8.49-11,9.58-17.5,22.3-24.67,34.6-10.79,18.51-21.45,37.12-32.95,55.2-5.23,8.22-12.3,15.26-18.61,22.78a37.63,37.63,0,0,1-3.76,3.45Z" transform="translate(-16.41 -23.9)"/>
  <path d="M422.56,191.84a.67.67,0,0,1-.51-.68c.57-13-.1-25.9-6.95-37.48-7.62-12.88-18.48-21.86-33.63-23.86-15.6-2.05-33.57,7.4-37.89,25.05a31.39,31.39,0,0,0,.25,17.21c1.73,5.75,5.59,9.07,11.22,12.3,3.94,2.26,8.11,3.09,12.59,3.84,9,1.5,13.93-4.28,18.44-9.74a19.46,19.46,0,0,0,1.87-2.27c2-3.7,1.17-4.46.31-6.35-.42-.92-1.61-1.46-3.8-1.91h0c-5.68-2.24-10-5.37-9.47-12.18.48-6.49,8.09-11.38,14-8.58C400.48,152.65,406.13,163,399.5,178c-10.66,24.06-40,27.44-56.33,6.36-20.16-26.07-.76-52.57,22.29-58.91,27.8-7.65,53.62,17.3,56.81,37.89a111.31,111.31,0,0,1,1.54,23.82,17.84,17.84,0,0,1-.46,4.23.66.66,0,0,1-.8.47Z" transform="translate(-16.41 -23.9)"/>
  <path d="M422.42,201.58c2.75-5.46,5.54-10.91,8.26-16.38,6.3-12.69,9-26.2,9.23-40.29.09-5.22.4-10.44.87-15.64.41-4.5-.83-8.11-4.73-10.54s-4.66-5.62-3.36-9.73a28.08,28.08,0,0,0,1.08-4.78c.5-3.78-1.06-5.94-5-6.19a56.72,56.72,0,0,1-6.32-.75c-4.74-.83-8.45-3.3-9.41-8.14-1.06-5.35,1.77-9.47,5.8-12.68a9.82,9.82,0,0,1,12-.65c8,5.13,14.33,12,18.06,20.79,8,18.83,7,37.91,1.13,57.06-4.66,15.33-12.06,29.29-21,42.48a50,50,0,0,1-3.33,4.23,23,23,0,0,1-2.05,1.91Z" transform="translate(-16.41 -23.9)"/>
  <path d="M486.88,174.57c6.64-2.26,13.18-4.89,19.93-6.72a163.86,163.86,0,0,1,66.68-3.71c10.64,1.53,21.12,5.78,31.08,10.14,20.37,8.9,36.05,23.48,47.36,42.64a23,23,0,0,1,3.32,8.55c.27,2.2-1,6.37-2.08,6.57-2.43.43-6-.33-7.69-2-3.57-3.52-6.33-7.89-9.27-12-12.05-16.91-26.45-31.16-45.49-40.13a91,91,0,0,0-31.62-8.11c-5.51-.46-11-1.83-16.49-1.81a173.57,173.57,0,0,0-53,8.13,7.6,7.6,0,0,1-2.23,0Z" transform="translate(-16.41 -23.9)"/>
  <path d="M460.64,176.06c.68-1.9.83-3.21,1.51-4.12,9-12,18.82-23.11,32.1-30.56,11.35-6.37,24.8-4.67,31.86,4,2,2.38,4.26,5.11,1.71,8.3s-6,4-10,2c-16.61-8.21-28-6.18-41.83,7.16Q469.61,169,463.2,175A10.84,10.84,0,0,1,460.64,176.06Z" transform="translate(-16.41 -23.9)"/>
  <path d="M482.93,50c15.37,13,10.87,64-6.89,77.6C484.9,102.26,486.43,76.36,482.93,50Z" transform="translate(-16.41 -23.9)"/>
  <path d="M523.73,43.61c-2.49.18-1.78-4.67-2.9-6.89a12.48,12.48,0,0,0-17.44-5.27c-3.8,2.18-6.12,8.6-3.57,12,1.55,2,4.73,4,7.15,3.91,1.95,0,3.92-3,5.74-4.8a19.08,19.08,0,0,0,1.87-2.26,1.46,1.46,0,0,1,2.28-.08c1.1,1.27,2.26,2.53,2.32,3.84.23,5.13-3.72,6.75-7.57,9.1-3.14,1.92-11.07-.81-12-1.49-7.23-5.27-8.35-12-3.27-19.59,3.88-5.82,13.91-8.59,19.61-4.44,3.78,2.76,7.37,5.85,8.51,10.52C525,40.45,524.85,43.53,523.73,43.61Z" transform="translate(-16.41 -23.9)"/>
  <path d="M378.07,96a1.16,1.16,0,0,1-1.86-1.31c1.43-3,4.37-4.57,7.83-5.4a11.73,11.73,0,0,1,13.35,5.93c2.21,3.89,1.83,7.76-.64,11.55-4.13,6.33-13.72,4.84-17.34-.14-1.1-1.52-.79-4.78,0-6.78.69-1.69,2.46-2.93,4-4.28a1.15,1.15,0,0,1,1.48,0h0a1.15,1.15,0,0,1,.39,1.21c-.25.92-.5,1.85-.77,2.77-.81,2.75-.23,5.52,2.68,5.71a7.79,7.79,0,0,0,6.08-3.12,6.07,6.07,0,0,0-1.79-8.32,8.79,8.79,0,0,0-10.55-.15A17.85,17.85,0,0,0,378.07,96Z" transform="translate(-16.41 -23.9)"/>
  <path d="M385.87,226.7c12.18-8.47,12-21,13.87-32.77,6.69,3.22,8,9,5.14,18.95C402.59,221,394.44,227.67,385.87,226.7Z" transform="translate(-16.41 -23.9)"/>
  <path d="M474.4,93.32c.07,5.31-3.16,8.61-8.43,8.6-5,0-8.28-3.28-8.35-8.28s3.07-8.39,8-8.5C471.21,85,474.33,87.94,474.4,93.32Z" transform="translate(-16.41 -23.9)"/>
  <path d="M466.09,77.63A7.86,7.86,0,0,1,458,70.09c-.09-3.91,3.9-7.6,8.14-7.52,4,.07,7.81,3.62,7.86,7.34A8,8,0,0,1,466.09,77.63Z" transform="translate(-16.41 -23.9)"/>
  <path d="M596.28,152.91a7.27,7.27,0,0,1,7-6.74c3.66.05,7.44,3.83,7.21,7.2-.22,3.15-4.51,7-7.8,6.95C599.58,160.3,596.2,156.38,596.28,152.91Z" transform="translate(-16.41 -23.9)"/>
  <path d="M634.56,163.26a5.89,5.89,0,0,1-5.58,5.69c-3.23.38-6.87-3-6.78-6.33.11-3.92,2.72-5.76,6.29-6.22C631.56,156,634.46,159.16,634.56,163.26Z" transform="translate(-16.41 -23.9)"/>
  <path d="M657.19,180.06a5.89,5.89,0,0,1-5.58,5.69c-3.23.38-6.87-3-6.78-6.33.11-3.92,2.72-5.76,6.29-6.22C654.19,172.81,657.09,176,657.19,180.06Z" transform="translate(-16.41 -23.9)"/>
  <path d="M446.24,42.32a3.84,3.84,0,0,1-4-3.68,4,4,0,0,1,4-3.68,4,4,0,0,1,3.84,3.59A3.89,3.89,0,0,1,446.24,42.32Z" transform="translate(-16.41 -23.9)"/>
  <path d="M356.08,121.72a6.36,6.36,0,0,1-6.54-6.09c-.07-3.16,3.15-6.14,6.58-6.09,3.24.06,6.32,2.93,6.36,5.94A6.44,6.44,0,0,1,356.08,121.72Z" transform="translate(-16.41 -23.9)"/>
  <path d="M538.53,47a1.54,1.54,0,0,1-2.8,1.14c-2.15-3.55-1.8-7.91-.35-12.4A16.37,16.37,0,0,1,551,23.9c5.72-.11,9.63,2.79,12,8.08,4,8.83-4.2,19.08-12.07,20.13-2.4.32-5.7-2.11-7.3-4.33-1.36-1.89-1.47-4.78-1.9-7.42a1.53,1.53,0,0,1,.92-1.65h0a1.54,1.54,0,0,1,1.73.37c.8.85,1.59,1.7,2.37,2.57,2.41,2.69,5.79,3.78,8,.5,1.53-2.28,2-6.81.81-9.08-1.84-3.6-5.75-5.33-10.21-3.19-5.05,2.43-7.44,6.84-7.41,12.2A23.91,23.91,0,0,0,538.53,47Z" transform="translate(-16.41 -23.9)"/>
  <g>
    <path d="M782.75,504.21l2.87,13.73q-14,15.57-18.29,24.93a43.08,43.08,0,0,0-4.3,18q0,4.42,4,13.89a37.09,37.09,0,0,1,3.2,14.36q0,8.45-4.13,13.83a12.59,12.59,0,0,1-10.37,5.38q-6.41,0-10.87-6.23t-4.47-16.37q0-17.74,9.19-37.06T782.75,504.21Z" transform="translate(-16.41 -23.9)"/>
    <path d="M864.92,468.35l3.21,15.38q-15.68,17.44-20.49,27.93a48.26,48.26,0,0,0-4.82,20.16q0,5,4.53,15.56a41.57,41.57,0,0,1,3.59,16.09q0,9.47-4.63,15.5t-11.62,6q-7.18,0-12.18-7t-5-18.34q0-19.87,10.29-41.52T864.92,468.35Z" transform="translate(-16.41 -23.9)"/>
    <path d="M1232.25,719.34q-36,44.1-69.24,63.48t-65.76,19.38a112.89,112.89,0,0,1-13.15-.73,92.29,92.29,0,0,1-13.35-2.67q-7.16-1.93-15.67-5.09t-20.12-8q-12,5.34-20.89,8.48A138.9,138.9,0,0,1,997.45,799,127.34,127.34,0,0,1,982,801.47q-7.74.73-17,.73-16.25,0-25.72-3.63t-9.48-12.36q0-8.72,12.19-14.54t35-5.81q6.18,0,12,.48a77.64,77.64,0,0,1,11.8,1.94q6,1.45,12.57,3.39t15.09,4.85a140.79,140.79,0,0,0,21.08-17.93,205.8,205.8,0,0,0,20.5-25.44q10.63-15.26,23-36.83t28.24-53.06q13.92-27.13,24.37-47.24t19.15-35.37q8.7-15.26,16.25-26.89a244.72,244.72,0,0,1,15.86-21.8q8.31-10.18,18-20.35t22.44-22.77q-12.77-9.69-31.14-16.72t-41.58-7q-2.32,0-6.38.24t-13,1.21a197.85,197.85,0,0,1,8.12,23,88.06,88.06,0,0,1,2.71,23q0,33.44-14.31,71a279,279,0,0,1-67.5,100.55,229.51,229.51,0,0,1-30.17,24.23,162,162,0,0,1-30,16q-14.71,5.81-27.08,5.81-24.76,0-37.13-16.47T937.49,651a137.59,137.59,0,0,1,4.45-33,219.74,219.74,0,0,1,12.76-36.58A256.43,256.43,0,0,1,975,544.65a209.49,209.49,0,0,1,27.08-33.19,386.65,386.65,0,0,1,33.46-29.8,210.09,210.09,0,0,1,30.37-19.87,161.58,161.58,0,0,1,31.14-12.6q16-4.6,36.17-8.48-13.16-11.14-25.34-16.47t-30.37-5.33q-31,0-63.25,15.75a209.54,209.54,0,0,0-59,43.37,190,190,0,0,0-22.82,28.35,246.32,246.32,0,0,0-19,33.92,230.24,230.24,0,0,0-13,35.37,126,126,0,0,0-4.83,33.19,96.44,96.44,0,0,0,1.93,21.08,79.51,79.51,0,0,0,4.25,13.81,69.18,69.18,0,0,0,4.25,8.48,10.69,10.69,0,0,1,1.93,5.09c0,1.29-.52,1.94-1.55,1.94s-2.13-.73-3.29-2.18a28.66,28.66,0,0,1-3.29-5.33q-1.55-3.15-2.71-6.06a41.66,41.66,0,0,1-1.55-4.36q-4.64-13.56-4.64-31.5A150.48,150.48,0,0,1,895.72,574a225.84,225.84,0,0,1,12.77-37.31A228.61,228.61,0,0,1,928,501.28a205,205,0,0,1,25-30.53,211.12,211.12,0,0,1,59.38-42.4,156.14,156.14,0,0,1,67.5-15.26q20.11,0,34.23,6.54t27.66,20.11q7.73-.48,12.38-.73t7-.24a178,178,0,0,1,23.6,1.45,138.12,138.12,0,0,1,20.69,4.36,118.47,118.47,0,0,1,19.15,7.51q9.28,4.61,19.34,10.42a229,229,0,0,1,22.24-17.2q9.86-6.54,13-6.54c1,0,1.55.49,1.55,1.45a3.21,3.21,0,0,1-1.55,2.91q-1.94,1.45-5.61,4.6t-7.74,7q-4.06,3.88-8.32,7.75t-7,6.78a130.39,130.39,0,0,1,28.43,41.43q9.86,23,9.86,55a233,233,0,0,1-14.51,80.44A249.29,249.29,0,0,1,1232.25,719.34ZM964.57,795.9a116.37,116.37,0,0,0,15.67-1A85.93,85.93,0,0,0,993.77,792a132.65,132.65,0,0,0,12.77-4.6q6.38-2.66,13.73-6.06a181.32,181.32,0,0,0-24.18-7.27,85.54,85.54,0,0,0-16.83-1.94q-20.51,0-32.11,4.12t-11.6,9.93q0,2.91,5.8,6.3T964.57,795.9Zm22.44-93q10.44,0,23.4-4.36a134.26,134.26,0,0,0,27.46-13.33,208,208,0,0,0,29.79-22.77,263.16,263.16,0,0,0,52.61-66.14,260.8,260.8,0,0,0,16.63-35.13,222,222,0,0,0,10.25-34.65,161.5,161.5,0,0,0,3.48-32.47q0-15.5-3.09-26.17a79.12,79.12,0,0,0-9.67-20.84,215.89,215.89,0,0,0-68.66,21.56q-33.07,16.72-63.25,48.21a267.25,267.25,0,0,0-26.5,32.71,235.44,235.44,0,0,0-19.92,34.89A206.21,206.21,0,0,0,947,619.52,135.19,135.19,0,0,0,942.52,653q0,22.78,12.38,36.34T987,702.86Zm105.6,91.1a75.21,75.21,0,0,0,28-5.81,133.48,133.48,0,0,0,28.82-16.23,212.43,212.43,0,0,0,28-24.71,270,270,0,0,0,25.72-31.25,394.5,394.5,0,0,0,28-44.34,407.37,407.37,0,0,0,20.7-44.09,261.6,261.6,0,0,0,12.76-41.67,182.08,182.08,0,0,0,4.25-37.55q0-26.64-6.58-43.13a98.09,98.09,0,0,0-17.79-29.07q-12,14.06-19.54,24A218.24,218.24,0,0,0,1211,521.15q-6.58,11.15-14.12,26.89T1177.71,590q-18.57,41.19-33.85,70.75a468.72,468.72,0,0,1-30.75,51.85,249.84,249.84,0,0,1-32.49,38.52,263.87,263.87,0,0,1-38.68,30.29q13.93,5.34,26.3,9A86.2,86.2,0,0,0,1092.61,794Z" transform="translate(-16.41 -23.9)"/>
    <path d="M1418.69,721.91q-25.53,40.15-45.45,60.21t-31.53,20.07a12.81,12.81,0,0,1-10.64-5.25q-4.06-5.24-4.06-14.51t3.48-24.08q-8.51,12.36-14.7,21a117.58,117.58,0,0,1-11,13.59,38,38,0,0,1-8.9,7.1,16.75,16.75,0,0,1-7.93,2.16q-9.67,0-15.86-9.57t-6.19-24.39q0-19.76,9.86-42a190.79,190.79,0,0,1,24.76-41.07A166.15,166.15,0,0,1,1332.24,654q16.83-12.35,30.75-12.35a15.35,15.35,0,0,1,10.44,3.71q4.25,3.71,4.26,10.5a57.48,57.48,0,0,1-.77,6.18l8.51-16.67,22-1.85-50.29,101.28q-6.58,14.21-10.83,24.7t-4.25,14.2q0,4.33,2.13,6.18a6.32,6.32,0,0,0,4.06,1.85q4.25,0,12-6.79a164.07,164.07,0,0,0,16.83-17.6q9.08-10.8,19-24.09T1414.82,717l13.54-19.76c.25-.41,1.16-1.75,2.71-4s2.58-3.4,3.09-3.4c1,0,1.55,1,1.55,3.09s-1.16,4.74-3.48,8Zm-130.75,72.87q3.87,0,11.6-7.72A175.49,175.49,0,0,0,1316.38,767q9.08-12.35,18.57-27.48t17.21-29.64a270.58,270.58,0,0,0,12.76-27.17q5-12.65,5-20.07a16,16,0,0,0-2.32-8.65q-2.32-3.7-5.42-3.71-7.74,0-17.79,10.5t-25.92,35.82q-11.6,18.53-19,32.73t-11.6,24.39a104.54,104.54,0,0,0-5.8,17.29,55.71,55.71,0,0,0-1.55,10.81,19.45,19.45,0,0,0,2.13,8.65Q1284.86,794.79,1287.95,794.78Z" transform="translate(-16.41 -23.9)"/>
    <path d="M1575.35,650.27q-4.26-1.23-11.22,5.87t-13.54,15.13q-5.8,8.66-23.6,39.22t-21.27,38q-1.55,3.71-6.19,12t-9.67,17.6q-5,9.26-9.67,16.37t-6.58,7.1q-5.42,2.46-9.09-4.63t-1.74-20.07q7.73-50.63,50.29-125.37a170,170,0,0,0-21.28,25.63q-8.9,13.29-14.7,23.78t-9.67,17.91a92.64,92.64,0,0,1-6.58,11.12q-7.74,14.21-24.95,46.32t-27.27,25q-10.05-7.09,7.93-64.23t27.27-59a12.2,12.2,0,0,1,4.06-3.09,6,6,0,0,1,4.45-.62,4.3,4.3,0,0,1,2.71,3.09q.77,2.47-1.16,7.41-28.63,39.53-38.1,76.89t-.19,31.19q9.28-6.17,24-35.2t19.34-35.82q15.86-30.25,29.4-51.26,9.66-13,18.18-24.7t36.36-6.18Q1508,705.24,1474,784.9a13.9,13.9,0,0,0,.58,4.63c.39,1,.83,1.54,1.35,1.54s2.45-3,5.8-9,7.54-13.79,12.57-23.47,11.08-20.69,18.18-33,14.25-24.8,21.47-37.36a269.62,269.62,0,0,1,21.28-32.11q10.44-13.27,24.76-17l21.27-.62L1568,703.38q-15.87,30.89-25.92,52.49t-10.06,29q0,7.41,3.87,7.41,4.25,0,12.18-8a219.1,219.1,0,0,0,18.18-21.61q10.25-13.58,21.47-31.19t21.66-36.13l3.29-5.25a3.2,3.2,0,0,1,2.9-1.54c.77,0,1.16.83,1.16,2.47a16.16,16.16,0,0,1-2.51,8q-2.52,4.33-3.29,5.56-25.53,45.71-46,71.64t-33.27,25.94a26.93,26.93,0,0,1-9.67-20.38q-.39-12.35,6.77-37.05t25.14-57.13Q1571.87,655.21,1575.35,650.27Z" transform="translate(-16.41 -23.9)"/>
    <path d="M1701.84,702.77q-11.23,19.77-22.82,37.67a350.31,350.31,0,0,1-23,31.81,157.85,157.85,0,0,1-21.66,22.23q-10.25,8.34-18.76,8.34-11.21,0-18.37-11.73T1590,758.35a116.56,116.56,0,0,1,7.93-42.61,181.35,181.35,0,0,1,19.92-37.67,152.32,152.32,0,0,1,13.35-15.13,94.9,94.9,0,0,1,14.7-12,103.51,103.51,0,0,1,14.5-8,31.87,31.87,0,0,1,12.77-3.09q6.18,0,10.64,5.87a23.37,23.37,0,0,1,4.45,14.51,19.25,19.25,0,0,1-3.29,11.43q-3.29,4.63-7.54,4.63-7,0-7-9.26c0-2.88.45-4.94,1.35-6.18a13.65,13.65,0,0,1,3.09-3.09,19.88,19.88,0,0,1,3.09-1.85,2,2,0,0,0,1.35-1.85q0-3.08-1.74-4.32a6.27,6.27,0,0,0-3.67-1.24q-3.48,0-8.9,3.4a62.47,62.47,0,0,0-11.6,9.88,156.81,156.81,0,0,0-12.57,15.13A174.47,174.47,0,0,0,1628.73,696a218.42,218.42,0,0,0-17,39.22q-7,21.31-7,38,0,19.15,10.06,19.15,8.12,0,19.73-10.19a215.19,215.19,0,0,0,23.6-24.7q12-14.5,23-30.88a331.74,331.74,0,0,0,17.6-28.72q3.86-8.64,6.19-8.65t2.32,3.09q0,1.25-2.32,5.25T1701.84,702.77Z" transform="translate(-16.41 -23.9)"/>
    <path d="M1754.83,633l-37.13,65.46q5.8-6.17,10.25-8a21.69,21.69,0,0,1,8.32-1.85c2.32,0,5.42.83,9.28,2.47q10.83-14.82,19.15-25.32a174.54,174.54,0,0,1,14.7-16.67,54.17,54.17,0,0,1,11.61-9,21.07,21.07,0,0,1,9.86-2.78,10.31,10.31,0,0,1,8.32,4q3.28,4,3.29,11.43a19.3,19.3,0,0,1-2.51,9.88q-2.52,4.33-6,4.32a5.88,5.88,0,0,1-5-2.78,11,11,0,0,1-1.93-6.48,27.59,27.59,0,0,1,1.55-7.41q.38-1.23.77-2.78a10.73,10.73,0,0,0,.39-2.16c0-.82-.26-1.24-.77-1.24q-4.64,0-17,11.73T1751,693.5a24.2,24.2,0,0,1,5.61,7.72q1.74,4,1.74,11.42A60.82,60.82,0,0,1,1756,729q-2.32,8.34-8.9,22.54Q1739,770.08,1737,775.33a26.65,26.65,0,0,0-1.93,9q0,7.41,6.19,7.41,4.64,0,10.83-4.32t14.89-13.9a279.17,279.17,0,0,0,19.92-25.32q11.21-15.75,25.53-39.22,3.48-5.56,8.12-13.28t6.58-7.72c1.29,0,1.93.83,1.93,2.47q0,.62-2.51,6.18a90.65,90.65,0,0,1-7.54,13q-6.58,9.89-16.25,25.63t-20.7,30.57a188.75,188.75,0,0,1-22.63,25.63q-11.6,10.81-22,10.81-6.19,0-11.22-5.56t-5-15.44q0-8,4.64-20.07t10.06-24.39q4.25-9.26,7.54-17t3.29-11.42a10.14,10.14,0,0,0-.19-2.47,17.16,17.16,0,0,0-2.13-3.09q-8.12,11.74-14.12,16.67T1720,724.38q-4.64,0-6-4.63a41.08,41.08,0,0,1-1.35-11.42l-44.1,91.4-20.5,2.47q17.8-39.52,33.65-72.57t29-58.67q13.15-25.62,20.5-38Zm-33.27,84q3.09,0,7.74-4.63a107.94,107.94,0,0,0,10.83-13.28q-4.26-3.08-7.35-3.09a8.75,8.75,0,0,0-3.87,1.23,18.59,18.59,0,0,0-4.64,3.71,34.15,34.15,0,0,0-4.06,5.25,10.88,10.88,0,0,0-1.74,5.87C1718.47,715.33,1719.5,717,1721.56,717Z" transform="translate(-16.41 -23.9)"/>
    <path d="M1885.57,731.79q-7.74,13.59-16.44,26.25a203.17,203.17,0,0,1-17.79,22.54,98.69,98.69,0,0,1-18,15.75q-8.9,5.88-16.25,5.87-8.89,0-15.09-11.12a51.19,51.19,0,0,1-6.19-25.32q0-13,6.19-33.35a152.77,152.77,0,0,1,19.34-40.14,223.54,223.54,0,0,1,15.28-20.38A181.92,181.92,0,0,1,1853.85,654a92.16,92.16,0,0,1,17.41-12.66q8.5-4.63,16.25-4.63,8.12,0,12.57,7.41t4.45,20.38a84.55,84.55,0,0,1-.58,9.88,114.4,114.4,0,0,1-2.13,11.73q-1.55,6.8-4.45,16.06t-7.93,22.23a80.43,80.43,0,0,0,10.25-.62,36.35,36.35,0,0,0,9.86-2.78,38.83,38.83,0,0,0,10.25-6.79,112.31,112.31,0,0,0,11.8-12.66,54.7,54.7,0,0,0,5.42-7.72q2.32-4,3.48-4c1.29,0,1.93.83,1.93,2.47,0,1.24-.65,3-1.93,5.25a67.87,67.87,0,0,1-4.45,6.79q-2.52,3.4-5.22,6.48a42.62,42.62,0,0,0-3.87,4.94,59.74,59.74,0,0,1-8.32,7.72,62.24,62.24,0,0,1-8.51,5.56,43.15,43.15,0,0,1-7,3.09,16,16,0,0,1-4.06.93h-6.77A18,18,0,0,1,1885.57,731.79Zm-65.37,61.14q7.34,0,22-14.2T1872,741.06a171.9,171.9,0,0,0,10.83-20.38q5-11.12,8.7-21.92a172.64,172.64,0,0,0,5.61-20.07,78.23,78.23,0,0,0,1.93-15.44q0-6.79-2.9-10.5t-6-3.71q-8.9,0-23.79,14.82t-36.17,56.2q-7.35,14.21-11.6,23.78t-6.38,15.75a61.89,61.89,0,0,0-2.71,9.88,41.33,41.33,0,0,0-.58,6.18q0,8,3.29,12.66T1820.2,792.93Z" transform="translate(-16.41 -23.9)"/>
    <path d="M2034.88,705.85q-29.79,48.17-54.35,72.26t-38.1,24.09q-11.21,0-19.15-12.66T1915.35,759a101.6,101.6,0,0,1,5-30.26q5-16.05,18.57-40.14A124.88,124.88,0,0,1,1955,666a117.85,117.85,0,0,1,16.63-15.44,87.79,87.79,0,0,1,14.51-9q6.57-3.08,9.67-3.09a13.12,13.12,0,0,1,10.64,4.94q4.06,4.95,4.06,13.59,0,24.09-21.66,48.79a125.46,125.46,0,0,1-9.48,10.19,92.27,92.27,0,0,1-11,9q-6.19,4.33-14.12,9t-19.53,10.81a107.55,107.55,0,0,0-4.45,12.35,44.86,44.86,0,0,0-1.35,11.73q0,9.88,3.67,16.37t10.64,6.48q6.18,0,15.86-6.18a134.32,134.32,0,0,0,21.28-17.6,285.68,285.68,0,0,0,24.18-27.48,418.48,418.48,0,0,0,24.95-35.82l6.19-9.88q3.09-4.94,5-4.94c1,0,1.55.83,1.55,2.47a64.06,64.06,0,0,0-3.67,6.79A64.59,64.59,0,0,1,2034.88,705.85Zm-96.71,29q9.66-6.17,16.63-10.5A146.14,146.14,0,0,0,1967,716a81.32,81.32,0,0,0,9.09-8,111.94,111.94,0,0,0,21.86-32.73q4.83-11.42,4.83-20.07,0-4.94-1.93-7.1a6,6,0,0,0-4.64-2.16q-5.42,0-12.38,7.1a123.09,123.09,0,0,0-14.89,19.45,292.43,292.43,0,0,0-15.86,28.41Q1945.13,717,1938.18,734.88Z" transform="translate(-16.41 -23.9)"/>
    <path d="M2375.41,736.3Q2358,761,2339.21,775.79t-35.14,19.14q-8.17,12.59-15.44,21.81a148.28,148.28,0,0,1-14.2,15.75,51.67,51.67,0,0,1-13.84,9.69,35.2,35.2,0,0,1-14.73,3.15q-11.71,0-19.88-11.87t-8.16-35.62a91.29,91.29,0,0,1,.53-9.45q.53-5.09,2-13.33-3.91-8.72-6.92-16.47a110.43,110.43,0,0,1-4.79-15.51,134.65,134.65,0,0,1-2.66-16.23,179.76,179.76,0,0,1-.89-18.66q0-28.58,5.68-51.61a413.44,413.44,0,0,1,16-49.67,264.31,264.31,0,0,1-27.33-2.18,165.9,165.9,0,0,1-23.42-4.85,120.69,120.69,0,0,1-21.12-8.24,149.7,149.7,0,0,1-20.76-12.84,105.43,105.43,0,0,1-28.22-31.5q-11.18-18.9-11.18-39.25a77.29,77.29,0,0,1,7.45-33.92q7.45-15.5,17.39-23.74a76.8,76.8,0,0,1,29.64-15.51q17.21-4.84,38.86-4.85a184.85,184.85,0,0,1,30,2.42,177.09,177.09,0,0,1,27.68,6.78,163.83,163.83,0,0,1,23.6,9.93,120,120,0,0,1,18.1,11.39q2.48,2.43,5.86,5.33a89.22,89.22,0,0,1,6.57,6.3,68.15,68.15,0,0,1,5.32,6.3q2.13,2.91,2.13,4.36c0,1.29-.48,1.94-1.42,1.94q-1.78,0-5.5-3.39t-8.7-8.72q-14.56-14-41.17-25.2t-60.69-11.15q-22.36,0-38,4.36a81.13,81.13,0,0,0-27.68,13.57q-9.94,7.76-17.21,21.56t-7.28,31.74q0,18.42,11.18,36.34a104,104,0,0,0,29.28,30.53,146,146,0,0,0,20.23,12.11,117.12,117.12,0,0,0,20.58,7.75,138.31,138.31,0,0,0,22.54,4.12q11.89,1.21,26.8,1.7,8.87-17,17.57-31t18.1-26.65a295.12,295.12,0,0,1,19.7-23.74,298.78,298.78,0,0,1,23.07-22.29,362.86,362.86,0,0,1,31.59-24.23,319.62,319.62,0,0,1,31.05-18.9,223.33,223.33,0,0,1,26.62-12.11q11.89-4.36,19-4.36,13.48,0,21.47,8a26.14,26.14,0,0,1,8,19.14q0,10.18-5.32,21.56a117.16,117.16,0,0,1-14.55,23,219.18,219.18,0,0,1-21.3,23,275,275,0,0,1-25.91,21.56q-14.56,10.66-27.68,18.41a228.29,228.29,0,0,1-27.51,13.81,282.12,282.12,0,0,1-31.05,10.9q-16.69,4.85-38.33,10.18a359.72,359.72,0,0,0-22.36,58.39,213.93,213.93,0,0,0-8.87,59.36q0,6.3.53,11.63a125.91,125.91,0,0,0,2.31,13.57,291.69,291.69,0,0,1,12.07-32.71,324.44,324.44,0,0,1,15.08-30.29,287,287,0,0,1,16.15-25.44,161.73,161.73,0,0,1,15.26-18.66q19.16-20.83,41.35-33t41-12.11q20.23,0,30,14.05t9.76,35.37q0,20.35-7.81,43.61A180.32,180.32,0,0,1,2375.41,736.3ZM2245.87,838.54q12.06,0,23.78-9.21t25.55-31q-16.69,4.36-25.91,4.36a49.35,49.35,0,0,1-23.07-5.33,98.89,98.89,0,0,1-21.29-15.51q-1.06,6.3-1.6,10.18a56.92,56.92,0,0,0-.53,7.75q0,18.41,6.92,28.59T2245.87,838.54ZM2308,787.66a181.25,181.25,0,0,0,34.78-22.77q15.61-13.08,30.88-35.37a152.49,152.49,0,0,0,11.71-20.11,215.46,215.46,0,0,0,9.23-21.81,152.78,152.78,0,0,0,6-21.56,101.78,101.78,0,0,0,2.13-19.87q0-21.32-9.76-32.22T2365.83,603a58.2,58.2,0,0,0-15.62,2.67,120.06,120.06,0,0,0-19.17,7.51,124.21,124.21,0,0,0-19.7,12.11,118,118,0,0,0-17.57,16q-13.49,15.51-23.07,28.83a264,264,0,0,0-17,26.89,272.6,272.6,0,0,0-13.31,27.86q-5.86,14.3-11.54,31.25,8.16,18.42,20.05,27.62t32.83,9.21a70.34,70.34,0,0,0,9.23-.48,59.24,59.24,0,0,0,9.58-2.42,140.71,140.71,0,0,0,7.81-16.23q3.9-9.45,7.45-19.62t6.57-19.87q3-9.69,5.15-17,.71-2.42,1.77-5.81c.71-2.26,1.54-3.39,2.48-3.39s1.42,1.14,1.42,3.39-.77,6.3-2.31,12.11-3.55,12.36-6,19.63-5.21,14.78-8.16,22.53S2310.82,780.88,2308,787.66Zm-48.27-190.92a273.11,273.11,0,0,0,30.34-6.3,231,231,0,0,0,28.39-9.69,250.74,250.74,0,0,0,27.68-13.57q13.66-7.75,28.22-17.93a241.72,241.72,0,0,0,26.09-21.08,239.19,239.19,0,0,0,21.47-22.53,115.43,115.43,0,0,0,14.55-21.8q5.32-10.65,5.32-19.38a21,21,0,0,0-4.61-13.81q-4.62-5.56-13.13-5.57-7.45,0-19.34,6.06a236.65,236.65,0,0,0-24.49,14.54q-12.6,8.48-24.31,17.93t-19.17,15.75a336.42,336.42,0,0,0-42.24,45.79A613.33,613.33,0,0,0,2259.71,596.74Z" transform="translate(-16.41 -23.9)"/>
    <path d="M2451.72,714.5q-5,8.65-13.49,22.85t-18.1,28.1A205.21,205.21,0,0,1,2401,789.54q-9.58,10.19-16.33,10.19-7.1,0-11.36-6.79t-4.26-21q0-23.46,15.26-52.49T2425.1,654a23.37,23.37,0,0,1-6,2.16,31.41,31.41,0,0,1-4.61.31,11.53,11.53,0,0,1-6.39-2.47,28.26,28.26,0,0,1-6-5.56q-3.91,8-10.47,20.07T2380,689.18q-3.91,6.8-4.79,8c-.59.83-1.12,1.24-1.6,1.24-1.18,0-1.77-1-1.77-3.09a8.08,8.08,0,0,1,.53-2.16,31.4,31.4,0,0,1,2.31-4.63,98.6,98.6,0,0,0,5.32-9q3.54-6.48,7.45-13.9t7.45-14.82q3.54-7.41,5.68-11.73a83.45,83.45,0,0,1,3-22.54q3-10.8,9.05-10.81t6,13.59q0,8.66-7.45,21.62,4.61,4.33,9.23,4.32a27.26,27.26,0,0,0,9-1.85q5.14-1.85,11.89-4.94,2.48,3.7,2.48,5.56a9.89,9.89,0,0,1-1.6,4.63q-1.6,2.78-5.5,9-10.65,18.53-18.1,31.8t-12.6,23.78q-5.15,10.51-8.52,18.84t-6.21,17a179.23,179.23,0,0,0-5.15,17.6,60.7,60.7,0,0,0-2,12.66,14.13,14.13,0,0,0,1.24,5.87q1.24,2.78,3.73,2.78,7.8,0,20.23-17.6t31.94-49.1l4.79-8.34,6-10.5q3-5.24,5.32-9t3-3.71c1.42,0,2.13,1,2.13,3.09S2459.05,702.15,2451.72,714.5Z" transform="translate(-16.41 -23.9)"/>
    <path d="M2571.33,721.91q-23.42,40.15-41.7,60.21T2500.7,802.2a11.44,11.44,0,0,1-9.76-5.25q-3.73-5.24-3.73-14.51t3.19-24.08q-7.81,12.36-13.49,21a116.25,116.25,0,0,1-10.12,13.59,35.54,35.54,0,0,1-8.16,7.1,14.4,14.4,0,0,1-7.28,2.16q-8.87,0-14.55-9.57t-5.68-24.39q0-19.76,9-42a194.91,194.91,0,0,1,22.71-41.07A159.64,159.64,0,0,1,2492,654q15.44-12.35,28.22-12.35a13.41,13.41,0,0,1,9.58,3.71q3.9,3.71,3.9,10.5,0,1.24-.71,6.18l7.81-16.67,20.23-1.85-46.14,101.28q-6,14.21-9.94,24.7t-3.9,14.2q0,4.33,2,6.18a5.59,5.59,0,0,0,3.73,1.85q3.9,0,11-6.79a158.82,158.82,0,0,0,15.44-17.6q8.34-10.8,17.39-24.09T2567.78,717l12.42-19.76c.23-.41,1.06-1.75,2.48-4s2.36-3.4,2.84-3.4c.94,0,1.42,1,1.42,3.09s-1.06,4.74-3.19,8Zm-120,72.87q3.55,0,10.65-7.72A172.71,172.71,0,0,0,2477.45,767q8.33-12.35,17-27.48t15.79-29.64A282.1,282.1,0,0,0,2522,682.69q4.61-12.65,4.61-20.07a17.06,17.06,0,0,0-2.13-8.65q-2.13-3.7-5-3.71-7.1,0-16.33,10.5t-23.78,35.82q-10.65,18.53-17.39,32.73t-10.65,24.39A111.21,111.21,0,0,0,2446,771a60.46,60.46,0,0,0-1.42,10.81,20.88,20.88,0,0,0,2,8.65Q2448.53,794.79,2451.36,794.78Z" transform="translate(-16.41 -23.9)"/>
    <path d="M2668.57,702.77q-10.3,19.77-20.94,37.67a351.26,351.26,0,0,1-21.12,31.81,152.49,152.49,0,0,1-19.88,22.23q-9.41,8.34-17.21,8.34-10.29,0-16.86-11.73T2566,758.35a125.88,125.88,0,0,1,7.28-42.61,187.46,187.46,0,0,1,18.28-37.67,149.19,149.19,0,0,1,12.25-15.13,89.13,89.13,0,0,1,13.49-12,93,93,0,0,1,13.31-8,27.27,27.27,0,0,1,11.71-3.09q5.67,0,9.76,5.87t4.08,14.51a20.52,20.52,0,0,1-3,11.43q-3,4.63-6.92,4.63-6.39,0-6.39-9.26c0-2.88.41-4.94,1.24-6.18a13.12,13.12,0,0,1,2.84-3.09,17.93,17.93,0,0,1,2.84-1.85A2,2,0,0,0,2648,654q0-3.08-1.6-4.32a5.45,5.45,0,0,0-3.37-1.24c-2.13,0-4.85,1.14-8.16,3.4a58.92,58.92,0,0,0-10.65,9.88,154.67,154.67,0,0,0-11.53,15.13A177.31,177.31,0,0,0,2601.49,696a229.1,229.1,0,0,0-15.62,39.22q-6.39,21.31-6.39,38,0,19.15,9.23,19.15,7.45,0,18.1-10.19a208.5,208.5,0,0,0,21.65-24.7q11-14.5,21.12-30.88t16.15-28.72q3.54-8.64,5.68-8.65c1.42,0,2.13,1,2.13,3.09q0,1.25-2.13,5.25T2668.57,702.77Z" transform="translate(-16.41 -23.9)"/>
    <path d="M2858.8,702.15q-27,48.79-45.61,74.42t-29.28,25.63a13.59,13.59,0,0,1-11.36-5.56q-4.26-5.56-4.26-16.67a62.74,62.74,0,0,1,4.26-21.92q4.26-11.42,13.49-33l18.46-42q7.45-16.67,7.45-24.08a12.45,12.45,0,0,0-1.6-6.79c-1.06-1.64-2.31-2.47-3.73-2.47q-3.91,0-8.87,5.56A131.33,131.33,0,0,0,2786,671.27q-13.49,20.38-24,39.83t-17.21,34.28L2720,802.2h-18.46q1.77-4.31,6.39-14.51t10.47-23.47q5.85-13.27,12.24-27.48t12.07-26.56q5.67-12.35,9.76-21.62t5.5-12.35a48.76,48.76,0,0,0,3-8.34,31,31,0,0,0,1.24-7.72q0-8.64-5.32-8.65-1.78,0-5.5,2.16t-9.76,9.57a296.38,296.38,0,0,0-26.09,39.53q-11.18,20.38-19.52,39.22t-14.37,34.58q-6,15.75-10.65,25l-18.81-1.24L2699.09,696a226.34,226.34,0,0,0,9.94-25q3.19-10.19,3.19-14.51a12.93,12.93,0,0,0-1.24-5.25q-1.25-2.78-3.73-2.78-3.91,0-8.34,5.25a90.6,90.6,0,0,0-9.05,13.28q-6.75,11.74-13,22.23t-8,10.5c-.94,0-1.42-.82-1.42-2.47a12.17,12.17,0,0,1,2.84-7.41q3.19-3.71,7.81-12.35t10.29-17.6A114.67,114.67,0,0,1,2700,644.4q5.86-6.48,11.18-6.48,5.67,0,8.34,6.18a35.64,35.64,0,0,1,2.66,14.2,100.35,100.35,0,0,1-1.24,13,90.39,90.39,0,0,1-3,14.2q14.19-22.23,26.26-34.89T2763,637.92q5,0,8.52,4.94T2775,658.3a68.19,68.19,0,0,1-1.42,12.35,115.14,115.14,0,0,1-3.9,14.82q8.52-14.2,15.08-23.47a170.84,170.84,0,0,1,11.54-14.82,36.78,36.78,0,0,1,8.87-7.72,15,15,0,0,1,7.1-2.16,12.39,12.39,0,0,1,10.12,5.25q4.08,5.25,4.08,15.75a51.51,51.51,0,0,1-1.6,13q-1.6,6.18-7.28,19.76l-23.07,55.58q-7.81,19.15-9.76,26.25t-2,10.19q0,8,4.61,8,3.9,0,11.18-8a233.57,233.57,0,0,0,16.5-21q9.22-13,19.7-29.64t20.76-33.35a53.86,53.86,0,0,0,4.08-7.1q2.3-4.63,3-4.63c1.42,0,2.13,1,2.13,3.09q0,1.85-2.48,5.87C2860.7,699,2859.51,700.91,2858.8,702.15Z" transform="translate(-16.41 -23.9)"/>
    <path d="M2876.19,700.3q-24.13,46.32-28.39,67.32t1.77,25.32q6,4.33,14-6.48a164,164,0,0,0,13.49-21.31,127.08,127.08,0,0,0,9.05-22.23l-2.13-.62q-9.58-8.64-6.92-21.62t8.7-13.59a10.45,10.45,0,0,1,9.76,4q3.73,4.63,4.08,23.78,15.26-7.41,36.2-40.76l3-5.25a2.89,2.89,0,0,1,2.66-1.54c.71,0,1.06.83,1.06,2.47q.71,3.7-4.79,12.66a229.8,229.8,0,0,1-13.84,19.76q-8.34,10.81-25.38,21.31-12.43,38.3-26.44,50.64t-24.67,6.18q-10.65-6.17-11.53-30t12.78-55.27q13.67-31.5,36.73-72.26l21.65-3.71-12.78,25.94Zm13.49,19.76q.71-9.26-3.19-8.65-6,3.7-6.21,11.42t7.28,13.28A62.37,62.37,0,0,0,2889.68,720.06Z" transform="translate(-16.41 -23.9)"/>
    <path d="M3029.51,705.85q-27.33,48.17-49.87,72.26t-35,24.09q-10.29,0-17.57-12.66T2919.84,759a110,110,0,0,1,4.61-30.26q4.62-16.05,17-40.14A125.3,125.3,0,0,1,2956.22,666a112.33,112.33,0,0,1,15.26-15.44,79.71,79.71,0,0,1,13.31-9q6-3.08,8.87-3.09a11.67,11.67,0,0,1,9.76,4.94q3.73,4.95,3.73,13.59,0,24.09-19.88,48.79a122,122,0,0,1-8.7,10.19,86.51,86.51,0,0,1-10.12,9q-5.68,4.33-13,9t-17.92,10.81a114.37,114.37,0,0,0-4.08,12.35,48.75,48.75,0,0,0-1.24,11.73q0,9.88,3.37,16.37t9.76,6.48q5.67,0,14.55-6.18a126.23,126.23,0,0,0,19.52-17.6,279.56,279.56,0,0,0,22.18-27.48,421.08,421.08,0,0,0,22.89-35.82l5.68-9.88q2.84-4.94,4.61-4.94c.94,0,1.42.83,1.42,2.47a66.23,66.23,0,0,0-3.37,6.79A66.51,66.51,0,0,1,3029.51,705.85Zm-88.73,29q8.87-6.17,15.26-10.5a134.41,134.41,0,0,0,11.18-8.34,77,77,0,0,0,8.34-8,113,113,0,0,0,7.1-9,116.72,116.72,0,0,0,13-23.78q4.43-11.42,4.44-20.07,0-4.94-1.77-7.1a5.37,5.37,0,0,0-4.26-2.16q-5,0-11.36,7.1A122.4,122.4,0,0,0,2969,672.5a301,301,0,0,0-14.55,28.41Q2947.17,717,2940.78,734.88Z" transform="translate(-16.41 -23.9)"/>
    <path d="M3114.05,586.48l-3.29-15q16.25-17.39,21.18-27.85t4.93-19.86q0-5.17-4.64-15.74a39.72,39.72,0,0,1-3.67-15.74q0-9.63,4.64-15.63a14.31,14.31,0,0,1,11.8-6q7.54,0,12.57,6.93t5,18.21q0,19.74-10.54,41.24T3114.05,586.48Z" transform="translate(-16.41 -23.9)"/>
    <path d="M3205,586.48l-3.29-15q16.25-17.39,21.18-27.85t4.93-19.86q0-5.17-4.64-15.74a39.72,39.72,0,0,1-3.67-15.74q0-9.63,4.64-15.63a14.31,14.31,0,0,1,11.8-6q7.54,0,12.57,6.93t5,18.21q0,19.74-10.54,41.24T3205,586.48Z" transform="translate(-16.41 -23.9)"/>
  </g>
</svg>
