<?xml version="1.0" encoding="utf-8"?>
<!-- Generator: Adobe Illustrator 16.0.0, SVG Export Plug-In . SVG Version: 6.00 Build 0)  -->
<!DOCTYPE svg PUBLIC "-//W3C//DTD SVG 1.1//EN" "http://www.w3.org/Graphics/SVG/1.1/DTD/svg11.dtd">
<svg version="1.1" id="Layer_1" xmlns="http://www.w3.org/2000/svg" xmlns:xlink="http://www.w3.org/1999/xlink" x="0px" y="0px"
	 width="116.367px" height="40.798px" viewBox="0 0 116.367 40.798" enable-background="new 0 0 116.367 40.798"
	 xml:space="preserve">
<g>
	<path fill="#9C5B57" d="M69.375,40.74c0.176-0.106,0.238-0.332,0.149-0.513c0,0-0.215-0.438-0.593-1.203
		c-0.196-0.379-0.402-0.86-0.699-1.375c-0.308-0.511-0.655-1.086-1.035-1.715c-0.369-0.638-0.881-1.246-1.364-1.936
		c-0.477-0.697-1.076-1.35-1.655-2.061c-0.571-0.723-1.244-1.387-1.901-2.09c-0.661-0.701-1.392-1.347-2.093-2.028
		c-0.726-0.651-1.46-1.296-2.193-1.915c-0.753-0.594-1.465-1.222-2.212-1.749c-1.469-1.087-2.875-2.056-4.127-2.811
		c-1.249-0.762-2.313-1.355-3.083-1.733c-0.116-0.06-0.211-0.107-0.313-0.158c-1.636-0.953-3.336-1.835-5.086-2.641
		c-0.042-0.052-0.098-0.098-0.178-0.131c-0.153-0.064-0.278-0.136-0.408-0.205c1.911-0.41,3.375-2.207,3.547-4.229
		c0.246-2.877-1.969-5.168-4.291-6.469c-0.654-0.367-1.278,0.494-0.903,1.061c1.852,2.791-1.112,4.529-1.03,7.235
		c0.016,0.537,0.158,1.034,0.383,1.481c-2.986-1.223-6.048-2.281-9.066-3.205c1.278-0.954,1.912-2.637,1.858-4.244
		c-0.094-2.826-2.163-4.951-4.165-6.703c-0.501-0.437-1.461,0.131-1.127,0.785c1.136,2.229-0.539,4.539-0.25,6.871
		c0.126,1.012,0.577,1.879,1.234,2.564c-0.349-0.1-0.697-0.201-1.043-0.299c-2.642-0.744-5.353-1.414-8.098-1.976
		c1.514-3.053-0.174-7.126-2.58-9.179c-0.337-0.289-1.014-0.223-1.177,0.25c-0.722,2.086-1.512,4.441-0.618,6.605
		c0.274,0.664,0.724,1.271,1.277,1.74c-2.24-0.379-4.495-0.674-6.751-0.855c-0.386-1.41-1.895-2.307-3.321-2.346
		C4.499,5.511,2.337,6.602,0.797,7.835c-0.17,0.012-0.341,0.02-0.51,0.032c-0.358,0.028-0.396,0.605-0.028,0.642
		c0.04,0.004,0.08,0.006,0.119,0.012C0.436,8.655,0.57,8.743,0.744,8.659c0.054-0.027,0.109-0.053,0.163-0.08
		c0.049,0.068,0.108,0.133,0.188,0.182c1.747,1.066,3.743,2.729,5.926,2.531c1.177-0.106,2.305-0.771,2.7-1.848
		c2.144,0.236,4.28,0.502,6.41,0.822c-0.613,0.373-1.163,0.855-1.622,1.439c-1.229,1.57-0.973,4.184-2.527,5.432
		c-0.425,0.341-0.388,1.236,0.28,1.277c2.168,0.135,4.287-0.571,5.718-2.266c1.096-1.294,1.964-3.633,1.347-5.354
		c2.258,0.407,4.51,0.89,6.759,1.489c0.523,0.14,1.042,0.286,1.557,0.438c-0.596,0.352-1.075,0.973-1.338,1.67
		c-0.574,1.523-0.38,2.889-1.382,4.319c-0.652,0.931-1.329,1.735-1.802,2.776c-0.24,0.529,0.173,1.012,0.707,1.017
		c4.689,0.039,8.267-4.37,6.778-8.84c2.686,0.915,5.281,1.967,7.844,3.089c-0.608,0.246-1.158,0.708-1.546,1.261
		c-0.549,0.78-0.732,1.724-0.988,2.623c-0.437,1.534-1.051,2.874-2.024,4.148c-0.52,0.681,0.258,1.446,0.959,1.06
		c2.161-1.191,5.012-0.471,6.589-2.732c1.001-1.436,0.979-3.158,0.531-4.768c1.512,0.698,3.021,1.41,4.541,2.125
		c0.021,0.014,0.034,0.036,0.057,0.05l0.012,0.007c0,0.001,1.613,0.954,4.008,2.504c0.592,0.393,1.233,0.818,1.91,1.271
		c0.681,0.448,1.38,0.944,2.098,1.468c1.451,1.025,2.953,2.18,4.405,3.395c0.702,0.633,1.44,1.229,2.103,1.883
		c0.653,0.658,1.361,1.252,1.947,1.914c0.598,0.652,1.221,1.249,1.717,1.891c0.507,0.631,1.031,1.201,1.439,1.778
		c0.417,0.573,0.801,1.099,1.14,1.563c0.33,0.473,0.567,0.916,0.788,1.267c0.43,0.71,0.676,1.116,0.676,1.116l0.02,0.032
		C68.943,40.792,69.187,40.854,69.375,40.74z M25.549,20.31c0.063,0.145,0.17,0.271,0.306,0.363
		c-0.24,0.089-0.487,0.168-0.745,0.229C25.252,20.701,25.399,20.505,25.549,20.31z"/>
	<path fill="#9C5B57" d="M47.536,40.607l0.02-0.032c0,0,0.246-0.406,0.676-1.116c0.221-0.351,0.458-0.794,0.788-1.267
		c0.339-0.465,0.723-0.99,1.14-1.563c0.408-0.577,0.932-1.147,1.439-1.778c0.497-0.642,1.119-1.238,1.717-1.891
		c0.586-0.662,1.294-1.256,1.947-1.914c0.663-0.654,1.401-1.25,2.103-1.883c1.452-1.215,2.954-2.369,4.405-3.395
		c0.717-0.523,1.417-1.02,2.098-1.468c0.677-0.452,1.318-0.878,1.91-1.271c2.395-1.55,4.007-2.503,4.008-2.504l0.012-0.007
		c0.023-0.014,0.036-0.036,0.057-0.05c1.52-0.715,3.029-1.427,4.541-2.125c-0.448,1.609-0.47,3.332,0.531,4.768
		c1.577,2.262,4.428,1.541,6.589,2.732c0.701,0.387,1.479-0.379,0.959-1.06c-0.974-1.274-1.587-2.614-2.024-4.148
		c-0.255-0.899-0.438-1.843-0.988-2.623c-0.388-0.553-0.938-1.015-1.546-1.261c2.562-1.122,5.158-2.174,7.844-3.089
		c-1.489,4.47,2.088,8.879,6.778,8.84c0.534-0.005,0.947-0.487,0.707-1.017c-0.473-1.041-1.15-1.846-1.802-2.776
		c-1.002-1.431-0.808-2.796-1.382-4.319c-0.263-0.697-0.742-1.318-1.338-1.67c0.515-0.151,1.033-0.298,1.557-0.438
		c2.249-0.6,4.501-1.082,6.759-1.489c-0.617,1.722,0.251,4.061,1.347,5.354c1.432,1.694,3.55,2.4,5.718,2.266
		c0.667-0.041,0.705-0.937,0.28-1.277c-1.554-1.248-1.298-3.861-2.527-5.432c-0.459-0.584-1.009-1.066-1.622-1.439
		c2.13-0.32,4.267-0.586,6.41-0.822c0.395,1.076,1.522,1.741,2.7,1.848c2.183,0.197,4.179-1.465,5.926-2.531
		c0.081-0.049,0.14-0.113,0.188-0.182c0.054,0.027,0.109,0.053,0.163,0.08c0.174,0.084,0.308-0.004,0.366-0.139
		c0.039-0.006,0.079-0.008,0.119-0.012c0.368-0.036,0.33-0.613-0.028-0.642c-0.169-0.013-0.34-0.021-0.51-0.032
		c-1.54-1.233-3.702-2.324-5.666-2.268c-1.426,0.039-2.935,0.936-3.321,2.346c-2.256,0.182-4.511,0.477-6.751,0.855
		c0.553-0.469,1.002-1.076,1.277-1.74c0.894-2.164,0.104-4.52-0.618-6.605c-0.163-0.473-0.84-0.539-1.177-0.25
		c-2.406,2.053-4.093,6.126-2.58,9.179c-2.745,0.562-5.456,1.231-8.098,1.976c-0.346,0.098-0.694,0.199-1.043,0.299
		c0.658-0.686,1.108-1.553,1.234-2.564c0.289-2.332-1.386-4.642-0.25-6.871c0.334-0.654-0.626-1.222-1.127-0.785
		c-2.002,1.752-4.071,3.877-4.165,6.703c-0.054,1.607,0.58,3.29,1.858,4.244c-3.018,0.924-6.08,1.982-9.066,3.205
		c0.225-0.447,0.367-0.944,0.383-1.481c0.082-2.706-2.882-4.444-1.03-7.235c0.375-0.566-0.249-1.428-0.903-1.061
		c-2.322,1.301-4.537,3.592-4.291,6.469c0.172,2.021,1.636,3.818,3.547,4.229c-0.129,0.069-0.255,0.141-0.408,0.205
		c-0.08,0.033-0.135,0.079-0.178,0.131c-1.75,0.806-3.45,1.688-5.086,2.641c-0.102,0.051-0.197,0.099-0.313,0.158
		c-0.77,0.378-1.834,0.972-3.083,1.733c-1.252,0.755-2.658,1.724-4.127,2.811c-0.747,0.527-1.458,1.155-2.212,1.749
		c-0.733,0.619-1.468,1.264-2.193,1.915c-0.701,0.682-1.433,1.327-2.093,2.028c-0.657,0.703-1.33,1.367-1.901,2.09
		c-0.579,0.711-1.178,1.363-1.655,2.061c-0.482,0.689-0.995,1.298-1.364,1.936c-0.379,0.629-0.727,1.204-1.035,1.715
		c-0.297,0.515-0.503,0.996-0.699,1.375c-0.378,0.766-0.593,1.203-0.593,1.203c-0.089,0.181-0.027,0.406,0.149,0.513
		C47.181,40.854,47.424,40.792,47.536,40.607z M91.257,20.902c-0.258-0.062-0.505-0.141-0.745-0.229
		c0.136-0.092,0.243-0.219,0.306-0.363C90.968,20.505,91.115,20.701,91.257,20.902z"/>
</g>
</svg>
