<?xml version="1.0" encoding="utf-8"?>
<!-- Generator: Adobe Illustrator 16.0.0, SVG Export Plug-In . SVG Version: 6.00 Build 0)  -->
<!DOCTYPE svg PUBLIC "-//W3C//DTD SVG 1.1//EN" "http://www.w3.org/Graphics/SVG/1.1/DTD/svg11.dtd">
<svg version="1.1" id="Layer_1" xmlns="http://www.w3.org/2000/svg" xmlns:xlink="http://www.w3.org/1999/xlink" x="0px" y="0px"
	 width="500px" height="163px" viewBox="0 0 500 163" enable-background="new 0 0 500 163" xml:space="preserve">
<g>
	<g>
		<path fill="#FFFFFF" d="M1.1,153.601c0.29,0.54,0.8,1.33,1.51,2.369c0.7,1.03,1.54,2.07,2.49,3.11c0.96,1.03,1.96,1.95,3.01,2.74
			c1.05,0.78,2.07,1.18,3.05,1.18c0.14,0,0.42-0.04,0.84-0.109c0.42-0.08,0.89-0.24,1.43-0.48c10.33-4.35,21.68-12.91,34.06-25.69
			l-0.26,7c-0.07,2.091-0.11,3.841-0.11,5.211c0,0.5,0.06,1.029,0.19,1.6c0.12,0.56,0.25,1.13,0.4,1.7
			c0.15,0.569,0.31,1.069,0.48,1.52c0.17,0.44,0.3,0.76,0.4,0.96c0.29,0.54,0.77,1.271,1.43,2.181c0.66,0.92,1.42,1.829,2.28,2.739
			c0.85,0.91,1.78,1.7,2.79,2.37c1,0.67,1.99,1,2.97,1c0.15,0,0.41-0.04,0.81-0.109c0.39-0.08,0.83-0.24,1.32-0.48
			c3.67-1.58,7.82-4.07,12.44-7.479c4.62-3.4,9.39-7.561,14.31-12.471s9.81-10.5,14.68-16.77c4.87-6.26,9.41-13.04,13.62-20.32
			c4.21-7.27,7.9-15,11.08-23.16c3.18-8.17,5.53-16.6,7.05-25.279l-21.8-21.69c0.05,0.25,0.13,0.61,0.25,1.07
			c0.13,0.47,0.26,1.13,0.41,1.97s0.27,1.86,0.37,3.07c0.09,1.21,0.14,2.649,0.14,4.33c0,5.869-0.61,12.05-1.83,18.539
			c-1.23,6.49-2.95,13.051-5.18,19.69c-2.22,6.64-4.9,13.19-8.03,19.65c-3.14,6.47-6.59,12.569-10.35,18.319
			c-3.77,5.75-7.82,11.03-12.15,15.84c-4.33,4.811-8.82,8.87-13.47,12.181c-0.05-0.54-0.07-1.2-0.07-1.96v-2.63
			c0-3.061,0.09-6.12,0.29-9.181c0.19-3.06,0.42-5.85,0.66-8.359c0.29-2.91,0.64-5.73,1.03-8.44c1.37-1.979,2.63-3.85,3.78-5.63
			c1.15-1.77,2.14-3.56,2.97-5.36c0.83-1.8,1.47-3.689,1.91-5.67c0.44-1.97,0.66-4.14,0.66-6.51c0-0.99-0.12-1.76-0.37-2.33
			c-0.24-0.57-0.49-1-0.73-1.3c-0.49-0.64-1.29-1.54-2.39-2.7c-1.1-1.16-2.27-2.32-3.52-3.479c-1.25-1.16-2.47-2.16-3.67-3
			c-1.2-0.841-2.12-1.25-2.75-1.25c-1.42,0-2.7,1.09-3.82,3.29c-1.13,2.199-2.13,5.069-3.01,8.619c-0.88,3.561-1.65,7.57-2.31,12.03
			c-0.66,4.47-1.21,9-1.65,13.58c-4.7,6.57-9.96,12.58-15.78,18.03c-5.83,5.45-11.94,10.149-18.35,14.1
			c1.46-6.12,3.08-12.78,4.84-19.99c1.76-7.199,3.66-14.68,5.69-22.42c2.03-7.75,4.21-15.649,6.53-23.689
			c2.33-8.04,4.81-15.97,7.45-23.76c-1.08-1.53-2.07-2.891-2.97-4.07c-0.91-1.19-1.93-2.521-3.08-4c-1.15-1.48-2.32-2.95-3.49-4.41
			c-1.17-1.45-2.3-2.82-3.38-4.1c-1.07-1.29-1.98-2.32-2.71-3.11c-2.2,6.91-4.31,14-6.31,21.28c-2.01,7.279-3.89,14.45-5.66,21.5
			c-1.76,7.06-3.34,13.89-4.73,20.51c-1.39,6.61-2.61,12.729-3.63,18.35c-1.03,5.63-1.82,10.63-2.35,14.99
			c-0.54,4.37-0.81,7.84-0.81,10.4c0,0.989,0.12,1.859,0.37,2.63C0.61,152.621,0.86,153.201,1.1,153.601z"/>
		<path fill="#FFFFFF" d="M370.85,93.05c0.81,0.591,1.78,1.2,2.93,1.811c1.149,0.62,2.35,1.18,3.6,1.67s2.31,0.77,3.19,0.81
			c0.3,0,0.69-0.3,1.18-0.92s1-1.39,1.54-2.33c0.54-0.939,1.09-1.96,1.65-3.069c0.56-1.11,1.06-2.181,1.51-3.19
			c0.44-1.01,0.81-1.899,1.13-2.66c0.32-0.77,0.5-1.25,0.55-1.45c0-0.289-0.43-0.8-1.28-1.51c-0.86-0.72-1.89-1.45-3.08-2.189
			c-1.2-0.74-2.44-1.391-3.71-1.96c-1.27-0.561-2.35-0.851-3.23-0.851c-0.44,0-1.06,0.57-1.87,1.7c-0.81,1.14-1.61,2.48-2.39,4.04
			c-0.78,1.55-1.47,3.15-2.05,4.81c-0.59,1.65-0.88,3-0.88,4.03C369.64,92.041,370.04,92.46,370.85,93.05z"/>
		<path fill-rule="evenodd" clip-rule="evenodd" fill="#FFFFFF" d="M196.16,95.571c0.71-1.78,1.48-3.601,2.31-5.48
			c2.99-6.909,5.89-12.819,8.7-17.729s5.36-8.94,7.63-12.101c2.28-3.159,4.2-5.47,5.77-6.92c1.56-1.46,2.57-2.189,3.01-2.189
			c0.24,0,0.37,0.069,0.4,0.189c0.02,0.12,0.04,0.311,0.04,0.561c0,0.88-0.38,2.35-1.14,4.399c-0.76,2.051-1.95,4.61-3.56,7.7
			c-1.62,3.08-3.67,6.65-6.17,10.69c-2.49,4.05-5.45,8.49-8.88,13.33c-0.83,1.18-1.76,2.439-2.79,3.77
			c-0.88,1.141-1.94,2.49-3.19,4.07s-2.63,3.24-4.15,4.96C194.78,99.101,195.45,97.34,196.16,95.571z M278.41,124.55
			c1.07-2.25,2.2-4.239,3.37-5.96c1.18-1.729,2.35-3.12,3.53-4.189c1.17-1.05,2.25-1.59,3.23-1.59c0.53,0,0.94,0.18,1.21,0.52
			c0.26,0.351,0.4,0.74,0.4,1.19c0,1.529-0.42,3.06-1.25,4.59s-1.93,3.02-3.3,4.47c-1.37,1.46-2.93,2.851-4.66,4.19
			c-1.74,1.33-3.51,2.59-5.32,3.77C276.4,129.121,277.33,126.791,278.41,124.55z M464.03,124.55c1.08-2.25,2.21-4.239,3.38-5.96
			c1.17-1.729,2.35-3.12,3.52-4.189c1.18-1.05,2.25-1.59,3.23-1.59c0.54,0,0.94,0.18,1.21,0.52c0.27,0.351,0.41,0.74,0.41,1.19
			c0,1.529-0.42,3.06-1.25,4.59c-0.83,1.53-1.93,3.02-3.3,4.47c-1.37,1.46-2.93,2.851-4.66,4.19c-1.74,1.33-3.52,2.59-5.33,3.77
			C462.03,129.121,462.96,126.791,464.03,124.55z M496.4,127.691c-2.4,2.27-4.82,4.52-7.26,6.74c-2.45,2.22-4.99,4.189-7.64,5.92
			c-2.64,1.729-5.39,3.13-8.25,4.22c-2.87,1.08-5.91,1.63-9.14,1.63c-1.81,0-3.05-0.27-3.71-0.82c-0.66-0.54-0.99-1.58-0.99-3.109
			c0-1.13,0.07-2.29,0.22-3.471c4.31-1.93,8.24-3.84,11.82-5.739c3.57-1.9,6.63-3.761,9.17-5.591c2.55-1.829,4.52-3.609,5.91-5.369
			c1.399-1.75,2.09-3.46,2.09-5.141c0-1.04-0.38-2.26-1.13-3.66c-0.76-1.409-1.75-2.76-2.98-4.04c-1.22-1.279-2.58-2.369-4.07-3.26
			c-1.49-0.89-3-1.33-4.52-1.33c-2.1,0-4.4,0.351-6.89,1.04c-2.5,0.69-5.01,1.721-7.53,3.11c-2.52,1.38-4.94,3.11-7.27,5.18
			c-2.32,2.07-4.39,4.46-6.2,7.181c-1.811,2.71-3.26,5.76-4.36,9.14c-0.31,0.93-0.56,1.88-0.78,2.86l-0.03,0.029
			c-1.4,1.21-2.85,2.431-4.37,3.66c-1.521,1.23-2.97,2.37-4.37,3.41c-1.39,1.03-2.63,1.87-3.7,2.51c-1.08,0.641-1.89,0.96-2.43,0.96
			c-0.29,0-0.44-0.14-0.44-0.439c0-0.54,0.17-1.41,0.52-2.591c0.34-1.18,0.78-2.569,1.32-4.149c0.54-1.57,1.15-3.26,1.83-5.07
			l2.061-5.399c0.68-1.801,1.33-3.54,1.939-5.221c0.62-1.68,1.12-3.13,1.51-4.359c0.1-0.351,0.17-0.63,0.22-0.86
			c0.05-0.22,0.07-0.4,0.07-0.55c0-0.74-0.47-1.61-1.43-2.59c-0.95-0.99-2.08-1.95-3.37-2.891c-1.3-0.939-2.59-1.729-3.86-2.37
			c-1.27-0.64-2.23-0.96-2.86-0.96c-0.54,0-1.29,0.24-2.24,0.7c-0.95,0.47-2.2,1.351-3.74,2.63c-1.54,1.28-3.43,3.051-5.65,5.29
			c-2.23,2.25-4.89,5.15-7.97,8.7c0.59-1.729,1.18-3.4,1.76-5.03c0.59-1.63,1.18-3.229,1.76-4.81c-2.15-1.93-4.49-3.6-7.01-5.04
			c-2.52-1.43-4.8-2.64-6.86-3.63c-1.27,2.87-2.46,5.84-3.56,8.93c-1.1,3.08-2.11,6.101-3.04,9.061c-0.73,2.319-1.4,4.55-2.01,6.699
			l-0.12,0.11l-3.78,3.3c-1.4,1.21-2.85,2.431-4.37,3.66c-1.52,1.23-2.97,2.37-4.37,3.41c-1.39,1.03-2.63,1.87-3.7,2.51
			c-1.08,0.641-1.89,0.96-2.43,0.96c-0.29,0-0.44-0.14-0.44-0.439c0-0.54,0.17-1.41,0.52-2.591c0.34-1.18,0.78-2.569,1.32-4.149
			c0.54-1.57,1.15-3.26,1.83-5.07l2.06-5.399c0.68-1.801,1.33-3.54,1.94-5.221c0.61-1.68,1.12-3.13,1.51-4.359
			c0.09-0.351,0.17-0.63,0.22-0.86c0.05-0.22,0.07-0.4,0.07-0.55c0-0.74-0.51-1.62-1.54-2.63c-1.03-1.011-2.19-1.971-3.49-2.891
			c-1.29-0.909-2.53-1.689-3.7-2.33c-1.18-0.64-1.91-0.96-2.2-0.96c-0.2,0-0.62,0.67-1.25,2c-0.64,1.33-1.39,3.08-2.24,5.25
			c-0.86,2.181-1.811,4.66-2.86,7.44c-0.84,2.229-1.65,4.51-2.42,6.82l-0.12-0.12c-0.58,0.5-1.44,1.24-2.57,2.22
			c-1.12,0.99-2.38,2.09-3.77,3.3c-1.4,1.21-2.86,2.431-4.37,3.66c-1.52,1.23-2.97,2.37-4.37,3.41c-1.39,1.03-2.63,1.87-3.71,2.51
			c-1.07,0.641-1.88,0.96-2.42,0.96c-0.29,0-0.44-0.14-0.44-0.439c0-0.841,0.31-2.221,0.92-4.141c0.61-1.93,1.36-4.08,2.24-6.439
			c0.88-2.37,1.8-4.79,2.75-7.261c0.95-2.47,1.75-4.659,2.38-6.59c0.15-0.439,0.14-0.96-0.03-1.55c-0.17-0.59-0.58-1.09-1.21-1.479
			c-1.76-1.33-3.62-2.641-5.58-3.92c-1.67-1.141-3.5-2.341-5.51-3.591c-2-1.26-3.96-2.39-5.87-3.37c-0.05-1.14-0.1-2.1-0.14-2.89
			c-0.05-0.79-0.1-1.31-0.149-1.55c-0.15-0.3-0.49-0.65-1.03-1.04s-1.13-0.75-1.76-1.07c-0.64-0.319-1.24-0.609-1.8-0.85
			c-0.56-0.25-0.89-0.37-0.99-0.37c-0.15,0-0.48,0.3-0.99,0.92s-1.12,1.42-1.8,2.41c-0.68,0.979-1.39,2.08-2.13,3.29
			c-0.73,1.21-1.42,2.39-2.05,3.55c-0.64,1.16-1.17,2.25-1.58,3.26c-0.42,1.011-0.62,1.79-0.62,2.33c0,0.5,0.14,0.82,0.439,0.96
			c0.63,0.5,1.36,1.04,2.2,1.63c0.68,0.551,1.51,1.15,2.49,1.82c0.98,0.66,2.08,1.37,3.31,2.11c-1.72,1.77-3.47,3.54-5.25,5.29
			l-3.1,3.02l-0.09-0.1c-2.4,2.27-4.83,4.52-7.271,6.74c-2.45,2.22-4.99,4.189-7.63,5.92c-2.65,1.729-5.4,3.13-8.26,4.22
			c-2.87,1.08-5.91,1.63-9.14,1.63c-1.81,0-3.05-0.27-3.71-0.82c-0.66-0.54-0.99-1.58-0.99-3.109c0-1.13,0.07-2.29,0.22-3.471
			c4.31-1.93,8.25-3.84,11.82-5.739c3.57-1.9,6.63-3.761,9.17-5.591c2.55-1.829,4.52-3.609,5.91-5.369
			c1.4-1.75,2.09-3.46,2.09-5.141c0-1.04-0.38-2.26-1.13-3.66c-0.76-1.409-1.75-2.76-2.98-4.04c-1.22-1.279-2.58-2.369-4.07-3.26
			c-1.49-0.89-3-1.33-4.51-1.33c-2.11,0-4.41,0.351-6.9,1.04c-2.5,0.69-5.01,1.721-7.53,3.11c-2.52,1.38-4.94,3.11-7.26,5.18
			c-2.33,2.07-4.4,4.46-6.21,7.181c-1.81,2.71-3.26,5.76-4.36,9.14c-0.29,0.89-0.54,1.8-0.75,2.729c-0.45,0.29-0.89,0.57-1.34,0.82
			c-1.38,0.771-2.82,1.35-4.34,1.74c-1.51,0.399-3.25,0.59-5.21,0.59c-0.44,0-0.82-0.03-1.13-0.11c-0.32-0.069-0.63-0.159-0.92-0.26
			c1.42-1.77,2.73-3.54,3.93-5.29c1.189-1.75,2.22-3.43,3.08-5.03c0.85-1.6,1.53-3.1,2.02-4.479c0.49-1.38,0.73-2.59,0.73-3.63
			c-0.1-0.54-0.48-1.22-1.14-2.03c-0.66-0.82-1.5-1.65-2.53-2.52c-1.03-0.86-2.15-1.681-3.38-2.44c-1.22-0.77-2.4-1.37-3.52-1.81
			c-0.54,0.489-1.14,1.25-1.8,2.29c-0.66,1.04-1.34,2.239-2.05,3.63c-0.71,1.38-1.4,2.87-2.06,4.47c-0.66,1.61-1.26,3.2-1.8,4.78
			c-0.53,1.58-0.96,3.1-1.28,4.55c-0.32,1.46-0.48,2.7-0.48,3.74c0,1.529,0.44,3.06,1.32,4.59c-1.02,1.229-2.09,2.399-3.19,3.51
			c-1.1,1.12-2.19,2.08-3.271,2.89c-1.07,0.82-2.09,1.471-3.04,1.96c-0.96,0.5-1.82,0.74-2.61,0.74c-0.39,0-0.67-0.16-0.84-0.479
			c-0.17-0.32-0.26-0.681-0.26-1.07c0-0.59,0.12-1.57,0.37-2.92c0.24-1.36,0.59-2.93,1.03-4.71c0.44-1.771,0.95-3.7,1.54-5.771
			c0.58-2.069,1.22-4.14,1.91-6.22c0.68-2.07,1.39-4.07,2.12-5.99c0.74-1.93,1.47-3.63,2.21-5.109c-2.06-1.87-4.27-3.5-6.65-4.88
			c-2.37-1.391-4.8-2.65-7.3-3.78c-1.03,2.86-2.12,5.84-3.27,8.92s-2.2,6.229-3.15,9.44c-0.6,2.01-1.13,4.039-1.6,6.079l-0.86,0.73
			c-1.23,1.03-2.61,2.17-4.15,3.4c-1.54,1.239-3.19,2.489-4.95,3.779c-1.76,1.28-3.45,2.45-5.07,3.511
			c-1.61,1.06-3.09,1.939-4.44,2.63c-1.34,0.689-2.41,1.04-3.19,1.04c-0.44,0-0.78-0.23-1.03-0.67c-0.24-0.44-0.37-1.431-0.37-2.961
			c0-2.319,0.29-5.55,0.85-9.699c0.561-4.141,1.55-8.931,2.97-14.36c2.84-2.66,5.6-5.45,8.3-8.36c2.69-2.909,5.06-5.6,7.12-8.069
			c2.39-2.86,4.67-5.67,6.82-8.44c4.6-5.92,8.33-11.1,11.2-15.54c2.86-4.439,5.1-8.26,6.71-11.439c1.62-3.181,2.72-5.811,3.3-7.88
			c0.59-2.07,0.88-3.7,0.88-4.891c0-0.59-0.06-1.07-0.18-1.439c-0.12-0.37-0.38-0.75-0.77-1.15c-0.29-0.34-0.76-0.87-1.39-1.59
			c-0.64-0.71-1.38-1.44-2.21-2.18c-0.83-0.74-1.72-1.44-2.67-2.11c-0.96-0.67-1.9-1.17-2.83-1.521c-0.59,0-1.649,0.351-3.189,1.04
			c-1.54,0.69-3.43,1.82-5.66,3.4c-2.22,1.58-4.73,3.65-7.52,6.22c-2.79,2.57-5.7,5.74-8.73,9.51c-3.04,3.78-6.13,8.211-9.29,13.29
			c-3.15,5.08-6.23,10.9-9.21,17.471c-1.47,3.2-2.88,6.89-4.22,11.06c-1.35,4.17-2.53,8.37-3.56,12.59
			c-1.03,4.221-1.85,8.21-2.46,11.99l-0.1,0.63c-1.75,1.58-3.45,2.8-5.11,3.66c-2.52,1.31-5.25,2.06-8.19,2.26
			c1.28-2.069,2.29-4.17,3.05-6.29c0.76-2.13,1.14-4.25,1.14-6.37c-0.15-0.34-0.53-0.96-1.14-1.85c-0.61-0.89-1.32-1.86-2.13-2.92
			c-0.8-1.06-1.61-2.1-2.42-3.11c-0.81-1.01-1.46-1.819-1.94-2.41l-0.45,0.45c-1.17,1.13-2.25,2.351-3.22,3.66
			c-0.98,1.311-1.82,2.53-2.5,3.66c-0.83,1.29-1.54,2.59-2.13,3.93c-0.88,1.721-1.43,3.271-1.65,4.62
			c-0.22,1.36-0.33,2.53-0.33,3.521c0,0.35,0.01,0.729,0.04,1.149c0.02,0.42,0.08,0.9,0.18,1.44c-2.01,2.76-3.94,5.05-5.8,6.85
			c-1.86,1.8-3.35,2.7-4.48,2.7c-1.07,0-1.61-0.74-1.61-2.22c0-1.78,0.46-4.28,1.39-7.511c0.93-3.239,2.72-6.85,5.36-10.85
			c1.76-2.71,3.38-4.9,4.85-6.55c1.46-1.65,2.74-2.92,3.81-3.811c1.08-0.89,1.93-1.52,2.57-1.89c0.64-0.37,1-0.68,1.1-0.93
			c0-0.19-0.22-0.601-0.66-1.221c-0.44-0.609-0.99-1.239-1.65-1.88c-0.66-0.64-1.37-1.229-2.13-1.739
			c-0.76-0.521-1.48-0.78-2.16-0.78c-0.25,0-0.55,0.02-0.92,0.07c-0.37,0.05-0.62,0.13-0.77,0.22c-4.55,1.29-8.48,3.16-11.78,5.63
			c-3.31,2.47-6.02,5.32-8.15,8.55c-2.13,3.23-3.69,6.7-4.7,10.4c-1,3.7-1.5,7.43-1.5,11.18c0,1.13,0.41,2.44,1.25,3.92
			c0.83,1.48,1.88,2.88,3.15,4.18c1.27,1.311,2.69,2.41,4.26,3.301c1.56,0.89,3.08,1.33,4.55,1.33c1.76,0,3.62-0.301,5.58-0.891
			s3.93-1.43,5.91-2.52c1.98-1.08,3.92-2.36,5.83-3.84c1.91-1.49,3.7-3.11,5.36-4.891c2.15,0,4.26-0.18,6.31-0.55
			c2.06-0.38,4.08-0.979,6.06-1.82c1.66-0.699,3.33-1.63,5-2.75c-0.03,0.57-0.05,1.12-0.05,1.641v1.37c0,0.42,0.05,0.779,0.15,1.069
			c0.15,0.74,0.73,1.851,1.76,3.33c1.03,1.48,2.28,2.95,3.74,4.41c1.47,1.45,3.05,2.72,4.74,3.81c1.69,1.091,3.29,1.631,4.81,1.631
			c1.12,0,2.52-0.4,4.18-1.181c1.66-0.8,3.46-1.83,5.4-3.109c1.93-1.29,3.91-2.74,5.94-4.37c2.03-1.63,3.99-3.26,5.87-4.891
			c0.91-0.779,1.79-1.56,2.64-2.33c-0.17,1.671-0.25,3.33-0.25,5c0,1.33,0.5,2.65,1.5,3.961c1.01,1.31,2.18,2.47,3.53,3.479
			c1.34,1.01,2.71,1.83,4.11,2.48c1.39,0.64,2.46,0.96,3.19,0.96c1.47-0.101,3.03-0.49,4.7-1.181c1.66-0.7,3.351-1.62,5.061-2.779
			c1.71-1.16,3.45-2.49,5.21-4c1.76-1.5,3.45-3.12,5.07-4.851c1.51,0.7,3.3,1.04,5.36,1.04c2,0,3.91-0.2,5.72-0.59
			c1.79-0.39,3.57-1.021,5.34-1.87c-0.03,0.69-0.05,1.38-0.05,2.09c0,1.09,0.46,2.391,1.39,3.92c0.93,1.53,2.09,3,3.49,4.41
			c1.39,1.4,2.9,2.601,4.51,3.59c1.62,0.98,3.08,1.48,4.41,1.48c3.13,0,6.34-0.4,9.65-1.19c3.3-0.79,6.76-2.09,10.38-3.92
			c3.62-1.83,7.43-4.24,11.42-7.25c3.53-2.67,7.26-5.899,11.2-9.689l0.06,0.06c0.79-0.74,1.67-1.55,2.65-2.439
			c0.97-0.891,1.95-1.801,2.93-2.74c0.98-0.94,1.95-1.87,2.9-2.811c0.96-0.939,1.82-1.83,2.61-2.67l1.61,0.891
			c0.54,0.3,1.1,0.569,1.69,0.819l-1.1,2.44c-0.49,1.09-1.05,2.51-1.69,4.26s-1.32,3.86-2.05,6.32c-0.74,2.47-1.47,5.359-2.21,8.67
			c0,0.88,0.37,1.8,1.1,2.729c0.74,0.94,1.62,1.79,2.65,2.561c1.02,0.76,2.1,1.399,3.229,1.92c1.12,0.52,2.05,0.78,2.79,0.78
			c1.12,0,2.51-0.4,4.18-1.181c1.66-0.8,3.46-1.83,5.39-3.109c1.94-1.29,3.92-2.74,5.95-4.37c2.03-1.63,3.99-3.26,5.87-4.891
			c1.07-0.92,2.09-1.83,3.07-2.729l-0.24,0.81c-0.83,2.811-1.5,5.301-1.98,7.48c0,0.88,0.36,1.8,1.1,2.729
			c0.73,0.94,1.61,1.79,2.64,2.561c1.03,0.76,2.1,1.399,3.229,1.92c1.13,0.52,2.05,0.78,2.79,0.78c1.17,0,2.59-0.4,4.26-1.181
			c1.66-0.8,3.44-1.83,5.35-3.109c1.91-1.29,3.88-2.74,5.91-4.37c2.03-1.63,3.99-3.26,5.87-4.891l1.15-1
			c-0.46,1.96-0.82,3.61-1.07,4.931c-0.27,1.38-0.41,2.22-0.41,2.51c0.88,0.94,1.88,1.88,2.98,2.82c1.1,0.93,2.2,1.779,3.3,2.55
			c1.1,0.76,2.18,1.38,3.23,1.85c1.05,0.471,1.99,0.7,2.83,0.7c0.68,0,1.14-0.19,1.39-0.59c0.24-0.39,0.51-0.94,0.81-1.63
			c2.35-5.57,4.74-10.4,7.19-14.471c2.45-4.069,4.77-7.55,6.97-10.43c2.21-2.89,4.17-5.26,5.91-7.109c1.74-1.851,3.07-3.341,4-4.48
			l0.15-0.15c-0.88,2.221-1.8,4.65-2.75,7.29c-0.96,2.641-1.87,5.311-2.76,8c-0.88,2.69-1.7,5.32-2.45,7.88
			c-0.76,2.57-1.36,4.86-1.8,6.891c0,0.88,0.36,1.8,1.1,2.729c0.73,0.94,1.62,1.79,2.68,2.561c1.05,0.76,2.14,1.399,3.26,1.92
			c1.13,0.52,2.06,0.78,2.79,0.78c1.13,0,2.52-0.4,4.19-1.181c1.66-0.8,3.45-1.83,5.35-3.109c1.91-1.29,3.88-2.74,5.91-4.37
			c1.61-1.29,3.16-2.58,4.67-3.87l-0.01,0.39c0,1.09,0.47,2.391,1.4,3.92c0.93,1.53,2.09,3,3.49,4.41c1.39,1.4,2.89,2.601,4.51,3.59
			c1.61,0.98,3.08,1.48,4.4,1.48c3.13,0,6.35-0.4,9.66-1.19c3.3-0.79,6.76-2.09,10.38-3.92c3.62-1.83,7.43-4.24,11.42-7.25
			c3.98-3.01,8.23-6.74,12.73-11.18L496.4,127.691z"/>
	</g>
	<g>
		<path fill-rule="evenodd" clip-rule="evenodd" fill="#9A5A58" d="M409.61,50.111c-0.58-0.311-1.13-0.66-1.65-1.03
			c0.38-0.14,0.72-0.38,0.96-0.7C409.16,48.96,409.39,49.531,409.61,50.111z M292.74,70.531l0.07-0.07l2.29-2.29
			c0.75-0.72,1.58-1.649,2.66-2.6l3.68-3.09c1.33-1.15,2.93-2.2,4.53-3.431c1.58-1.25,3.44-2.3,5.271-3.52
			c1.8-1.24,3.86-2.24,5.83-3.44c1.99-1.17,4.12-2.159,6.19-3.26c4.21-2.04,8.521-3.91,12.62-5.49c2.04-0.819,4.02-1.59,5.92-2.25
			l5.36-1.89c6.68-2.27,11.13-3.57,11.13-3.57l0.04-0.02c0.06-0.01,0.11-0.061,0.16-0.08c4.08-0.78,8.14-1.57,12.189-2.311
			c-2.05,3.641-3.14,7.83-1.61,11.961c2.42,6.51,9.7,6.55,14.17,10.819c1.45,1.391,3.78,0.01,2.939-1.97
			c-1.56-3.73-2.229-7.38-2.35-11.4c-0.07-2.35,0.06-4.77-0.78-7.02c-0.6-1.59-1.64-3.061-2.96-4.05c6.83-1.12,13.7-2.04,20.7-2.57
			c-6.27,9.95-0.35,22.97,10.93,25.83c1.29,0.33,2.57-0.59,2.311-2.03c-0.5-2.83-1.64-5.229-2.65-7.91
			c-1.54-4.12-0.25-7.33-0.7-11.399c-0.21-1.87-0.99-3.69-2.21-4.92c1.33-0.04,2.66-0.07,4.01-0.08c5.76-0.04,11.46,0.2,17.12,0.64
			c-2.52,3.811-1.85,10.061,0,13.91c2.41,5.03,7.07,8.09,12.36,9.13c1.63,0.33,2.26-1.83,1.44-2.93
			c-2.97-4.03-0.78-10.24-2.78-14.84c-0.75-1.721-1.78-3.24-3.02-4.54c5.3,0.569,10.59,1.27,15.88,2.05c0.3,2.87,2.6,5.2,5.37,6.21
			c5.12,1.859,10.91-0.93,15.75-2.43c0.23-0.07,0.41-0.19,0.56-0.32l0.35,0.29c0.36,0.319,0.74,0.189,0.96-0.101l0.29,0.04
			c0.91,0.15,1.17-1.279,0.33-1.58c-0.4-0.13-0.81-0.26-1.21-0.399c-2.95-3.98-7.48-8.01-12.23-9.11c-3.45-0.8-7.61,0.431-9.39,3.62
			c-5.53-0.979-11.12-1.689-16.729-2.18c1.61-0.79,3.06-1.99,4.12-3.44c3.45-4.71,2.98-10.95,2.51-16.49
			c-0.11-1.26-1.69-1.84-2.68-1.359c-7.01,3.49-13.53,12.35-11.74,20.76c-6.93-0.37-13.84-0.45-20.63-0.3l-2.69,0.07
			c2-1.261,3.6-3.091,4.52-5.48c2.1-5.5-0.52-12.19,3.55-16.91c1.2-1.39-0.771-3.37-2.23-2.63c-5.87,3.01-12.12,6.89-14.05,13.72
			c-1.1,3.88-0.6,8.391,1.89,11.521c-7.8,0.34-15.79,0.99-23.7,2.08c0.81-0.95,1.45-2.07,1.81-3.37c1.84-6.54-4.23-12.66,1.9-18.29
			c1.25-1.14,0.27-3.64-1.52-3.16c-6.36,1.71-13.07,5.89-14.21,13.07c-0.81,5.029,1.62,10.34,5.96,12.55
			c-0.36,0.08-0.7,0.18-1.11,0.24c-0.21,0.029-0.37,0.109-0.5,0.199c-4.69,0.86-9.31,1.94-13.81,3.23l-0.85,0.19
			c-2.07,0.43-4.99,1.21-8.45,2.279c-3.46,1.04-7.42,2.521-11.6,4.24c-2.11,0.81-4.2,1.89-6.37,2.87c-2.13,1.04-4.29,2.15-6.42,3.28
			c-2.1,1.22-4.24,2.33-6.25,3.62c-2.01,1.3-4.02,2.5-5.83,3.899c-1.82,1.37-3.65,2.58-5.22,3.98c-1.57,1.37-3.17,2.529-4.439,3.85
			l-3.521,3.53c-1.03,1.069-1.81,2.109-2.51,2.91l-2.15,2.56c-0.33,0.39-0.31,0.97,0.04,1.35
			C291.74,70.901,292.36,70.911,292.74,70.531z"/>
	</g>
</g>
</svg>
