<?xml version="1.0" encoding="utf-8"?>
<!-- Generator: Adobe Illustrator 16.0.0, SVG Export Plug-In . SVG Version: 6.00 Build 0)  -->
<!DOCTYPE svg PUBLIC "-//W3C//DTD SVG 1.1//EN" "http://www.w3.org/Graphics/SVG/1.1/DTD/svg11.dtd">
<svg version="1.1" id="Layer_1" xmlns="http://www.w3.org/2000/svg" xmlns:xlink="http://www.w3.org/1999/xlink" x="0px" y="0px"
	 width="299.998px" height="290.002px" viewBox="0 0 299.998 290.002" enable-background="new 0 0 299.998 290.002"
	 xml:space="preserve">
<g>
	<path fill-rule="evenodd" clip-rule="evenodd" fill="#333333" d="M69.112,215.961c-1.21-7.609-3.5-15-5.15-22.59
		c-0.98-0.82-2.53-1.71-4.45-2.5c-2.05-0.85-4.6-1.61-7.37-2.29c-2.76-0.7-5.72-1.29-8.78-1.979c-1.55-0.42-2.93-0.62-4.78-1.41
		c-1.52-0.82-2.69-1.71-3.94-2.63c-1.65-1.341-3.06-2.851-4.18-4.301c2.16,4.631,4.96,9,8.22,13.11c5.82,7.32,11,14.64,12.45,24
		c-0.23,0.92,0.07,1.71,0.64,2.4c0.34,1.939,0.64,3.87,1.01,5.81c2.22,11.2,3.98,22.5,3.2,33.96c-0.37,5.65-1.41,11.07-8.35,13.271
		c-3.57,1.109-6.26,4.069-8.21,7.319c-1.72,2.86-1.04,4.471,2.39,4.801c5.08,0.52,10.2,0.659,15.25-0.23
		c1.21-0.2,2.45-0.4,3.26-1.38c5.49-6.41,10.71-13.271,10.98-21.811C71.732,244.961,71.502,230.411,69.112,215.961z
		 M297.842,188.381c-3.5-0.859-7.14-1.38-10.6-2.34c-15.02-4.2-30.63-7.02-43.53-16.609c-1.81-1.681-3.63-3.32-5.48-4.99
		c-1.52-2.57-3.5-4.83-4.99-7.46c-2.12-3.681-4.54-7.29-8.11-9.92c0.04-0.49-0.2-0.561-0.6-0.42c-3.78-5.03-8.18-9.46-13.81-12.421
		c-9.12-4.76-18.44-9.13-28.44-11.89c-17.07-4.76-34.77-6.56-52.04-10.54c-9.16-2.1-18.95-2.99-27-7.52
		c-12.85-7.19-22.82-17.7-28.61-31.49c-1.25-2.96-0.23-3.521,2.49-2.96c4.07,0.82,8.01,0.59,11.72-1.38
		c1.91-0.98,3.29-2.431,3.16-4.63c-0.14-2.23-2.06-2.761-3.87-3.38c-6.2-2.2-12.32-4.471-17.61-8.44
		c-7.81-5.91-13.8-13.11-17.17-22.23c-1.68-4.54-4.87-7.659-9.52-8.869c-8.65-2.271-11.45-9.53-14.95-16.16
		c-1.17-2.17-2.15-4.4-4.84-4.7c-2.7-0.29-4.42,1.479-5.86,3.479c-3.5,4.96-6.03,10.25-6.13,16.36c-0.03,3.15-1.38,3.54-4.21,3.05
		c-2.55-0.42-5.48-1.02-7.03,2.11c-0.81,0.29-0.84,0.91-0.71,1.6c-0.67,4.08,2.09,6.74,4.48,9.23c6.03,6.439,4.64,14.03,3.06,21.12
		c-1.07,4.83-1.78,9.33-0.94,14.22c1.82,10.35,3.37,20.69,2.76,31.23c-0.5,9.359-0.07,18.689,3.7,27.46
		c3.37,7.81,7.17,15.46,10.84,23.18c0.51,1.06,1.01,2.04,1.05,3.29c0.2,5.32,1.11,10.41,2.69,15.2c0.81,0.989,1.88,2.239,3.23,3.58
		c1.55,1.609,3.47,3.319,5.69,4.93c1.07,0.79,2.35,1.58,3.47,2.229c0.94,0.431,2.62,0.86,4.04,1.221c2.96,0.75,5.99,1.569,8.78,2.56
		c2.8,0.95,5.32,2.101,7.37,3.351c2.02,1.25,3.5,2.659,4.31,3.779c0.77,1.11,1.01,1.83,1.01,1.83c1.52,2.141,2.46,4.601,3.8,6.8
		c-0.13,0.69,0.17,1.181,0.68,1.61c0.74,2.79,1.58,5.55,2.19,8.34c2.12,10.09,2.18,20.33,2.72,30.55
		c0.14,2.75,0.27,5.511,0.47,8.271c0.95,11.5-1.17,22.14-8.75,31.46c-3.4,4.17-2.05,6.74,3.24,7.39c2.82,0.33,5.62,0.66,8.44,0.5
		c6.84-0.43,8.82-2.3,9.09-8.899c0.41-9.86,0.24-19.71,1.82-29.5c1.45-8.931,3.57-17.761,4.58-26.801
		c0.94-8.6,2.22-17.17,3.26-25.779c0.31-2.49,1.05-3.311,3.27-2.92c0,0,0.04,0,0.07,0.04c0.1,0,0.23,0,0.4,0.029l2.76,0.49
		c2.05,0.39,5.01,0.82,8.52,1.38c1.78,0.23,3.66,0.49,5.69,0.79c2.02,0.29,4.17,0.391,6.36,0.69c2.19,0.29,4.47,0.26,6.79,0.489
		c2.3,0.23,4.65,0.07,6.97,0.131c2.29,0.1,4.75-0.061,7.08-0.101c2.32-0.09,4.64-0.16,6.86-0.229c4.48-0.13,8.68-0.16,12.32,0.14
		c3.63,0.22,6.7,1.11,8.59,2.16c0.9,0.53,1.58,1.09,1.91,1.479c0.3,0.33,0.51,0.53,0.57,0.591c-0.09-0.061-0.33-0.2-0.67-0.46
		c-0.44-0.33-1.18-0.66-2.12-1.021c-1.88-0.75-4.81-1.01-8.31-0.85c-3.54,0.1-7.64,0.489-12.12,0.85c-2.22,0.17-4.55,0.4-6.9,0.5
		c-0.84,0.03-1.72,0.1-2.56,0.13c0.07,0.101,0.07,0.19,0.1,0.29c0.71,3.22,2.9,5.59,4.98,7.98c6.23,7.1,11.65,14.75,16.93,22.529
		c4.11,6.051,5.12,12.65,2.97,19.58c-1.28,4-2.97,7.88-4.21,11.88c-0.91,2.99-2.56,4.87-5.72,5.881
		c-2.6,0.819-5.36,1.909-6.47,4.859c-0.77,2.04-0.57,3.351,2.13,3.29c4.84-0.07,9.69-0.2,14.5-0.03c2.69,0.091,4.14-0.859,5.19-3.26
		c4.58-10.64,8.24-21.609,11.91-32.57c1.69-4.96,0.57-8.939-3.2-12.88c-6.93-7.39-6.32-16.68-6.39-26.67
		c3.77,3.91,6.9,7.07,9.96,10.28c8.75,9.17,19.29,16.82,24.81,28.71c1.45,3.12,2.59,6.17,3.1,9.62c0.98,6.8-1.99,12.58-3.97,18.65
		c-0.81,2.43-2.09,4.01-4.62,5c-2.29,0.88-4.81,1.8-5.85,4.46c-0.77,1.939-0.77,3.119,1.99,3.35c4.88,0.4,9.62,0.2,14.37-0.98
		c2.05-0.529,3.19-1.42,3.73-3.479c3.13-11.57,5.32-23.29,6.16-35.24c0.27-3.75-0.57-6.97-2.59-10.05
		c-4.3-6.64-8.82-13.17-11.92-20.5l-0.3-1.57c-2.79-10.22-2.45-22.47,0.54-30.08c0.03-0.069,0.03-0.109,0.03-0.109
		s0.1-0.29,0.34-0.82c0.44-1.14,1.45-3.35,3.2-6.229c2.42-3.98-1.18,4.59-0.61,8.14c0,0.03,0,0.06,0.04,0.1
		c0.2,0.33,0.5,0.46,0.87,0.23c2.9-1.71,2.9,0.979,3.87,2.17c1.11,1.31,2.03,3.68,3.24,3.84c3.26,0.39,3.53,2.86,4.71,4.82
		c0.87,1.479,0.94,4.97,4.1,1.779c0.71-0.72,1.08,0.391,1.32,0.82c2.99,5.351,7.97,7.39,13.63,6.08c3.94-0.89,6.83,0.62,10.13,1.51
		c2.56,0.69,6.26,2.391,7.64,0.75c2.83-3.35,4.55,0.101,6.6,0.261c2.66,0.199,5.32,0.6,7.98,0.659c0.64,0,1.72-0.1,1.41-0.88
		c-1.11-2.99,0.81-2.47,2.56-2.34c1.51,0.1,2.46-1.01,2.46-2.13c-0.03-2.6,1.55-2.43,3.4-2.6c1.45-0.131,4.2,0.3,3.77-1.74
		c-0.81-3.71,1.21-3.351,3.57-3.44c1.17-0.04,2.35-0.46,3.43-0.96c1.04-0.46,1.58-1.479,1.51-2.56
		C299.962,188.381,298.612,188.541,297.842,188.381z"/>
</g>
</svg>
