<?xml version="1.0" encoding="utf-8"?>
<!-- Generator: Adobe Illustrator 16.0.0, SVG Export Plug-In . SVG Version: 6.00 Build 0)  -->
<!DOCTYPE svg PUBLIC "-//W3C//DTD SVG 1.1//EN" "http://www.w3.org/Graphics/SVG/1.1/DTD/svg11.dtd">
<svg version="1.1" id="Layer_1" xmlns="http://www.w3.org/2000/svg" xmlns:xlink="http://www.w3.org/1999/xlink" x="0px" y="0px"
	 width="102.706px" height="49.309px" viewBox="0 0 102.706 49.309" enable-background="new 0 0 102.706 49.309"
	 xml:space="preserve">
<g>
	<path fill="#3D3C3B" d="M40.75,49.067l0.015-0.034c0,0,0.185-0.436,0.51-1.2c0.17-0.377,0.342-0.85,0.6-1.364
		c0.271-0.509,0.575-1.085,0.907-1.711c0.323-0.63,0.759-1.268,1.172-1.965c0.4-0.704,0.932-1.385,1.432-2.114
		c0.486-0.738,1.102-1.426,1.655-2.172c0.564-0.739,1.21-1.437,1.814-2.161c1.266-1.409,2.589-2.765,3.879-3.985
		c0.636-0.619,1.258-1.211,1.868-1.751c0.606-0.543,1.18-1.056,1.71-1.529c2.15-1.874,3.613-3.046,3.613-3.046l0.01-0.01
		c0.034-0.027,0.053-0.063,0.082-0.095c2.409-1.669,4.879-3.187,7.409-4.563c-1.074,5.086,4.792,12.928,9.629,10.547
		c0.381-0.188,0.366-0.705,0.203-1.016c-1.56-2.977-1.571-10.729-5.714-11.643c2.909-1.383,5.895-2.605,8.957-3.685
		c-0.55,1.905,0.406,4.319,1.561,5.825c2.033,2.658,5.277,4.017,8.582,3.765c0.472-0.035,0.893-0.646,0.536-1.067
		c-2.218-2.62-2.993-6.012-5.142-8.596c-0.411-0.494-0.877-0.941-1.39-1.289c1.489-0.457,2.994-0.884,4.517-1.285
		c0.079-0.021,0.141-0.06,0.193-0.107c0.559,1.236,2.121,1.822,3.543,1.88c4.046,0.165,5.836-3.118,9.248-4.405
		c0.341-0.129,0.445-0.415,0.4-0.688c0.182-0.176,0.241-0.482-0.02-0.653c-2.522-1.658-5.413-2.219-8.368-1.51
		c-1.989,0.476-4.723,1.662-4.998,4.004c-0.018,0.154-0.021,0.303-0.015,0.446c-0.057-0.013-0.114-0.021-0.18-0.01
		c-2.183,0.343-4.34,0.81-6.469,1.386c2.923-3.18,2.571-8.281,1.934-12.566c-0.091-0.614-0.637-0.856-1.173-0.592
		c-2.735,1.348-5.173,3.68-5.589,6.839c-0.345,2.616,0.842,5.148,3.077,6.474c-0.2,0.188-0.41,0.37-0.638,0.543
		c-3.341,1.045-6.595,2.372-9.74,3.924c1.755-3.188-1.144-9.046-1.624-12.026c-0.095-0.595-0.838-0.983-1.288-0.448
		c-2.139,2.539-4.564,5.668-3.647,9.223c0.452,1.744,1.924,3.982,3.781,4.366c-0.169,0.102-0.348,0.199-0.541,0.289
		c-0.213,0.099-0.249,0.3-0.172,0.448c-2.666,1.502-5.235,3.166-7.696,4.972c-0.058,0.025-0.115,0.043-0.169,0.079
		c0,0-0.179,0.147-0.372,0.271c-0.198,0.126-0.706,0.498-1.053,0.744c-0.708,0.483-1.42,0.967-2.549,1.897
		c-1.132,0.926-2.387,2.143-3.687,3.428c-0.664,0.627-1.297,1.154-1.957,1.85c-0.639,0.717-1.274,1.46-1.9,2.206
		c-0.597,0.775-1.23,1.517-1.784,2.306c-0.55,0.79-1.122,1.543-1.586,2.336c-0.472,0.789-0.971,1.518-1.344,2.276
		c-0.38,0.752-0.8,1.427-1.075,2.11c-0.287,0.675-0.548,1.294-0.782,1.844c-0.22,0.551-0.357,1.059-0.497,1.461
		c-0.265,0.811-0.416,1.273-0.416,1.273c-0.063,0.193,0.03,0.406,0.22,0.487C40.433,49.363,40.666,49.269,40.75,49.067z
		 M83.082,1.926c0.46,3.539,0.652,7.538-1.376,10.401C76.884,9.693,79.493,4.234,83.082,1.926z M68.963,17.556
		c-2.155,0.773-3.718-2.474-3.892-3.877c-0.122-0.984,0.129-1.972,0.483-2.875c0.486-1.24,1.254-2.306,2.087-3.325
		c0.948,3.19,3.009,7.368,1.443,10.059C69.044,17.544,69.007,17.542,68.963,17.556z M92.011,9.882
		c0.456-0.283,0.937-0.51,1.44-0.684c0.886-0.33,1.802-0.514,2.742-0.58c1.667-0.121,3.271,0.141,4.822,0.676
		c-1.056,0.479-1.908,1.139-2.867,1.876c-0.793,0.608-1.573,1.211-2.518,1.574c-0.682,0.264-1.387,0.419-2.112,0.466
		c-1.143,0.34-1.754-0.098-1.832-1.314C90.818,11,90.926,10.328,92.011,9.882z M82.897,14.761c3.174,1.814,4.258,5.858,6.309,8.961
		c-4.188-0.576-8.663-4.441-6.718-8.828C82.625,14.849,82.76,14.805,82.897,14.761z M75.677,30.848
		c-3.967,0.694-8.408-7.603-5.974-10.644C74.424,20.019,74.38,27.161,75.677,30.848z"/>
	<path fill="#3D3C3B" d="M62.473,49.277c0.19-0.081,0.283-0.294,0.22-0.487c0,0-0.15-0.463-0.416-1.273
		c-0.14-0.402-0.277-0.91-0.497-1.461c-0.234-0.55-0.496-1.169-0.782-1.844c-0.275-0.684-0.695-1.358-1.075-2.11
		c-0.374-0.759-0.873-1.487-1.344-2.276c-0.464-0.793-1.037-1.546-1.586-2.336c-0.554-0.789-1.187-1.53-1.784-2.306
		c-0.626-0.746-1.261-1.489-1.9-2.206c-0.66-0.695-1.293-1.223-1.957-1.85c-1.3-1.285-2.555-2.502-3.687-3.428
		c-1.129-0.931-1.841-1.414-2.549-1.897c-0.347-0.246-0.854-0.618-1.053-0.744c-0.193-0.123-0.372-0.271-0.372-0.271
		c-0.055-0.036-0.111-0.054-0.169-0.079c-2.461-1.806-5.031-3.47-7.696-4.972c0.077-0.148,0.042-0.35-0.172-0.448
		c-0.193-0.09-0.372-0.188-0.541-0.289c1.856-0.384,3.329-2.622,3.781-4.366c0.917-3.555-1.508-6.684-3.647-9.223
		c-0.449-0.535-1.193-0.146-1.288,0.448c-0.48,2.98-3.379,8.839-1.624,12.026c-3.145-1.552-6.399-2.879-9.74-3.924
		c-0.229-0.173-0.438-0.355-0.638-0.543c2.235-1.325,3.421-3.857,3.077-6.474c-0.417-3.159-2.854-5.491-5.589-6.839
		c-0.537-0.265-1.083-0.022-1.173,0.592c-0.637,4.285-0.99,9.387,1.934,12.566c-2.128-0.576-4.286-1.043-6.469-1.386
		c-0.065-0.011-0.123-0.003-0.18,0.01c0.005-0.144,0.003-0.292-0.015-0.446c-0.274-2.342-3.008-3.528-4.998-4.004
		C5.588,6.729,2.698,7.29,0.176,8.948c-0.261,0.171-0.202,0.478-0.02,0.653c-0.045,0.273,0.059,0.56,0.4,0.688
		c3.411,1.287,5.202,4.57,9.248,4.405c1.422-0.058,2.985-0.644,3.543-1.88c0.052,0.048,0.114,0.086,0.193,0.107
		c1.523,0.401,3.027,0.828,4.517,1.285c-0.512,0.348-0.979,0.795-1.39,1.289c-2.149,2.584-2.924,5.976-5.142,8.596
		c-0.356,0.422,0.064,1.032,0.536,1.067c3.305,0.252,6.549-1.106,8.582-3.765c1.154-1.506,2.11-3.92,1.561-5.825
		c3.062,1.079,6.048,2.302,8.957,3.685c-4.143,0.913-4.154,8.666-5.714,11.643c-0.163,0.311-0.178,0.828,0.203,1.016
		c4.836,2.381,10.703-5.461,9.629-10.547c2.53,1.377,5,2.895,7.409,4.563c0.028,0.031,0.048,0.067,0.082,0.095l0.01,0.01
		c0,0,1.462,1.172,3.613,3.046c0.531,0.474,1.104,0.986,1.71,1.529c0.61,0.54,1.232,1.132,1.868,1.751
		c1.29,1.221,2.613,2.576,3.879,3.985c0.604,0.725,1.25,1.422,1.814,2.161c0.553,0.746,1.168,1.434,1.655,2.172
		c0.5,0.729,1.031,1.41,1.432,2.114c0.414,0.697,0.85,1.335,1.172,1.965c0.332,0.626,0.636,1.202,0.907,1.711
		c0.258,0.515,0.43,0.987,0.6,1.364c0.325,0.765,0.51,1.2,0.51,1.2l0.015,0.034C62.039,49.269,62.272,49.363,62.473,49.277z
		 M21,12.327c-2.028-2.863-1.837-6.862-1.376-10.401C23.212,4.234,25.821,9.693,21,12.327z M33.62,17.537
		c-1.566-2.69,0.496-6.868,1.443-10.059c0.833,1.02,1.601,2.085,2.087,3.325c0.354,0.903,0.605,1.891,0.483,2.875
		c-0.174,1.403-1.737,4.65-3.892,3.877C33.698,17.542,33.661,17.544,33.62,17.537z M11.019,11.896
		c-0.078,1.217-0.689,1.654-1.832,1.314c-0.725-0.047-1.43-0.202-2.112-0.466c-0.944-0.363-1.725-0.966-2.518-1.574
		C3.598,10.433,2.746,9.773,1.69,9.294c1.551-0.535,3.154-0.797,4.822-0.676c0.94,0.066,1.856,0.25,2.742,0.58
		c0.503,0.174,0.984,0.4,1.44,0.684C11.779,10.328,11.887,11,11.019,11.896z M20.216,14.894c1.945,4.387-2.53,8.252-6.718,8.828
		c2.051-3.103,3.135-7.146,6.309-8.961C19.945,14.805,20.081,14.849,20.216,14.894z M33.002,20.204
		c2.435,3.041-2.007,11.338-5.974,10.644C28.325,27.161,28.281,20.019,33.002,20.204z"/>
</g>
</svg>
