<?xml version="1.0" encoding="utf-8"?>
<!-- Generator: Adobe Illustrator 16.0.0, SVG Export Plug-In . SVG Version: 6.00 Build 0)  -->
<!DOCTYPE svg PUBLIC "-//W3C//DTD SVG 1.1//EN" "http://www.w3.org/Graphics/SVG/1.1/DTD/svg11.dtd">
<svg version="1.1" id="Layer_1" xmlns="http://www.w3.org/2000/svg" xmlns:xlink="http://www.w3.org/1999/xlink" x="0px" y="0px"
	 width="124.652px" height="19.688px" viewBox="0 0 124.652 19.688" enable-background="new 0 0 124.652 19.688"
	 xml:space="preserve">
<path fill="#3D3C3B" d="M72.661,19.663c0.425,0.121,0.858-0.202,0.793-0.726c-0.138-1.012-0.493-1.881-0.79-2.844
	c-0.473-1.479-0.011-2.627-0.114-4.09c-0.05-0.617-0.255-1.195-0.577-1.637c4.064-0.059,7.229-0.099,9.026-0.113
	c0.941-0.008,2.009-0.005,3.167,0.003l0.067,0.464c-0.86,1.231-1.82,2.678-1.512,4.22c0.492,2.434,2.915,2.728,4.2,4.429
	c0.414,0.558,1.259,0.151,1.078-0.593c-0.345-1.399-0.382-2.728-0.225-4.175c0.086-0.849,0.229-1.702,0.082-2.551
	c-0.156-0.903-0.841-1.157-1.227-1.561c0.016,0.003,0.466-0.007,0.483-0.004l-0.034-0.044l-0.105-0.155
	c3.332,0.044,7.099,0.119,10.677,0.182c-2.033,3.194-0.18,7.369,3.488,8.354c0.426,0.114,0.856-0.175,0.785-0.65
	c-0.145-0.921-0.508-1.712-0.813-2.589c-0.483-1.346-0.033-2.383-0.148-3.712c-0.049-0.5-0.224-0.973-0.491-1.357
	c3.191,0.048,6.071,0.073,8.143,0.04c-0.657,1.297-0.306,3.221,0.369,4.388c0.91,1.574,2.517,2.452,4.288,2.657
	c0.542,0.058,0.706-0.656,0.41-0.992c-1.074-1.229-0.484-3.305-1.254-4.748c-0.288-0.541-0.657-1.009-1.1-1.402
	c1.763,0.049,3.526,0.147,5.289,0.271c0.165,0.918,0.984,1.624,1.919,1.878c1.73,0.476,3.583-0.573,5.15-1.188
	c0.066-0.025,0.124-0.066,0.172-0.115c0.041,0.032,0.083,0.058,0.123,0.09c0.131,0.091,0.246,0.041,0.312-0.065
	c0.033,0.008,0.066,0.008,0.099,0.008c0.304,0.025,0.36-0.442,0.074-0.517c-0.131-0.041-0.271-0.065-0.41-0.098
	c-1.066-1.222-2.649-2.42-4.239-2.657c-1.156-0.173-2.51,0.336-3.026,1.419c-1.845-0.181-3.706-0.271-5.568-0.287
	c0.508-0.304,0.959-0.73,1.279-1.222c1.033-1.615,0.738-3.633,0.459-5.421c-0.065-0.41-0.598-0.558-0.918-0.377
	c-2.238,1.312-4.19,4.354-3.403,7.044c-0.714,0.014-1.424,0.041-2.132,0.076c-1.676-0.148-3.924-0.261-6.613-0.343
	c0.541-0.387,0.982-0.902,1.255-1.567c0.742-1.775-0.076-3.968,1.309-5.479c0.412-0.447-0.226-1.108-0.718-0.866
	c-1.965,0.946-4.064,2.168-4.756,4.384c-0.361,1.142-0.276,2.456,0.343,3.461c-3.273-0.072-7.053-0.109-11.183-0.119
	c0.269-0.289,0.503-0.624,0.666-1.019c0.927-2.278-0.796-4.709,1.53-6.489c0.471-0.361,0.269-1.295-0.353-1.188
	c-2.21,0.363-4.648,1.611-5.385,4.132c-0.493,1.681-0.013,3.554,1.179,4.562c-3.878,0.001-8.02,0.024-12.31,0.063
	c0.563-0.436,1.024-1.017,1.31-1.77c0.759-1.963-0.037-4.373,1.363-6.05c0.417-0.497-0.216-1.22-0.711-0.947
	c-1.977,1.06-4.089,2.427-4.802,4.876c-0.384,1.302-0.293,2.803,0.372,3.915c-3.947,0.042-7.994,0.097-12.055,0.159l-0.081-0.121
	c0,0,0.009-0.007,0.019-0.014c0.309-0.31,0.572-0.685,0.751-1.123c0.927-2.278-0.794-4.709,1.531-6.49
	c0.471-0.36,0.269-1.295-0.354-1.188c-2.208,0.363-4.646,1.611-5.385,4.132c-0.519,1.773,0.036,3.773,1.376,4.732l0.015,0.106
	c-4.394,0.071-8.781,0.153-13.051,0.24c0.442-0.367,0.802-0.835,1.038-1.41c0.742-1.775-0.075-3.969,1.309-5.479
	c0.413-0.448-0.226-1.108-0.719-0.866c-1.965,0.945-4.063,2.166-4.755,4.383c-0.357,1.13-0.28,2.43,0.322,3.431
	C18.161,9.779,0.877,10.303,0.877,10.303s-1.948,1.386-0.04,1.292c0.987-0.048,19.402-0.382,38.511-0.706
	c-2.103,3.204-0.247,7.434,3.447,8.425c0.425,0.113,0.856-0.177,0.786-0.651c-0.146-0.92-0.508-1.711-0.813-2.588
	c-0.484-1.347-0.034-2.384-0.149-3.712c-0.056-0.572-0.272-1.111-0.61-1.519c4.419-0.074,8.833-0.147,13.037-0.215l0.015,0.098
	c-0.858,1.231-1.818,2.678-1.51,4.219c0.492,2.434,2.915,2.729,4.199,4.43c0.413,0.558,1.257,0.151,1.076-0.594
	c-0.344-1.398-0.381-2.727-0.224-4.174c0.086-0.849,0.229-1.702,0.082-2.551c-0.145-0.832-0.733-1.114-1.126-1.468
	c4.001-0.064,7.761-0.124,11.094-0.173c-0.008,0.002-0.015,0.004-0.024,0.006c0.026-0.002,0.054-0.004,0.08-0.007
	c0.195-0.004,0.393-0.006,0.585-0.009C67.152,13.957,68.971,18.604,72.661,19.663z M72.02,17.968
	c-0.195-0.117-0.373-0.243-0.541-0.377c0.128-0.052,0.242-0.132,0.327-0.242C71.877,17.546,71.95,17.753,72.02,17.968z
	 M100.483,17.279c-0.196-0.109-0.375-0.225-0.544-0.348c0.127-0.046,0.241-0.117,0.324-0.216
	C100.337,16.895,100.411,17.083,100.483,17.279z M42.14,17.77c-0.195-0.109-0.374-0.225-0.543-0.347
	c0.126-0.046,0.24-0.118,0.323-0.217C41.995,17.386,42.068,17.573,42.14,17.77z"/>
</svg>
