<?xml version="1.0" encoding="utf-8"?>
<!-- Generator: Adobe Illustrator 16.0.0, SVG Export Plug-In . SVG Version: 6.00 Build 0)  -->
<!DOCTYPE svg PUBLIC "-//W3C//DTD SVG 1.1//EN" "http://www.w3.org/Graphics/SVG/1.1/DTD/svg11.dtd">
<svg version="1.1" id="Layer_1" xmlns="http://www.w3.org/2000/svg" xmlns:xlink="http://www.w3.org/1999/xlink" x="0px" y="0px"
	 width="138.631px" height="87.184px" viewBox="0 0 138.631 87.184" enable-background="new 0 0 138.631 87.184"
	 xml:space="preserve">
<path fill="#3D3C3B" d="M118.221,85.277c0.016-5.522,0.044-11.614,0.042-17.197c4.55,3.111,10.499,0.278,11.9-5.332
	c0.162-0.65-0.25-1.31-0.927-1.201c-1.31,0.221-2.436,0.778-3.686,1.245c-1.916,0.74-3.393,0.049-5.284,0.227
	c-0.749,0.079-1.452,0.368-2.012,0.811c-0.006-1.276-0.012-2.501-0.024-3.659l0.078-0.038c-0.07-1.718-0.105-3.437-0.105-5.14
	c1.846,1.139,4.718,0.588,6.436-0.478c2.241-1.392,3.492-3.849,3.783-6.557c0.083-0.828-0.935-1.08-1.413-0.626
	c-1.751,1.641-4.707,0.74-6.762,1.917c-0.77,0.438-1.437,1.003-1.997,1.679c0.07-2.695,0.21-5.39,0.386-8.085
	c1.308-0.253,2.312-1.505,2.673-2.934c0.677-2.647-0.816-5.482-1.692-7.877c-0.036-0.101-0.094-0.187-0.164-0.26
	c0.047-0.066,0.082-0.128,0.128-0.19c0.129-0.2,0.059-0.375-0.092-0.476c0.012-0.049,0.012-0.101,0.012-0.15
	c0.034-0.463-0.631-0.551-0.737-0.114c-0.058,0.202-0.092,0.416-0.139,0.628c-1.74,1.63-3.445,4.05-3.784,6.484
	c-0.246,1.765,0.478,3.836,2.021,4.625c-0.257,2.82-0.386,5.667-0.409,8.514c-0.432-0.78-1.039-1.468-1.741-1.958
	c-2.3-1.578-5.172-1.129-7.718-0.703c-0.584,0.101-0.794,0.917-0.538,1.406c1.869,3.422,6.201,6.407,10.031,5.202
	c0.022,1.227,0.07,2.444,0.129,3.658c-0.139,1.976-0.248,4.062-0.332,6.222c-0.565-0.952-1.359-1.727-2.408-2.19
	c-2.528-1.132-5.651,0.117-7.802-2c-0.637-0.632-1.579,0.346-1.232,1.099c1.347,3.005,3.085,6.214,6.242,7.273
	c1.686,0.571,3.636,0.41,5.083-0.635c-0.143,5.431-0.147,11.184-0.075,16.809H70.517c-0.055-1.964-0.097-4.116-0.112-6.493
	c-0.038-4.032-0.019-9.282,0-14.925l0.524-0.075c2.27,1.575,4.932,3.356,7.763,2.774c4.481-0.899,5.025-5.343,8.138-7.723
	c1.031-0.751,0.281-2.307-1.088-1.97c-2.569,0.639-5.006,0.694-7.669,0.414c-1.575-0.168-3.131-0.432-4.706-0.15
	c-1.649,0.28-2.118,1.536-2.869,2.25c0.019-0.039,0-0.863,0-0.883l-0.074,0.057c0.019-3.975,0.037-8.043,0.037-11.905
	c5.87,3.75,13.557,0.337,15.375-6.412c0.206-0.79-0.319-1.577-1.2-1.445c-1.688,0.262-3.149,0.938-4.763,1.5
	c-2.475,0.883-4.387,0.057-6.824,0.264c-0.975,0.093-1.875,0.449-2.588,0.974c-0.018-2.082-0.018-4.068-0.037-5.907l0.093-0.037
	c-0.093-2.062-0.131-4.144-0.131-6.188c2.381,1.368,6.094,0.712,8.306-0.582c2.888-1.668,4.519-4.631,4.894-7.874
	c0.094-1.013-1.218-1.313-1.837-0.769c-2.25,1.987-6.075,0.899-8.719,2.305c-1.012,0.525-1.855,1.22-2.587,2.025
	c0.093-3.243,0.263-6.487,0.506-9.73c1.688-0.3,2.981-1.8,3.45-3.526c0.862-3.186-1.069-6.599-2.194-9.468
	c-0.038-0.13-0.113-0.226-0.206-0.319c0.056-0.075,0.093-0.15,0.168-0.225c0.168-0.244,0.075-0.449-0.131-0.581
	c0.019-0.057,0.019-0.113,0.019-0.168c0.037-0.562-0.806-0.676-0.956-0.132c-0.075,0.225-0.113,0.487-0.169,0.751
	c-2.25,1.95-4.462,4.874-4.894,7.798c-0.318,2.12,0.619,4.614,2.606,5.552c-0.318,3.393-0.488,6.824-0.525,10.255
	c-0.562-0.938-1.349-1.763-2.25-2.362c-2.962-1.895-6.675-1.352-9.975-0.844c-0.75,0.112-1.013,1.106-0.676,1.687
	c2.401,4.125,8.006,7.707,12.957,6.264c0.019,1.461,0.075,2.924,0.15,4.367c-0.207,2.812-0.375,5.814-0.488,8.927
	c-0.731-1.106-1.725-1.989-3.037-2.533c-3.281-1.368-7.313,0.132-10.088-2.398c-0.825-0.769-2.043,0.412-1.594,1.311
	c1.744,3.62,3.995,7.481,8.063,8.756c2.156,0.676,4.65,0.489,6.525-0.73c-0.112,4.332-0.131,8.813-0.112,13.293l-0.038,0.018
	c0,0-0.019-0.018-0.038-0.037c-0.562-0.562-1.256-1.049-2.062-1.37c-4.181-1.705-8.662,1.463-11.925-2.831
	c-0.675-0.862-2.399-0.487-2.194,0.657c0.675,4.069,2.963,8.549,7.594,9.899c3.263,0.958,6.938-0.055,8.7-2.512
	c0.088,7.416,0.31,14.65,0.57,21.005H21.888c0.017-5.522,0.044-11.614,0.042-17.197c4.55,3.111,10.498,0.278,11.9-5.332
	c0.162-0.65-0.25-1.31-0.928-1.201c-1.31,0.221-2.436,0.778-3.686,1.245c-1.917,0.74-3.393,0.049-5.285,0.227
	c-0.749,0.079-1.452,0.368-2.012,0.811c-0.005-1.276-0.012-2.501-0.024-3.659l0.078-0.038c-0.071-1.718-0.105-3.437-0.105-5.14
	c1.846,1.139,4.718,0.588,6.435-0.478c2.241-1.392,3.492-3.849,3.783-6.557c0.083-0.828-0.935-1.08-1.413-0.626
	c-1.751,1.641-4.707,0.74-6.762,1.917c-0.77,0.438-1.437,1.003-1.997,1.679c0.07-2.695,0.209-5.39,0.386-8.085
	c1.307-0.253,2.312-1.505,2.673-2.934c0.677-2.647-0.817-5.482-1.693-7.877c-0.036-0.101-0.093-0.187-0.164-0.26
	c0.048-0.066,0.082-0.128,0.128-0.19c0.129-0.2,0.059-0.375-0.093-0.476c0.012-0.049,0.012-0.101,0.012-0.15
	c0.034-0.463-0.632-0.551-0.737-0.114c-0.058,0.202-0.093,0.416-0.14,0.628c-1.74,1.63-3.445,4.05-3.784,6.484
	c-0.246,1.765,0.478,3.836,2.021,4.625c-0.257,2.82-0.385,5.667-0.409,8.514c-0.432-0.78-1.039-1.468-1.74-1.958
	c-2.3-1.578-5.173-1.129-7.718-0.703c-0.584,0.101-0.794,0.917-0.537,1.406c1.869,3.422,6.201,6.407,10.03,5.202
	c0.022,1.227,0.071,2.444,0.129,3.658c-0.139,1.976-0.249,4.062-0.333,6.222c-0.565-0.952-1.358-1.727-2.408-2.19
	c-2.529-1.132-5.652,0.117-7.802-2c-0.637-0.632-1.578,0.346-1.232,1.099c1.347,3.005,3.085,6.214,6.242,7.273
	c1.687,0.571,3.637,0.41,5.084-0.635c-0.142,5.431-0.147,11.184-0.075,16.809H0v1.906h19.781h2.102h94.23h2.102h20.416v-1.906
	H118.221z M127.964,63.752c-0.155,0.298-0.318,0.571-0.493,0.829c-0.065-0.194-0.168-0.366-0.31-0.494
	C127.418,63.973,127.686,63.86,127.964,63.752z M82.986,41.435c-0.188,0.355-0.412,0.694-0.637,1.013
	c-0.075-0.244-0.206-0.451-0.394-0.601C82.292,41.697,82.63,41.567,82.986,41.435z M31.632,63.752
	c-0.156,0.298-0.319,0.571-0.494,0.829c-0.065-0.194-0.168-0.366-0.31-0.494C31.086,63.973,31.353,63.86,31.632,63.752z"/>
</svg>
