<?xml version="1.0" encoding="utf-8"?>
<!-- Generator: Adobe Illustrator 16.0.0, SVG Export Plug-In . SVG Version: 6.00 Build 0)  -->
<!DOCTYPE svg PUBLIC "-//W3C//DTD SVG 1.1//EN" "http://www.w3.org/Graphics/SVG/1.1/DTD/svg11.dtd">
<svg version="1.1" id="Layer_1" xmlns="http://www.w3.org/2000/svg" xmlns:xlink="http://www.w3.org/1999/xlink" x="0px" y="0px"
	 width="204.33px" height="102.57px" viewBox="0 0 204.33 102.57" enable-background="new 0 0 204.33 102.57" xml:space="preserve">
<g>
	<path d="M203.31,100.528h-5.88l-37.57-62.439l7.78-12.921c0.29-0.479,0.13-1.11-0.36-1.399c-0.479-0.291-1.109-0.131-1.399,0.35
		l-6.04,10.029v-12.5c0-0.569-0.45-1.02-1.021-1.02c-0.569,0-1.029,0.45-1.029,1.02v13.011l-5.53-9.19
		c-0.29-0.49-0.92-0.64-1.4-0.359c-0.489,0.289-0.649,0.92-0.359,1.4l6.97,11.58l-21.914,36.414l-31.674-52.639l9.734-16.177
		c0.366-0.605,0.165-1.39-0.442-1.751c-0.611-0.361-1.394-0.166-1.76,0.439l-7.553,12.553V1.276c0-0.705-0.573-1.276-1.283-1.276
		s-1.283,0.571-1.283,1.276v16.285L94.371,6.057c-0.366-0.606-1.151-0.8-1.76-0.44c-0.607,0.361-0.809,1.146-0.442,1.752
		l8.724,14.496L68.84,75.134L46.55,38.089l7.78-12.921c0.29-0.479,0.13-1.11-0.351-1.399c-0.49-0.291-1.12-0.131-1.41,0.35
		L46.54,34.147v-12.5c0-0.569-0.46-1.02-1.03-1.02s-1.021,0.45-1.021,1.02v13.011l-5.529-9.19c-0.3-0.49-0.92-0.64-1.41-0.359
		c-0.49,0.289-0.65,0.92-0.35,1.4l6.97,11.58L6.6,100.528H1.02c-0.56,0-1.02,0.46-1.02,1.02c0,0.57,0.46,1.021,1.02,1.021h45.866
		c0.002,0,0.004,0.001,0.007,0.001h111.371c0.003,0,0.005-0.001,0.007-0.001h45.039c0.561,0,1.021-0.45,1.021-1.021
		C204.33,100.988,203.87,100.528,203.31,100.528z M168.7,56.849h0.06l3.86,6.42h-8.601l4.65-6.33
		C168.689,56.908,168.689,56.878,168.7,56.849z M154.09,62.968l-0.14-0.189l4.229-5.74l4.59,6.23h-8.62
		C154.17,63.168,154.16,63.058,154.09,62.968z M153.5,62.158l-3.91-5.31h7.82L153.5,62.158z M158.96,56.849h8.87l-4.44,6.02
		L158.96,56.849z M158.67,40.078l9.479,15.761h-18.97L158.67,40.078z M148.58,56.849h0.14c0.01,0.029,0,0.06,0.02,0.09l4.301,5.84
		l-0.141,0.189c-0.06,0.09-0.08,0.2-0.06,0.301h-8.12L148.58,56.849z M114.942,45.341h0.074l4.833,8.031h-10.767l5.829-7.918
		C114.938,45.42,114.928,45.379,114.942,45.341z M96.66,52.999l-0.173-0.235l5.294-7.191l5.741,7.8H96.738
		C96.763,53.246,96.744,53.112,96.66,52.999z M95.916,51.987l-4.893-6.646h9.785L95.916,51.987z M102.754,45.341h11.098
		l-5.549,7.539L102.754,45.341z M102.388,24.349l11.873,19.731H90.515L102.388,24.349z M89.758,45.341h0.176
		c0.014,0.038,0.004,0.079,0.029,0.113l5.382,7.31l-0.174,0.235c-0.083,0.113-0.103,0.247-0.077,0.373H84.926L89.758,45.341z
		 M55.39,56.849h0.061l3.859,6.42h-8.6l4.66-6.33C55.39,56.908,55.38,56.878,55.39,56.849z M44.88,57.038l4.58,6.23h-8.61
		c0.021-0.101,0-0.211-0.07-0.301l-0.13-0.189L44.88,57.038z M40.189,62.158l-3.91-5.31h7.82L40.189,62.158z M45.649,56.849h8.87
		l-4.43,6.02L45.649,56.849z M45.359,40.078l9.48,15.761H35.87L45.359,40.078z M35.27,56.849h0.141c0.01,0.029,0,0.06,0.02,0.09
		l4.3,5.84l-0.14,0.189c-0.061,0.09-0.08,0.2-0.061,0.301H31.41L35.27,56.849z M28.359,100.528H8.979l2.891-4.78
		c0.149,0.03,0.319,0.06,0.5,0.06h19.3L28.359,100.528z M32.38,94.798h-19.94l2.84-4.729h20.41L32.38,94.798z M36.399,89.058H15.89
		L30.8,64.269h29.12l7.727,12.85l-7.185,11.939H54.47l-8.96-13L36.399,89.058z M55.17,90.068h4.685l-2.188,3.638L55.17,90.068z
		 M60.463,94.029c0.192,0.042,0.402,0.071,0.637,0.071h24.151l-4.147,5.916H56.856L60.463,94.029z M86.137,92.839h-24.96
		l3.561-5.917h25.55L86.137,92.839z M91.169,85.661H65.497l18.668-31.027h36.444l18.668,31.027h-25.486L102.578,69.39L91.169,85.661
		z M150.907,100.017l-0.068-0.113l0.07,0.113H150.907z M146.802,93.194l-1.881-3.126H149L146.802,93.194z M144.343,94.075
		l3.575,5.941h-24.231l-4.077-5.916h24.447C144.157,94.101,144.248,94.084,144.343,94.075z M118.739,92.839l-4.077-5.917h25.375
		l3.561,5.917H118.739z M158.819,76.058l-9.119,13h-5.387l-7.559-12.561l7.354-12.229h29.11l14.92,24.789h-20.36L158.819,76.058z
		 M168.47,90.068h20.28l2.84,4.729h-19.86L168.47,90.068z M175.68,100.528l-3.25-4.721h19.53c0.08,0,0.149-0.02,0.229-0.02
		l2.851,4.74H175.68z"/>
	<circle cx="177.661" cy="92.432" r="0.81"/>
	<circle cx="173.431" cy="92.432" r="0.81"/>
	<circle cx="153.639" cy="58.438" r="0.81"/>
	<circle cx="163.247" cy="58.438" r="0.813"/>
	<path d="M168.751,62.41c0.452,0,0.813-0.362,0.813-0.81s-0.361-0.81-0.813-0.81c-0.451,0-0.813,0.362-0.813,0.81
		S168.3,62.41,168.751,62.41z"/>
	<circle cx="158.328" cy="61.601" r="0.81"/>
	<circle cx="147.906" cy="61.601" r="0.81"/>
	<circle cx="182.139" cy="92.432" r="0.81"/>
	<circle cx="186.616" cy="92.432" r="0.81"/>
	<circle cx="40.331" cy="58.438" r="0.81"/>
	<circle cx="49.939" cy="58.438" r="0.813"/>
	<path d="M55.443,62.41c0.452,0,0.813-0.362,0.813-0.81s-0.361-0.81-0.813-0.81c-0.451,0-0.813,0.362-0.813,0.81
		S54.992,62.41,55.443,62.41z"/>
	<circle cx="45.021" cy="61.601" r="0.81"/>
	<circle cx="34.599" cy="61.601" r="0.81"/>
	<circle cx="26.669" cy="92.432" r="0.81"/>
	<circle cx="22.191" cy="92.432" r="0.81"/>
	<circle cx="17.714" cy="92.432" r="0.81"/>
	<circle cx="126.163" cy="89.88" r="1.013"/>
	<circle cx="120.867" cy="89.88" r="1.013"/>
	<circle cx="96.094" cy="47.331" r="1.013"/>
	<circle cx="108.12" cy="47.331" r="1.018"/>
	<path d="M115.01,52.302c0.565,0,1.019-0.453,1.019-1.014c0-0.56-0.453-1.013-1.019-1.013c-0.564,0-1.018,0.453-1.018,1.013
		C113.992,51.849,114.445,52.302,115.01,52.302z"/>
	<ellipse cx="101.963" cy="51.289" rx="1.02" ry="1.013"/>
	<ellipse cx="88.918" cy="51.289" rx="1.019" ry="1.013"/>
	<circle cx="131.768" cy="89.88" r="1.013"/>
	<ellipse cx="137.372" cy="89.88" rx="1.019" ry="1.013"/>
	<circle cx="78.993" cy="89.88" r="1.013"/>
	<circle cx="73.389" cy="89.88" r="1.013"/>
	<ellipse cx="67.784" cy="89.88" rx="1.019" ry="1.013"/>
</g>
</svg>
