<?xml version="1.0" encoding="utf-8"?>
<!-- Generator: Adobe Illustrator 16.0.0, SVG Export Plug-In . SVG Version: 6.00 Build 0)  -->
<!DOCTYPE svg PUBLIC "-//W3C//DTD SVG 1.1//EN" "http://www.w3.org/Graphics/SVG/1.1/DTD/svg11.dtd">
<svg version="1.1" id="Layer_1" xmlns="http://www.w3.org/2000/svg" xmlns:xlink="http://www.w3.org/1999/xlink" x="0px" y="0px"
	 width="176.832px" height="121.878px" viewBox="0 0 176.832 121.878" enable-background="new 0 0 176.832 121.878"
	 xml:space="preserve">
<g>
	<path d="M30.471,19.069C26.139-1.05,6.592,3.424,0,3.424c0,0,9.458,3.05,14.438,6.744c9.45,6.99-1.003,18.747,5.152,29.404
		C27.043,52.47,38.976,52.47,49.118,52.47c0,0,0-8.025,0-16.337C32.786,36.133,34.482,37.699,30.471,19.069z"/>
	<path d="M146.363,16.069c-4.012,18.63-8.316,20.063-24.649,20.063c0,8.312,0,16.337,0,16.337c10.143,0,24.075,0,31.527-12.897
		c6.155-10.657-0.298-25.414,9.152-32.404c4.98-3.694,14.438-6.744,14.438-6.744C170.24,0.424,150.694-4.05,146.363,16.069z"/>
	<path d="M111.742,34.339c-3.558,0-4.331,1.493-4.953,2.692c-0.485,0.936-0.806,1.555-2.348,1.555c-1.471,0-2.176-1.011-3.067-2.291
		c-1.295-1.855-2.905-4.165-7.468-4.165c-4.735,0-5.817,0.872-6.687,1.573c-0.475,0.383-0.787,0.636-1.804,0.636
		s-1.329-0.253-1.804-0.636c-0.869-0.701-1.95-1.573-6.687-1.573c-4.562,0-6.173,2.31-7.466,4.165
		c-0.893,1.28-1.597,2.291-3.067,2.291c-1.543,0-1.864-0.619-2.35-1.555c-0.622-1.199-1.396-2.692-4.952-2.692
		c-6.059,0-7.43,2.052-7.565,2.286l-0.068,0.117l0.001,16.438l0.67-0.241c0.006-0.002,0.6-0.213,1.327-0.213
		c0.839,0,1.498,0.273,1.957,0.811c0.816,0.954,1.036,2.803,0.637,5.344l-0.159,1.014l0.896-0.498
		c1.354-0.753,3.019-1.185,4.567-1.185c2.127,0,5.146,0.79,7.445,4.556l0.562,0.917c3.457,5.64,4.163,7.049,1.269,9.116
		c-0.669,0.479-1.342,0.711-2.054,0.711c-0.96,0-1.936-0.412-2.969-0.85c-1.183-0.499-2.523-1.065-4.043-1.065
		c-0.405,0-0.813,0.04-1.213,0.12l-0.643,0.129l0.293,0.586c0.376,0.748,1.258,1.275,2.479,2.006
		c3.129,1.871,8.367,5.004,9.713,15.502c0.685,5.334,4.489,31.938,12.206,31.938h0.478l0.021-0.477
		c0.137-2.909-0.2-6.24-0.526-9.462c-0.434-4.291-0.883-8.729,0.248-9.98c0.394-0.438,1.121-0.471,1.526-0.026
		c1.114,1.226,0.688,5.692,0.276,10.013c-0.307,3.22-0.624,6.549-0.487,9.456l0.021,0.477h0.478
		c7.717,0,11.521-26.604,12.206-31.938c1.346-10.498,6.584-13.631,9.714-15.502c1.221-0.73,2.103-1.258,2.479-2.006l0.293-0.586
		l-0.643-0.129c-0.399-0.08-0.8-0.12-1.189-0.12c-1.501,0-2.684,0.587-3.726,1.104c-0.876,0.435-1.632,0.811-2.443,0.811
		c-0.622,0-1.251-0.232-1.92-0.711c-2.896-2.068-2.188-3.479,1.272-9.123l0.558-0.91c1.847-3.023,4.137-4.556,6.807-4.556
		c1.716,0,3.233,0.644,4.205,1.185l0.896,0.498l-0.159-1.014c-0.399-2.541-0.18-4.39,0.637-5.344
		c0.459-0.537,1.118-0.811,1.958-0.811c0.728,0,1.321,0.211,1.327,0.213l0.671,0.242V36.742l-0.068-0.117
		C119.172,36.391,117.802,34.339,111.742,34.339z M118.376,51.824c-0.277-0.053-0.622-0.098-0.998-0.098
		c-1.129,0-2.069,0.401-2.718,1.16c-0.91,1.064-1.242,2.812-0.99,5.202c-1.025-0.462-2.356-0.877-3.829-0.877
		c-3.042,0-5.619,1.694-7.66,5.034l-0.557,0.909c-3.271,5.335-4.765,7.771-1.002,10.458c0.846,0.604,1.664,0.898,2.502,0.898
		c1.046,0,1.94-0.445,2.888-0.915c1.01-0.501,2.068-1.003,3.355-0.999c-0.386,0.299-0.919,0.618-1.527,0.982
		c-3.285,1.964-8.784,5.252-10.192,16.232c-1.857,14.479-5.971,30.025-10.734,31.016c-0.075-2.713,0.22-5.799,0.504-8.787
		c0.473-4.952,0.88-9.229-0.531-10.781c-0.385-0.422-0.879-0.637-1.47-0.637c-0.622,0-1.14,0.224-1.539,0.665
		c-1.429,1.581-0.998,5.831-0.5,10.753c0.302,2.989,0.614,6.074,0.541,8.787c-4.764-0.99-8.876-16.537-10.733-31.016
		c-1.408-10.98-6.907-14.269-10.192-16.232c-0.607-0.364-1.141-0.683-1.526-0.982c1.36-0.012,2.575,0.489,3.752,0.986
		c1.129,0.477,2.194,0.928,3.357,0.928c0.928,0,1.79-0.294,2.636-0.898c3.763-2.687,2.271-5.119-0.998-10.451l-0.561-0.916
		c-2.542-4.16-5.916-5.034-8.299-5.034c-1.742,0-3.198,0.452-4.192,0.886c0.254-2.395-0.078-4.146-0.989-5.211
		c-0.648-0.759-1.588-1.16-2.717-1.16c-0.376,0-0.721,0.045-0.998,0.098V37.048c0.33-0.365,1.869-1.709,6.634-1.709
		c2.948,0,3.49,1.046,4.064,2.152c0.509,0.981,1.086,2.095,3.237,2.095c1.992,0,2.913-1.32,3.888-2.719
		c1.221-1.752,2.604-3.737,6.646-3.737c4.383,0,5.312,0.749,6.059,1.353c0.547,0.439,1.062,0.856,2.432,0.856
		s1.886-0.417,2.432-0.856c0.747-0.604,1.676-1.353,6.059-1.353c4.041,0,5.426,1.985,6.647,3.737
		c0.975,1.398,1.896,2.719,3.888,2.719c2.15,0,2.727-1.113,3.235-2.094c0.574-1.107,1.116-2.153,4.065-2.153
		c4.784,0,6.316,1.354,6.634,1.706V51.824z"/>
	<path d="M85.877,66.32c-0.124-0.33-0.272-0.658-0.356-0.986l-0.148-0.494l-0.079-0.525c-0.093-0.676-0.067-1.395-0.082-2.078
		c-0.022-0.688,0.012-1.367,0.085-2.041c0.063-0.66,0.104-1.36,0.18-1.952c0.113-0.578,0.332-1.167,0.464-1.882l0.032-0.459
		c0-0.104,0.021-0.093,0.002-0.287l-0.041-0.278c-0.082-0.356-0.229-0.683-0.381-0.935c-0.141-0.251-0.299-0.518-0.35-0.67
		c-0.04-0.034-0.066-0.289-0.079-0.319l-0.013-0.368c0.016-0.992,0.293-1.947,0.459-2.811c0.179-0.865,0.315-1.647,0.289-2.303
		c-0.017-0.656-0.158-1.158-0.274-1.488c-0.146-0.306-0.224-0.469-0.224-0.469l-0.094,0.035c0,0,0.045,0.174,0.129,0.502
		c0.052,0.319,0.119,0.795,0.044,1.402c-0.072,0.604-0.239,1.327-0.503,2.156c-0.254,0.832-0.595,1.781-0.675,2.952l0.003,0.448
		c0.038,0.238,0.023,0.269,0.099,0.492c0.122,0.384,0.274,0.604,0.405,0.865c0.139,0.251,0.232,0.472,0.291,0.698l0.026,0.168
		c0.001-0.004,0.004,0.024,0.005,0.027l-0.001,0.026l-0.006,0.113l-0.021,0.46c-0.082,0.503-0.254,1.128-0.318,1.837
		c-0.02,0.7,0.009,1.328,0.014,2.014c0.006,0.338,0.013,0.678,0.02,1.021c0.024,0.344,0.05,0.691,0.075,1.041
		c0.063,0.701,0.043,1.393,0.133,2.121c0.155,1.438,0.865,2.786,1.251,4.124c0.214,0.671,0.302,1.353,0.245,1.989
		c-0.037,0.253-0.169,0.666-0.249,0.99c-0.106,0.333-0.259,0.623-0.382,0.934c-0.247,0.634-0.585,1.262-0.795,1.971
		c-0.27,0.701-0.37,1.394-0.522,2.041c-0.331,1.295-0.451,2.639-0.557,3.901c-0.059,0.61-0.114,1.204-0.169,1.779
		c-0.074,0.566-0.146,1.114-0.216,1.64c-0.052,0.551-0.135,1.062-0.152,1.576c0.007,0.262,0.014,0.517,0.02,0.765
		c0.005,0.122,0.01,0.243,0.016,0.362c0.023,0.168,0.054,0.234,0.08,0.354c0.25,0.914,0.703,1.592,1.077,2.102
		c0.382,0.515,0.718,0.883,0.943,1.137c0.233,0.246,0.357,0.377,0.357,0.377l0.078-0.062c0,0-0.1-0.15-0.286-0.432
		c-0.182-0.283-0.463-0.69-0.758-1.236c-0.289-0.548-0.651-1.206-0.777-2.01c-0.094-0.39,0.036-0.849,0.023-1.3
		c0.045-0.465,0.159-0.973,0.24-1.49c0.105-0.539,0.215-1.101,0.328-1.681c0.04-0.288,0.08-0.581,0.121-0.879
		c0.037-0.302,0.075-0.608,0.113-0.92c0.074-0.598,0.146-1.211,0.205-1.841c0.037-0.626,0.232-1.283,0.329-1.944
		c0.132-0.67,0.209-1.346,0.426-1.95c0.153-0.633,0.474-1.259,0.703-1.957c0.116-0.354,0.264-0.714,0.351-1.065
		c0.064-0.372,0.154-0.648,0.198-1.102c0.002-0.797-0.188-1.549-0.474-2.227C86.487,67.613,86.161,66.971,85.877,66.32z"/>
</g>
</svg>
