<?xml version="1.0" encoding="utf-8"?>
<!-- Generator: Adobe Illustrator 16.0.0, SVG Export Plug-In . SVG Version: 6.00 Build 0)  -->
<!DOCTYPE svg PUBLIC "-//W3C//DTD SVG 1.1//EN" "http://www.w3.org/Graphics/SVG/1.1/DTD/svg11.dtd">
<svg version="1.1" id="Layer_1" xmlns="http://www.w3.org/2000/svg" xmlns:xlink="http://www.w3.org/1999/xlink" x="0px" y="0px"
	 width="500px" height="184.098px" viewBox="0 0 500 184.098" enable-background="new 0 0 500 184.098" xml:space="preserve">
<g>
	<g>
		<path fill-rule="evenodd" clip-rule="evenodd" fill="#9A5A58" d="M233.19,51.837c-0.29-1.83-0.84-3.6-1.24-5.43
			c-0.23-0.19-0.61-0.41-1.07-0.59c-0.49-0.21-1.11-0.39-1.77-0.561c-0.67-0.159-1.38-0.3-2.11-0.47c-0.38-0.1-0.71-0.149-1.15-0.34
			c-0.37-0.2-0.65-0.41-0.95-0.63c-0.4-0.32-0.74-0.68-1.01-1.03c0.52,1.11,1.2,2.16,1.98,3.141c1.4,1.76,2.65,3.52,3,5.77
			c-0.06,0.22,0.01,0.41,0.15,0.57c0.08,0.47,0.15,0.93,0.24,1.399c0.54,2.681,0.96,5.4,0.77,8.15c-0.09,1.35-0.34,2.649-2.01,3.18
			c-0.85,0.271-1.5,0.98-1.97,1.76c-0.41,0.69-0.25,1.07,0.57,1.15c1.23,0.13,2.46,0.16,3.67-0.05c0.29-0.05,0.59-0.101,0.79-0.33
			c1.32-1.54,2.57-3.19,2.63-5.24C233.82,58.797,233.76,55.308,233.19,51.837z M288.2,45.217c-0.84-0.21-1.72-0.329-2.55-0.56
			c-3.61-1.01-7.37-1.69-10.47-3.99l-1.32-1.2c-0.36-0.619-0.84-1.159-1.2-1.789c-0.51-0.881-1.09-1.75-1.95-2.381
			c0.01-0.119-0.05-0.13-0.14-0.1c-0.91-1.21-1.97-2.27-3.32-2.98c-2.2-1.149-4.44-2.189-6.84-2.859
			c-4.11-1.141-8.37-1.57-12.52-2.53c-2.2-0.5-4.56-0.71-6.49-1.8c-3.09-1.73-5.49-4.25-6.88-7.561c-0.3-0.71-0.06-0.85,0.6-0.71
			c0.98,0.2,1.92,0.141,2.81-0.329c0.46-0.24,0.8-0.591,0.76-1.11c-0.03-0.54-0.49-0.67-0.93-0.82c-1.49-0.52-2.96-1.069-4.23-2.02
			c-1.88-1.42-3.32-3.15-4.13-5.34c-0.4-1.091-1.17-1.83-2.29-2.131c-2.08-0.54-2.75-2.279-3.6-3.869
			c-0.28-0.53-0.51-1.061-1.16-1.131c-0.65-0.069-1.06,0.351-1.41,0.83c-0.84,1.19-1.45,2.46-1.47,3.931
			c-0.01,0.76-0.34,0.85-1.02,0.729c-0.61-0.1-1.31-0.24-1.69,0.51c-0.19,0.07-0.2,0.221-0.17,0.381
			c-0.16,0.979,0.51,1.619,1.08,2.22c1.45,1.54,1.12,3.359,0.74,5.07c-0.26,1.159-0.43,2.239-0.23,3.409
			c0.44,2.48,0.81,4.971,0.66,7.5c-0.12,2.24-0.01,4.48,0.89,6.591c0.81,1.869,1.73,3.71,2.61,5.56c0.12,0.25,0.24,0.49,0.25,0.79
			c0.05,1.28,0.27,2.5,0.65,3.65c0.19,0.239,0.45,0.539,0.78,0.859c0.37,0.391,0.83,0.8,1.37,1.18c0.25,0.19,0.56,0.381,0.83,0.54
			c0.23,0.101,0.63,0.2,0.97,0.29c0.71,0.181,1.44,0.381,2.11,0.61c0.68,0.23,1.28,0.51,1.78,0.81c0.48,0.301,0.84,0.641,1.03,0.91
			c0.19,0.261,0.24,0.44,0.24,0.44c0.37,0.51,0.6,1.1,0.92,1.63c-0.03,0.16,0.04,0.28,0.16,0.38c0.18,0.67,0.38,1.34,0.53,2.01
			c0.51,2.42,0.52,4.88,0.65,7.33c0.04,0.66,0.07,1.32,0.12,1.98c0.22,2.76-0.29,5.319-2.11,7.56c-0.82,1-0.49,1.61,0.78,1.771
			c0.68,0.08,1.35,0.16,2.03,0.12c1.65-0.101,2.12-0.551,2.19-2.141c0.09-2.359,0.05-4.729,0.43-7.08c0.35-2.14,0.86-4.26,1.11-6.43
			c0.22-2.06,0.53-4.12,0.78-6.19c0.07-0.6,0.25-0.79,0.79-0.699l0.01,0.01l0.1,0.01l0.66,0.11c0.5,0.1,1.21,0.2,2.05,0.34
			l1.37,0.189c0.49,0.07,1,0.091,1.53,0.16c0.53,0.07,1.08,0.061,1.63,0.12c0.56,0.05,1.12,0.01,1.68,0.03
			c0.55,0.02,1.14-0.021,1.7-0.021l1.65-0.06c1.08-0.03,2.09-0.04,2.96,0.03c0.88,0.06,1.62,0.27,2.07,0.52
			c0.22,0.13,0.38,0.26,0.46,0.36l0.14,0.14c-0.03-0.02-0.08-0.05-0.16-0.109c-0.11-0.08-0.29-0.16-0.51-0.24
			c-0.46-0.19-1.16-0.25-2-0.21c-0.85,0.02-1.84,0.12-2.92,0.21c-0.53,0.03-1.09,0.09-1.66,0.109l-0.61,0.04
			c0.01,0.021,0.01,0.04,0.02,0.07c0.17,0.771,0.7,1.34,1.2,1.91c1.5,1.7,2.8,3.54,4.07,5.41c0.99,1.45,1.23,3.029,0.71,4.7
			c-0.3,0.96-0.71,1.89-1.01,2.85c-0.22,0.72-0.61,1.17-1.37,1.41c-0.63,0.2-1.29,0.46-1.56,1.17c-0.18,0.49-0.14,0.8,0.51,0.79
			c1.17-0.021,2.33-0.05,3.49-0.01c0.65,0.02,1-0.21,1.25-0.78c1.1-2.561,1.98-5.19,2.86-7.82c0.41-1.189,0.14-2.149-0.77-3.09
			c-1.66-1.77-1.52-4.01-1.53-6.4c0.9,0.94,1.66,1.69,2.39,2.471c2.11,2.189,4.64,4.029,5.97,6.89c0.35,0.74,0.62,1.48,0.74,2.3
			c0.24,1.641-0.47,3.021-0.95,4.48c-0.2,0.59-0.5,0.96-1.11,1.2c-0.55,0.21-1.16,0.43-1.41,1.069c-0.18,0.471-0.18,0.75,0.48,0.811
			c1.17,0.09,2.31,0.04,3.46-0.24c0.49-0.13,0.76-0.34,0.89-0.84c0.76-2.771,1.28-5.58,1.49-8.45c0.06-0.9-0.14-1.68-0.63-2.42
			c-1.03-1.59-2.12-3.16-2.86-4.91l-0.08-0.38c-0.67-2.45-0.59-5.4,0.13-7.22l0.01-0.03l0.08-0.2c0.11-0.27,0.35-0.8,0.77-1.49
			c0.58-0.96-0.28,1.101-0.14,1.95v0.03c0.05,0.07,0.13,0.11,0.21,0.05c0.7-0.41,0.7,0.24,0.94,0.521
			c0.26,0.319,0.48,0.88,0.77,0.92c0.79,0.1,0.85,0.689,1.14,1.16c0.21,0.359,0.22,1.189,0.98,0.43c0.17-0.18,0.26,0.09,0.32,0.2
			c0.72,1.279,1.92,1.77,3.28,1.449c0.95-0.21,1.64,0.15,2.44,0.37c0.61,0.16,1.5,0.57,1.83,0.181c0.68-0.811,1.1,0.02,1.59,0.06
			c0.64,0.05,1.28,0.14,1.92,0.16c0.15,0,0.41-0.03,0.34-0.21c-0.27-0.72,0.19-0.601,0.61-0.561c0.37,0.021,0.59-0.25,0.59-0.52
			c0-0.62,0.38-0.58,0.82-0.62c0.35-0.03,1.01,0.07,0.91-0.42c-0.2-0.89,0.29-0.8,0.86-0.82c0.28-0.01,0.56-0.12,0.82-0.229
			c0.25-0.11,0.38-0.36,0.37-0.62C288.71,45.217,288.38,45.257,288.2,45.217z"/>
	</g>
	<g>
		<path fill-rule="evenodd" clip-rule="evenodd" fill="#333333" d="M53.38,97.158v1.43c2.07,0,3.56,0.341,4.5,0.971
			c0.95,0.659,1.42,1.77,1.42,3.359c0,1.4-0.38,3.33-1.12,5.73l-8.55,27.6l-9.94-31.75c-0.5-1.49-0.72-2.649-0.72-3.439
			c0-0.681,0.16-1.2,0.52-1.561c0.36-0.34,0.85-0.569,1.48-0.71c0.64-0.13,1.54-0.2,2.73-0.2v-1.43h-8.86
			c-2.82,0-5.05-0.02-6.72-0.11v1.54c1.76,0,3.14,1.5,4.08,4.46l1.83,5.65l-8.39,27.62l-10.14-31.82c-0.5-1.58-0.75-2.76-0.75-3.53
			c0-0.819,0.25-1.409,0.77-1.77s1.4-0.61,2.61-0.7v-1.45c-1.66,0.091-4.17,0.11-7.46,0.11c-3.11,0-5.57-0.02-7.42-0.11v1.54
			c2.19,0,3.79,1.471,4.78,4.4l14.68,44.93h0.57h0.54l11.02-36.71l12.04,36.71h0.54h0.59l13.08-43.21c1.08-3.56,2.9-5.62,5.47-6.21
			v-1.45c-1.39,0.091-3.13,0.11-5.2,0.11H53.38z"/>
		<path fill-rule="evenodd" clip-rule="evenodd" fill="#333333" d="M104.2,96.408c2.84,0,5.41,1.021,7.73,3.04
			c2.32,2.02,4.17,4.87,5.53,8.59c1.35,3.71,2.03,8.021,2.03,12.91c0,4.85-0.61,9.14-1.83,12.9c-1.22,3.76-2.95,6.68-5.19,8.77
			c-2.25,2.1-4.84,3.15-7.8,3.15c-2.84,0-5.43-1-7.75-3.021c-2.35-2.01-4.18-4.89-5.53-8.609c-1.35-3.71-2.03-8.021-2.03-12.91
			c0-4.83,0.61-9.11,1.83-12.87c1.22-3.771,2.95-6.69,5.21-8.8C98.65,97.478,101.24,96.408,104.2,96.408z M104.47,94.988
			c-4.26,0-8.05,1.11-11.39,3.33c-3.33,2.22-5.95,5.32-7.82,9.33c-1.87,4.04-2.8,8.64-2.8,13.85c0,5.351,0.91,9.95,2.71,13.8
			c1.8,3.87,4.37,6.82,7.69,8.86c3.29,2.04,7.14,3.03,11.54,3.03c4.26,0,8.07-1.08,11.41-3.3c3.34-2.23,5.93-5.33,7.8-9.36
			c1.87-4.01,2.82-8.64,2.82-13.85c0-5.32-0.92-9.921-2.73-13.801c-1.82-3.85-4.39-6.79-7.69-8.83
			C112.72,96.007,108.87,94.988,104.47,94.988z"/>
		<path fill-rule="evenodd" clip-rule="evenodd" fill="#333333" d="M163.08,98.587v-1.43h-8.79h-8.86v1.43
			c1.67,0,2.86,0.16,3.63,0.45c0.76,0.32,1.28,0.891,1.55,1.7c0.27,0.82,0.43,2.13,0.43,3.92v35.65c0,1.81-0.16,3.12-0.43,3.939
			c-0.27,0.811-0.79,1.38-1.55,1.67c-0.77,0.32-1.96,0.46-3.63,0.46v1.54h20.09h15.87c-0.32-3.38-0.47-6.41-0.47-9.13
			c0-2.399,0.06-4.35,0.2-5.85h-1.6c-0.36,3.58-0.88,6.3-1.53,8.16c-0.68,1.859-1.76,3.189-3.25,4.029
			c-1.51,0.84-3.7,1.25-6.58,1.25h-5.08c-1.67,0-2.88-0.14-3.63-0.41c-0.76-0.27-1.28-0.819-1.55-1.63
			c-0.3-0.819-0.43-2.13-0.43-3.939v-35.74c0-1.79,0.13-3.1,0.43-3.92c0.27-0.81,0.79-1.38,1.55-1.7
			C160.2,98.748,161.41,98.587,163.08,98.587z"/>
		<path fill-rule="evenodd" clip-rule="evenodd" fill="#333333" d="M226.66,97.158v1.43c2.03,0,3.56,0.341,4.55,1
			c0.99,0.681,1.49,1.74,1.49,3.24c0,1.42-0.47,3.37-1.38,5.82l-11.29,30.109l-12.56-34.279c-0.54-1.431-0.81-2.54-0.81-3.351
			c0-0.949,0.36-1.609,1.12-1.97c0.77-0.37,2.03-0.57,3.79-0.57v-1.43h-8.86c-3.06,0-5.55-0.02-7.42-0.11v1.54
			c2.06,0,3.66,1.471,4.78,4.42l16.91,44.91h0.54h0.57l16.28-43.21c1.31-3.58,3.13-5.64,5.48-6.189v-1.471
			c-1.4,0.091-3.14,0.11-5.21,0.11H226.66z"/>
		<path fill-rule="evenodd" clip-rule="evenodd" fill="#333333" d="M290.3,134.348h-1.6c-0.36,3.26-0.88,5.71-1.54,7.38
			c-0.67,1.68-1.75,2.899-3.24,3.67c-1.51,0.77-3.7,1.14-6.59,1.14h-5.07c-1.67,0-2.89-0.14-3.63-0.41
			c-0.77-0.27-1.28-0.819-1.56-1.63c-0.29-0.819-0.42-2.13-0.42-3.95v-17.31h4.6c1.87,0,3.33,0.55,4.37,1.63
			c1.04,1.09,1.65,2.7,1.87,4.83c0.2,2.13,0.34,3.38,0.38,3.72h1.61c-0.28-4.35-0.41-7.729-0.41-10.149l-0.05-3.431
			c0-2.13,0.07-4.37,0.25-6.729h-1.6c-0.07,0.41-0.18,1.32-0.36,2.68c-0.18,1.38-0.65,2.74-1.42,4.05
			c-0.77,1.32-2.32,1.98-4.64,1.98h-4.6v-17.18c0-1.811,0.13-3.15,0.42-3.971c0.28-0.81,0.79-1.35,1.56-1.649
			c0.74-0.271,1.96-0.431,3.63-0.431h5.75c2.43,0,4.24,0.391,5.46,1.13c1.21,0.75,2.07,1.95,2.57,3.58
			c0.49,1.66,0.92,4.17,1.28,7.53h1.58c-0.14-1.16-0.2-2.72-0.2-4.72c0-2.65,0.15-5.641,0.47-8.95H274.7h-20.09v1.43
			c1.66,0,2.86,0.16,3.63,0.45c0.76,0.32,1.28,0.891,1.55,1.7c0.27,0.82,0.43,2.13,0.43,3.95v35.75c0,1.81-0.16,3.149-0.43,3.97
			c-0.27,0.81-0.79,1.38-1.55,1.67c-0.77,0.32-1.97,0.46-3.63,0.46v1.38h20.09h15.87c-0.32-3.22-0.48-6.1-0.48-8.68
			C290.09,137.198,290.16,135.568,290.3,134.348z"/>
		<path fill-rule="evenodd" clip-rule="evenodd" fill="#333333" d="M325.9,121.818h-4.67v-17.23c0-1.649,0.14-2.899,0.41-3.729
			c0.27-0.84,0.77-1.43,1.49-1.771c0.72-0.319,1.8-0.5,3.25-0.5c4.05,0,6.98,1,8.79,2.95c1.8,1.94,2.7,4.84,2.7,8.65
			c0,2.38-0.33,4.42-1.01,6.1c-0.68,1.67-1.89,3.03-3.65,4.03C331.45,121.318,329.01,121.818,325.9,121.818z M352.01,144.358
			l-1.04-0.84c-0.76,1.09-1.39,1.859-1.89,2.31c-0.5,0.46-1.13,0.66-1.89,0.66c-0.64,0-1.18-0.2-1.58-0.61
			c-0.43-0.41-0.79-1.04-1.08-1.899c-0.32-0.87-0.61-2.04-0.91-3.58l-1.71-7.57c-0.45-2.13-1.06-3.83-1.78-5.12
			c-0.74-1.27-1.74-2.29-2.98-3.04c-1.24-0.72-2.88-1.29-4.96-1.649l-0.83-0.141c3.25-0.5,5.86-1.47,7.89-2.97
			c2.01-1.47,3.43-3.15,4.28-5.01c0.86-1.851,1.29-3.69,1.29-5.521c0-2.34-0.63-4.42-1.9-6.26c-1.26-1.83-3.15-3.28-5.65-4.35
			c-2.51-1.061-5.55-1.61-9.16-1.61h-4.49h-5.97h-8.46v1.43c1.67,0,2.87,0.16,3.63,0.45c0.77,0.32,1.29,0.891,1.56,1.7
			c0.27,0.82,0.43,2.13,0.43,3.95v35.71c0,1.81-0.16,3.149-0.43,3.96c-0.27,0.82-0.79,1.38-1.56,1.68
			c-0.76,0.32-1.96,0.45-3.63,0.45v1.43h8.87h8.79v-1.43c-1.67,0-2.89-0.13-3.63-0.45c-0.77-0.32-1.29-0.89-1.56-1.75
			c-0.29-0.84-0.43-2.189-0.43-4.05v-17h6.61c1.71,0,3.07,0.41,4.06,1.229c0.99,0.811,1.71,1.9,2.21,3.261
			c0.47,1.359,0.99,3.31,1.53,5.819l1.54,7.23c0.63,2.95,1.55,4.99,2.77,6.14c1.22,1.13,2.77,1.721,4.67,1.721
			c1.71,0,3.11-0.341,4.17-0.99C349.85,146.967,350.93,145.877,352.01,144.358z"/>
		<path fill-rule="evenodd" clip-rule="evenodd" fill="#333333" d="M384.14,98.587v-1.43h-8.79h-8.86v1.43
			c1.67,0,2.86,0.16,3.63,0.45c0.77,0.32,1.28,0.891,1.55,1.7c0.28,0.82,0.43,2.13,0.43,3.95v35.71c0,1.81-0.15,3.149-0.43,3.96
			c-0.27,0.82-0.78,1.38-1.55,1.68c-0.77,0.32-1.96,0.45-3.63,0.45v1.43h8.86h8.79v-1.43c-1.67,0-2.88-0.13-3.63-0.45
			c-0.76-0.3-1.28-0.859-1.55-1.68c-0.3-0.811-0.43-2.15-0.43-3.96v-35.71c0-1.82,0.13-3.13,0.43-3.95c0.27-0.81,0.79-1.38,1.55-1.7
			C381.26,98.748,382.47,98.587,384.14,98.587z"/>
		<path fill-rule="evenodd" clip-rule="evenodd" fill="#333333" d="M445.87,98.587v-1.649c-1.53,0.149-3.68,0.22-6.43,0.22
			c-3.06,0-5.43-0.07-7.05-0.22v1.649c1.8,0,3.15,0.23,4.03,0.63c0.88,0.41,1.47,1.091,1.78,2.021c0.32,0.95,0.48,2.36,0.48,4.22
			v30.971l-24.47-39.471c-1.53,0.13-3.33,0.2-5.41,0.2c-2.77,0-4.91-0.07-6.42-0.22v1.649c1.66,0,2.86,0.16,3.63,0.45
			c0.76,0.32,1.28,0.891,1.55,1.7c0.27,0.82,0.43,2.13,0.43,3.95v35.12c0,1.85-0.16,3.26-0.45,4.189c-0.29,0.95-0.84,1.63-1.6,2.04
			c-0.77,0.41-1.96,0.61-3.56,0.61v1.27h6.42h7.08v-1.27c-1.85,0-3.2-0.2-4.06-0.61c-0.85-0.41-1.44-1.07-1.76-2
			c-0.31-0.93-0.47-2.31-0.47-4.14v-37.681l29.09,45.7h1.57v-42.58c0-1.81,0.14-3.189,0.43-4.12c0.3-0.93,0.84-1.609,1.63-2.02
			C443.07,98.788,444.27,98.587,445.87,98.587z"/>
		<path fill-rule="evenodd" clip-rule="evenodd" fill="#333333" d="M499.39,134.348h-1.6c-0.37,3.26-0.88,5.71-1.54,7.38
			c-0.67,1.68-1.76,2.899-3.24,3.67c-1.52,0.77-3.7,1.14-6.59,1.14h-5.07c-1.67,0-2.89-0.14-3.63-0.41
			c-0.77-0.27-1.29-0.819-1.56-1.63c-0.29-0.819-0.43-2.13-0.43-3.95v-17.31h4.6c1.88,0,3.34,0.55,4.38,1.63
			c1.04,1.09,1.64,2.7,1.87,4.83c0.2,2.13,0.34,3.38,0.38,3.72h1.6c-0.27-4.35-0.4-7.729-0.4-10.149l-0.05-3.431
			c0-2.13,0.07-4.37,0.25-6.729h-1.6c-0.07,0.41-0.18,1.32-0.36,2.68c-0.18,1.38-0.65,2.74-1.42,4.05
			c-0.77,1.32-2.32,1.98-4.65,1.98h-4.6v-17.18c0-1.811,0.14-3.15,0.43-3.971c0.27-0.81,0.79-1.35,1.56-1.649
			c0.74-0.271,1.96-0.431,3.63-0.431h5.75c2.43,0,4.24,0.391,5.45,1.13c1.22,0.75,2.08,1.95,2.57,3.58c0.5,1.66,0.93,4.17,1.29,7.53
			h1.58c-0.14-1.16-0.2-2.72-0.2-4.72c0-2.65,0.15-5.641,0.47-8.95h-14.48h-20.09v1.43c1.67,0,2.87,0.16,3.63,0.45
			c0.77,0.32,1.29,0.891,1.56,1.7c0.27,0.82,0.43,2.13,0.43,3.95v35.75c0,1.81-0.16,3.149-0.43,3.97c-0.27,0.81-0.79,1.38-1.56,1.67
			c-0.76,0.32-1.96,0.46-3.63,0.46v1.38h20.09h15.88c-0.32-3.22-0.48-6.1-0.48-8.68C499.18,137.198,499.25,135.568,499.39,134.348z"
			/>
	</g>
	<rect y="67.627" fill-rule="evenodd" clip-rule="evenodd" fill="#9A5A58" width="202.9" height="3.37"/>
	<rect x="297.1" y="67.627" fill-rule="evenodd" clip-rule="evenodd" fill="#9A5A58" width="202.9" height="3.37"/>
	<rect y="180.728" fill-rule="evenodd" clip-rule="evenodd" fill="#9A5A58" width="500" height="3.37"/>
</g>
</svg>
