<?xml version="1.0" encoding="utf-8"?>
<!-- Generator: Adobe Illustrator 16.0.0, SVG Export Plug-In . SVG Version: 6.00 Build 0)  -->
<!DOCTYPE svg PUBLIC "-//W3C//DTD SVG 1.1//EN" "http://www.w3.org/Graphics/SVG/1.1/DTD/svg11.dtd">
<svg version="1.1" id="Layer_1" xmlns="http://www.w3.org/2000/svg" xmlns:xlink="http://www.w3.org/1999/xlink" x="0px" y="0px"
	 width="500px" height="162.001px" viewBox="0 0 500 162.001" enable-background="new 0 0 500 162.001" xml:space="preserve">
<g>
	<g>
		<path fill="#FFFFFF" d="M1.1,152.661c0.29,0.54,0.8,1.32,1.51,2.35c0.7,1.03,1.54,2.061,2.49,3.091
			c0.96,1.029,1.96,1.939,3.01,2.72c1.05,0.79,2.07,1.18,3.05,1.18c0.14,0,0.42-0.04,0.84-0.109c0.42-0.07,0.89-0.23,1.43-0.48
			c10.33-4.32,21.68-12.82,34.06-25.53l-0.26,6.96c-0.07,2.08-0.11,3.811-0.11,5.181c0,0.489,0.06,1.02,0.19,1.58
			c0.12,0.569,0.25,1.13,0.4,1.699c0.15,0.561,0.31,1.061,0.48,1.5c0.17,0.44,0.3,0.761,0.4,0.96c0.29,0.54,0.77,1.261,1.43,2.171
			c0.66,0.909,1.42,1.819,2.28,2.72c0.85,0.91,1.78,1.689,2.79,2.359c1,0.66,1.99,0.99,2.97,0.99c0.15,0,0.41-0.04,0.81-0.109
			c0.39-0.07,0.83-0.23,1.32-0.48c3.67-1.57,7.82-4.04,12.44-7.43c4.62-3.38,9.39-7.511,14.31-12.4
			c4.92-4.87,9.81-10.43,14.68-16.66c4.87-6.229,9.41-12.96,13.62-20.189c4.21-7.24,7.9-14.91,11.08-23.03
			c3.18-8.11,5.53-16.49,7.05-25.12l-21.8-21.56c0.05,0.25,0.13,0.609,0.25,1.069c0.13,0.471,0.26,1.12,0.41,1.95
			c0.15,0.84,0.27,1.851,0.37,3.05c0.09,1.21,0.14,2.641,0.14,4.311c0,5.83-0.61,11.979-1.83,18.43
			c-1.23,6.45-2.95,12.97-5.18,19.561c-2.22,6.6-4.9,13.109-8.03,19.54c-3.14,6.42-6.59,12.489-10.35,18.199
			c-3.77,5.721-7.82,10.96-12.15,15.75c-4.33,4.78-8.82,8.811-13.47,12.101c-0.05-0.54-0.07-1.19-0.07-1.95v-2.61
			c0-3.04,0.09-6.08,0.29-9.12c0.19-3.05,0.42-5.819,0.66-8.319c0.29-2.891,0.64-5.69,1.03-8.38c1.37-1.971,2.63-3.83,3.78-5.601
			c1.15-1.76,2.14-3.54,2.97-5.33c0.83-1.79,1.47-3.66,1.91-5.63c0.44-1.96,0.66-4.12,0.66-6.47c0-0.98-0.12-1.75-0.37-2.32
			c-0.24-0.56-0.49-0.99-0.73-1.29c-0.49-0.63-1.29-1.529-2.39-2.68c-1.1-1.15-2.27-2.311-3.52-3.46c-1.25-1.15-2.47-2.14-3.67-2.98
			c-1.2-0.83-2.12-1.25-2.75-1.25c-1.42,0-2.7,1.091-3.82,3.28c-1.13,2.18-2.13,5.03-3.01,8.57c-0.88,3.529-1.65,7.51-2.31,11.95
			c-0.66,4.439-1.21,8.939-1.65,13.5c-4.7,6.52-9.96,12.5-15.78,17.909c-5.83,5.42-11.94,10.091-18.35,14.021
			c1.46-6.08,3.08-12.7,4.84-19.86c1.76-7.16,3.66-14.6,5.69-22.3c2.03-7.69,4.21-15.54,6.53-23.54c2.33-7.99,4.81-15.86,7.45-23.61
			c-1.08-1.52-2.07-2.869-2.97-4.05c-0.91-1.17-1.93-2.5-3.08-3.97s-2.32-2.93-3.49-4.38c-1.17-1.44-2.3-2.8-3.38-4.08
			c-1.07-1.271-1.98-2.311-2.71-3.09c-2.2,6.87-4.31,13.92-6.31,21.149c-2.01,7.24-3.89,14.36-5.66,21.37
			c-1.76,7.01-3.34,13.811-4.73,20.38c-1.4,6.57-2.61,12.65-3.63,18.24c-1.03,5.59-1.82,10.561-2.35,14.9
			c-0.54,4.34-0.81,7.79-0.81,10.34c0,0.979,0.12,1.85,0.37,2.61C0.61,151.691,0.86,152.261,1.1,152.661z"/>
		<path fill="#FFFFFF" d="M370.85,92.481c0.81,0.59,1.78,1.189,2.93,1.8c1.149,0.62,2.35,1.17,3.6,1.66s2.31,0.76,3.19,0.81
			c0.3,0,0.69-0.31,1.18-0.92c0.49-0.62,1-1.39,1.54-2.32c0.54-0.93,1.09-1.949,1.65-3.05c0.56-1.109,1.06-2.16,1.5-3.17
			c0.45-1,0.82-1.88,1.14-2.649c0.32-0.761,0.5-1.23,0.55-1.431c0-0.29-0.43-0.8-1.28-1.51c-0.86-0.71-1.89-1.43-3.08-2.17
			c-1.2-0.73-2.44-1.38-3.71-1.95c-1.27-0.56-2.35-0.84-3.23-0.84c-0.44,0-1.06,0.56-1.87,1.69c-0.81,1.13-1.61,2.46-2.39,4.01
			c-0.78,1.54-1.47,3.14-2.05,4.779c-0.59,1.641-0.88,2.98-0.88,4.011C369.64,91.471,370.04,91.892,370.85,92.481z"/>
		<path fill-rule="evenodd" clip-rule="evenodd" fill="#FFFFFF" d="M196.16,94.981c0.71-1.771,1.48-3.58,2.31-5.44
			c2.99-6.87,5.89-12.74,8.7-17.62s5.36-8.89,7.63-12.029c2.28-3.141,4.2-5.431,5.77-6.881c1.56-1.439,2.57-2.17,3.01-2.17
			c0.24,0,0.37,0.061,0.4,0.181c0.02,0.13,0.04,0.31,0.04,0.56c0,0.88-0.38,2.34-1.14,4.37c-0.76,2.04-1.95,4.59-3.56,7.65
			c-1.62,3.069-3.67,6.609-6.17,10.64c-2.49,4.02-5.45,8.43-8.88,13.24c-0.83,1.17-1.76,2.42-2.79,3.75
			c-0.88,1.13-1.94,2.479-3.19,4.05c-1.25,1.56-2.63,3.21-4.15,4.92C194.78,98.491,195.45,96.751,196.16,94.981z M278.41,123.781
			c1.07-2.23,2.2-4.2,3.37-5.92c1.18-1.72,2.35-3.101,3.53-4.16c1.17-1.05,2.25-1.58,3.23-1.58c0.53,0,0.94,0.17,1.21,0.521
			c0.26,0.34,0.4,0.729,0.4,1.17c0,1.52-0.42,3.04-1.25,4.569c-0.83,1.511-1.93,3-3.3,4.45c-1.37,1.44-2.93,2.83-4.66,4.15
			c-1.74,1.33-3.51,2.58-5.32,3.75C276.4,128.331,277.33,126.011,278.41,123.781z M464.03,123.781c1.08-2.23,2.21-4.2,3.38-5.92
			s2.35-3.101,3.52-4.16c1.18-1.05,2.25-1.58,3.23-1.58c0.54,0,0.94,0.17,1.21,0.521c0.27,0.34,0.41,0.729,0.41,1.17
			c0,1.52-0.42,3.04-1.25,4.569c-0.83,1.511-1.93,3-3.3,4.45c-1.37,1.44-2.93,2.83-4.66,4.15c-1.74,1.33-3.52,2.58-5.33,3.75
			C462.03,128.331,462.96,126.011,464.03,123.781z M496.4,126.911c-2.4,2.25-4.82,4.49-7.26,6.69c-2.45,2.21-4.99,4.17-7.64,5.89
			c-2.64,1.72-5.39,3.11-8.25,4.19c-2.87,1.079-5.91,1.619-9.14,1.619c-1.81,0-3.05-0.27-3.71-0.81c-0.66-0.54-0.99-1.57-0.99-3.09
			c0-1.13,0.07-2.28,0.22-3.46c4.31-1.91,8.24-3.811,11.82-5.7c3.57-1.88,6.63-3.74,9.17-5.55c2.55-1.82,4.52-3.59,5.91-5.34
			c1.399-1.74,2.09-3.44,2.09-5.11c0-1.03-0.38-2.24-1.13-3.64c-0.76-1.4-1.75-2.73-2.98-4.011c-1.22-1.27-2.58-2.35-4.07-3.239
			c-1.49-0.881-3-1.32-4.52-1.32c-2.1,0-4.4,0.34-6.89,1.03c-2.5,0.689-5.01,1.72-7.53,3.09s-4.94,3.09-7.27,5.149
			c-2.32,2.061-4.39,4.44-6.2,7.131c-1.811,2.699-3.26,5.729-4.36,9.09c-0.31,0.92-0.56,1.87-0.78,2.84l-0.03,0.03
			c-1.4,1.199-2.85,2.42-4.37,3.64c-1.521,1.229-2.97,2.36-4.37,3.38c-1.39,1.03-2.63,1.87-3.7,2.51c-1.08,0.63-1.89,0.95-2.43,0.95
			c-0.29,0-0.44-0.14-0.44-0.439c0-0.54,0.17-1.4,0.52-2.57c0.34-1.18,0.78-2.55,1.32-4.12c0.54-1.57,1.15-3.25,1.83-5.04
			l2.061-5.37c0.68-1.79,1.33-3.52,1.939-5.189c0.62-1.671,1.12-3.11,1.51-4.341c0.1-0.34,0.17-0.63,0.22-0.85
			c0.05-0.22,0.07-0.4,0.07-0.55c0-0.73-0.47-1.59-1.43-2.57c-0.95-0.979-2.08-1.939-3.37-2.87c-1.3-0.93-2.59-1.72-3.86-2.359
			c-1.27-0.631-2.23-0.95-2.86-0.95c-0.54,0-1.29,0.229-2.24,0.7c-0.95,0.46-2.2,1.33-3.74,2.609c-1.54,1.271-3.43,3.03-5.65,5.26
			c-2.23,2.23-4.89,5.11-7.97,8.641c0.59-1.71,1.18-3.38,1.76-5c0.59-1.62,1.18-3.21,1.76-4.78c-2.15-1.92-4.49-3.58-7.01-5
			c-2.52-1.43-4.8-2.63-6.86-3.61c-1.27,2.851-2.46,5.801-3.56,8.87c-1.1,3.061-2.11,6.061-3.04,9.011
			c-0.73,2.3-1.4,4.52-2.01,6.649l-0.12,0.12c-1.13,0.98-2.39,2.07-3.78,3.271c-1.4,1.199-2.85,2.42-4.37,3.64
			c-1.52,1.229-2.97,2.36-4.37,3.38c-1.39,1.03-2.63,1.87-3.7,2.51c-1.08,0.63-1.89,0.95-2.43,0.95c-0.29,0-0.44-0.14-0.44-0.439
			c0-0.54,0.17-1.4,0.52-2.57c0.34-1.18,0.78-2.55,1.32-4.12c0.54-1.57,1.15-3.25,1.83-5.04l2.06-5.37
			c0.68-1.79,1.33-3.52,1.94-5.189c0.61-1.671,1.12-3.11,1.51-4.341c0.09-0.34,0.17-0.63,0.22-0.85s0.07-0.4,0.07-0.55
			c0-0.73-0.51-1.601-1.54-2.61c-1.03-1-2.19-1.96-3.49-2.87c-1.29-0.91-2.53-1.68-3.7-2.319c-1.18-0.631-1.91-0.95-2.2-0.95
			c-0.2,0-0.62,0.66-1.25,1.979c-0.64,1.33-1.39,3.07-2.24,5.23c-0.86,2.16-1.811,4.62-2.86,7.39c-0.84,2.22-1.65,4.48-2.42,6.771
			l-0.12-0.11c-0.58,0.49-1.44,1.23-2.57,2.21c-1.12,0.98-2.38,2.07-3.77,3.271c-1.4,1.199-2.86,2.42-4.37,3.64
			c-1.52,1.229-2.97,2.36-4.37,3.38c-1.39,1.03-2.63,1.87-3.71,2.51c-1.07,0.63-1.88,0.95-2.42,0.95c-0.29,0-0.44-0.14-0.44-0.439
			c0-0.83,0.31-2.211,0.92-4.12c0.61-1.91,1.36-4.04,2.24-6.4c0.88-2.35,1.8-4.76,2.75-7.21c0.95-2.45,1.75-4.63,2.38-6.55
			c0.15-0.44,0.14-0.95-0.03-1.54c-0.17-0.59-0.58-1.08-1.21-1.47c-1.76-1.33-3.62-2.631-5.58-3.9c-1.67-1.13-3.5-2.32-5.51-3.57
			c-2-1.25-3.96-2.37-5.87-3.35c-0.05-1.12-0.1-2.08-0.14-2.86c-0.05-0.79-0.1-1.3-0.149-1.55c-0.15-0.29-0.49-0.64-1.03-1.03
			c-0.54-0.39-1.13-0.75-1.76-1.069c-0.64-0.32-1.24-0.601-1.8-0.841c-0.56-0.25-0.89-0.369-0.99-0.369c-0.15,0-0.48,0.31-0.99,0.92
			c-0.51,0.609-1.12,1.41-1.8,2.39c-0.68,0.98-1.39,2.07-2.13,3.271c-0.73,1.199-1.42,2.38-2.05,3.529
			c-0.64,1.16-1.17,2.24-1.58,3.24c-0.42,1.01-0.62,1.78-0.62,2.32c0,0.489,0.14,0.81,0.439,0.949c0.63,0.5,1.36,1.04,2.2,1.62
			c0.68,0.54,1.51,1.141,2.49,1.811c0.98,0.66,2.08,1.359,3.31,2.09c-1.72,1.77-3.47,3.52-5.25,5.26l-3.1,3.01l-0.09-0.1
			c-2.4,2.25-4.83,4.49-7.271,6.69c-2.45,2.21-4.99,4.17-7.64,5.89c-2.64,1.72-5.39,3.11-8.25,4.19
			c-2.87,1.079-5.91,1.619-9.14,1.619c-1.81,0-3.05-0.27-3.71-0.81c-0.66-0.54-0.99-1.57-0.99-3.09c0-1.13,0.07-2.28,0.22-3.46
			c4.31-1.91,8.25-3.811,11.82-5.7c3.57-1.88,6.63-3.74,9.17-5.55c2.55-1.82,4.52-3.59,5.91-5.34c1.4-1.74,2.09-3.44,2.09-5.11
			c0-1.03-0.38-2.24-1.13-3.64c-0.76-1.4-1.75-2.73-2.98-4.011c-1.22-1.27-2.58-2.35-4.07-3.239c-1.49-0.881-3-1.32-4.51-1.32
			c-2.11,0-4.41,0.34-6.9,1.03c-2.5,0.689-5.01,1.72-7.53,3.09s-4.94,3.09-7.26,5.149c-2.33,2.061-4.4,4.44-6.21,7.131
			c-1.81,2.699-3.26,5.729-4.36,9.09c-0.29,0.88-0.54,1.79-0.75,2.72c-0.45,0.28-0.89,0.56-1.34,0.81
			c-1.38,0.761-2.82,1.341-4.34,1.73c-1.51,0.39-3.25,0.59-5.21,0.59c-0.44,0-0.82-0.04-1.13-0.11c-0.32-0.079-0.63-0.159-0.92-0.26
			c1.42-1.77,2.73-3.52,3.93-5.26c1.189-1.74,2.22-3.41,3.08-5c0.85-1.6,1.53-3.08,2.02-4.45c0.49-1.37,0.73-2.58,0.73-3.609
			c-0.1-0.54-0.48-1.211-1.14-2.021c-0.66-0.81-1.5-1.64-2.53-2.5s-2.15-1.67-3.38-2.43c-1.22-0.761-2.4-1.36-3.52-1.8
			c-0.54,0.489-1.14,1.25-1.8,2.279c-0.66,1.03-1.34,2.23-2.05,3.601c-0.71,1.38-1.4,2.859-2.06,4.449
			c-0.66,1.601-1.26,3.181-1.8,4.75c-0.53,1.57-0.96,3.08-1.28,4.521c-0.32,1.45-0.48,2.689-0.48,3.72c0,1.521,0.44,3.04,1.32,4.561
			c-1.02,1.229-2.09,2.39-3.19,3.489c-1.1,1.11-2.19,2.061-3.271,2.87c-1.07,0.811-2.09,1.46-3.04,1.95
			c-0.96,0.49-1.83,0.74-2.61,0.74c-0.39,0-0.67-0.16-0.84-0.48c-0.17-0.319-0.26-0.67-0.26-1.069c0-0.58,0.12-1.551,0.37-2.9
			c0.24-1.35,0.59-2.91,1.03-4.67c0.44-1.771,0.95-3.68,1.54-5.74c0.58-2.06,1.22-4.12,1.91-6.18c0.68-2.061,1.39-4.05,2.12-5.96
			c0.74-1.91,1.47-3.601,2.21-5.08c-2.06-1.86-4.27-3.48-6.65-4.85c-2.37-1.37-4.8-2.631-7.3-3.75c-1.03,2.84-2.12,5.8-3.27,8.859
			c-1.15,3.07-2.2,6.19-3.15,9.38c-0.6,2-1.13,4.021-1.6,6.05l-0.86,0.721c-1.23,1.029-2.61,2.16-4.15,3.38
			c-1.54,1.229-3.19,2.479-4.95,3.76c-1.76,1.271-3.45,2.44-5.07,3.49c-1.61,1.05-3.09,1.92-4.44,2.61
			c-1.34,0.689-2.41,1.029-3.19,1.029c-0.44,0-0.78-0.22-1.03-0.66c-0.24-0.439-0.37-1.42-0.37-2.939c0-2.311,0.29-5.521,0.85-9.641
			c0.561-4.119,1.55-8.88,2.97-14.27c2.84-2.65,5.6-5.42,8.3-8.32c2.69-2.89,5.06-5.56,7.12-8.01c2.39-2.85,4.67-5.64,6.82-8.39
			c4.6-5.891,8.33-11.04,11.2-15.45c2.86-4.41,5.1-8.2,6.71-11.37c1.62-3.16,2.72-5.77,3.3-7.83c0.59-2.06,0.89-3.68,0.89-4.86
			c0-0.59-0.07-1.06-0.19-1.43s-0.38-0.75-0.77-1.14c-0.29-0.34-0.76-0.87-1.39-1.58c-0.64-0.71-1.38-1.44-2.21-2.17
			c-0.83-0.74-1.72-1.44-2.67-2.101c-0.96-0.659-1.9-1.159-2.83-1.51c-0.59,0-1.649,0.351-3.189,1.03
			c-1.54,0.689-3.43,1.82-5.66,3.39c-2.22,1.57-4.73,3.63-7.52,6.181c-2.79,2.55-5.7,5.699-8.73,9.449
			c-3.04,3.75-6.13,8.15-9.29,13.2c-3.15,5.061-6.23,10.84-9.21,17.37c-1.47,3.18-2.88,6.85-4.22,10.99
			c-1.35,4.149-2.53,8.319-3.56,12.51c-1.03,4.19-1.85,8.17-2.46,11.92l-0.1,0.63c-1.75,1.561-3.45,2.78-5.11,3.63
			c-2.52,1.301-5.25,2.051-8.19,2.25c1.28-2.06,2.29-4.14,3.05-6.25c0.76-2.109,1.14-4.22,1.14-6.33c-0.15-0.34-0.53-0.96-1.14-1.84
			c-0.61-0.88-1.32-1.85-2.13-2.91c-0.8-1.05-1.61-2.079-2.42-3.09c-0.81-1-1.46-1.8-1.95-2.39l-0.44,0.439
			c-1.17,1.131-2.25,2.351-3.22,3.65c-0.98,1.3-1.82,2.51-2.5,3.64c-0.83,1.271-1.54,2.57-2.13,3.9c-0.88,1.71-1.43,3.25-1.65,4.59
			c-0.22,1.351-0.33,2.521-0.33,3.5c0,0.34,0.01,0.72,0.04,1.141c0.02,0.42,0.08,0.899,0.18,1.43c-2.01,2.75-3.94,5.02-5.8,6.81
			c-1.86,1.79-3.35,2.681-4.48,2.681c-1.07,0-1.61-0.73-1.61-2.2c0-1.771,0.46-4.26,1.39-7.47s2.72-6.811,5.36-10.78
			c1.76-2.69,3.38-4.86,4.85-6.51c1.46-1.641,2.74-2.9,3.81-3.79c1.08-0.88,1.93-1.5,2.57-1.87c0.64-0.37,1-0.681,1.1-0.92
			c0-0.2-0.22-0.601-0.66-1.221c-0.44-0.609-0.99-1.229-1.65-1.869c-0.66-0.641-1.37-1.221-2.13-1.73
			c-0.76-0.52-1.48-0.77-2.16-0.77c-0.25,0-0.55,0.02-0.92,0.069c-0.37,0.05-0.62,0.12-0.77,0.22c-4.55,1.28-8.48,3.141-11.78,5.591
			c-3.31,2.449-6.02,5.29-8.15,8.5c-2.13,3.21-3.69,6.659-4.7,10.34c-1,3.67-1.5,7.38-1.5,11.1c0,1.13,0.41,2.431,1.25,3.9
			c0.83,1.47,1.88,2.859,3.15,4.16c1.27,1.3,2.69,2.39,4.26,3.27c1.56,0.89,3.08,1.33,4.55,1.33c1.76,0,3.62-0.3,5.58-0.89
			s3.93-1.42,5.91-2.5s3.92-2.351,5.83-3.82c1.91-1.47,3.7-3.09,5.36-4.86c2.15,0,4.26-0.18,6.31-0.55c2.06-0.37,4.08-0.97,6.06-1.8
			c1.66-0.7,3.33-1.62,5-2.74c-0.03,0.57-0.05,1.12-0.05,1.641v1.35c0,0.42,0.05,0.78,0.15,1.07c0.15,0.739,0.73,1.84,1.76,3.31
			c1.03,1.47,2.28,2.93,3.74,4.38c1.47,1.45,3.05,2.71,4.74,3.79s3.29,1.62,4.81,1.62c1.12,0,2.52-0.4,4.18-1.18
			c1.66-0.79,3.46-1.82,5.4-3.09c1.93-1.271,3.91-2.721,5.94-4.341c2.03-1.619,3.99-3.239,5.87-4.859c0.91-0.78,1.79-1.55,2.64-2.32
			c-0.17,1.66-0.25,3.32-0.25,4.97c0,1.33,0.5,2.641,1.5,3.94c1.01,1.3,2.18,2.45,3.53,3.46c1.34,1,2.71,1.82,4.11,2.46
			c1.39,0.64,2.46,0.96,3.19,0.96c1.47-0.1,3.03-0.49,4.7-1.18c1.66-0.69,3.351-1.61,5.061-2.761c1.71-1.149,3.45-2.479,5.21-3.97
			c1.76-1.5,3.45-3.1,5.07-4.819c1.51,0.689,3.3,1.029,5.36,1.029c2,0,3.91-0.2,5.72-0.59c1.79-0.39,3.57-1.01,5.34-1.85
			c-0.03,0.68-0.05,1.37-0.05,2.069c0,1.08,0.46,2.38,1.39,3.9c0.93,1.52,2.09,2.979,3.49,4.38c1.39,1.4,2.9,2.58,4.51,3.57
			c1.62,0.979,3.08,1.47,4.41,1.47c3.13,0,6.34-0.4,9.65-1.18c3.3-0.79,6.76-2.08,10.38-3.9c3.62-1.81,7.43-4.22,11.42-7.21
			c3.53-2.65,7.26-5.86,11.2-9.62l0.06,0.061c0.79-0.74,1.67-1.551,2.65-2.431c0.97-0.88,1.95-1.79,2.93-2.72s1.95-1.86,2.9-2.8
			c0.96-0.93,1.82-1.811,2.61-2.65l1.61,0.891c0.54,0.29,1.1,0.56,1.69,0.81l-1.1,2.42c-0.49,1.08-1.05,2.49-1.69,4.23
			c-0.64,1.75-1.32,3.84-2.05,6.29c-0.74,2.46-1.47,5.33-2.21,8.609c0,0.88,0.37,1.79,1.1,2.721c0.74,0.939,1.62,1.779,2.65,2.539
			c1.02,0.761,2.1,1.4,3.229,1.91c1.12,0.521,2.05,0.78,2.79,0.78c1.12,0,2.51-0.4,4.18-1.18c1.66-0.79,3.46-1.82,5.39-3.09
			c1.94-1.271,3.92-2.721,5.95-4.341c2.03-1.619,3.99-3.239,5.87-4.859c1.07-0.91,2.09-1.82,3.07-2.71l-0.24,0.8
			c-0.83,2.8-1.5,5.27-1.98,7.43c0,0.88,0.36,1.79,1.1,2.721c0.73,0.939,1.61,1.779,2.64,2.539c1.03,0.761,2.1,1.4,3.229,1.91
			c1.13,0.521,2.05,0.78,2.79,0.78c1.17,0,2.59-0.4,4.26-1.18c1.66-0.79,3.44-1.82,5.35-3.09c1.91-1.271,3.88-2.721,5.91-4.341
			c2.03-1.619,3.99-3.239,5.87-4.859l1.15-0.99c-0.46,1.95-0.82,3.59-1.07,4.89c-0.27,1.38-0.41,2.21-0.41,2.5
			c0.88,0.94,1.88,1.87,2.98,2.801c1.1,0.93,2.2,1.779,3.3,2.54c1.1,0.76,2.18,1.369,3.23,1.84c1.05,0.46,1.99,0.699,2.82,0.699
			c0.69,0,1.15-0.199,1.4-0.59c0.24-0.39,0.51-0.939,0.81-1.62c2.35-5.54,4.74-10.34,7.19-14.38c2.45-4.05,4.77-7.51,6.97-10.38
			c2.21-2.859,4.17-5.22,5.91-7.06c1.74-1.84,3.07-3.32,4-4.45l0.15-0.15c-0.88,2.21-1.8,4.63-2.75,7.25
			c-0.96,2.63-1.88,5.271-2.76,7.94c-0.88,2.68-1.7,5.29-2.45,7.84c-0.76,2.55-1.36,4.83-1.8,6.84c0,0.88,0.36,1.79,1.1,2.721
			c0.73,0.939,1.62,1.779,2.68,2.539c1.05,0.761,2.14,1.4,3.26,1.91c1.13,0.521,2.06,0.78,2.79,0.78c1.13,0,2.52-0.4,4.19-1.18
			c1.66-0.79,3.45-1.82,5.35-3.09c1.91-1.271,3.88-2.721,5.91-4.341c1.61-1.279,3.16-2.56,4.67-3.84l-0.01,0.38
			c0,1.08,0.47,2.38,1.4,3.9c0.93,1.52,2.09,2.979,3.48,4.38c1.4,1.4,2.9,2.58,4.52,3.57c1.61,0.979,3.08,1.47,4.4,1.47
			c3.13,0,6.35-0.4,9.66-1.18c3.3-0.79,6.76-2.08,10.38-3.9c3.62-1.81,7.43-4.22,11.42-7.21c3.98-2.99,8.23-6.689,12.73-11.11
			L496.4,126.911z"/>
	</g>
	<g>
		<path fill-rule="evenodd" clip-rule="evenodd" fill="#9A5A58" d="M409.61,49.801c-0.58-0.31-1.13-0.659-1.65-1.02
			c0.38-0.14,0.72-0.38,0.96-0.69C409.16,48.661,409.39,49.231,409.61,49.801z M292.74,70.091l0.07-0.06l2.29-2.28
			c0.75-0.71,1.58-1.64,2.66-2.58l3.68-3.069c1.33-1.141,2.93-2.19,4.53-3.41c1.58-1.24,3.44-2.29,5.271-3.5
			c1.8-1.24,3.86-2.23,5.83-3.42c1.99-1.16,4.12-2.15,6.19-3.24c4.21-2.03,8.521-3.88,12.62-5.46c2.04-0.811,4.02-1.58,5.92-2.24
			l5.36-1.88c6.68-2.25,11.13-3.54,11.13-3.54l0.04-0.01c0.06-0.021,0.11-0.07,0.16-0.09c4.08-0.78,8.14-1.551,12.189-2.301
			c-2.05,3.62-3.14,7.78-1.61,11.891c2.42,6.47,9.7,6.52,14.17,10.76c1.45,1.38,3.78,0.01,2.939-1.96
			c-1.56-3.7-2.229-7.34-2.35-11.33c-0.07-2.34,0.06-4.74-0.78-6.979c-0.6-1.58-1.64-3.04-2.96-4.021c6.83-1.11,13.7-2.03,20.7-2.56
			c-6.27,9.89-0.35,22.83,10.93,25.68c1.29,0.32,2.57-0.59,2.311-2.021c-0.5-2.819-1.64-5.199-2.65-7.859
			c-1.54-4.101-0.25-7.29-0.7-11.34c-0.21-1.851-0.99-3.66-2.21-4.891c1.33-0.04,2.66-0.069,4.01-0.08
			c5.76-0.04,11.46,0.21,17.12,0.641c-2.52,3.779-1.85,10,0,13.819c2.41,5.011,7.07,8.051,12.36,9.08
			c1.63,0.32,2.26-1.819,1.44-2.909c-2.97-4.011-0.78-10.181-2.78-14.75c-0.75-1.711-1.78-3.221-3.02-4.511
			c5.3,0.561,10.59,1.261,15.88,2.03c0.3,2.86,2.6,5.18,5.37,6.17c5.12,1.85,10.91-0.92,15.75-2.41c0.23-0.069,0.41-0.18,0.56-0.319
			l0.35,0.29c0.36,0.319,0.74,0.189,0.96-0.101l0.29,0.05c0.91,0.141,1.17-1.279,0.33-1.58c-0.4-0.13-0.81-0.26-1.21-0.39
			c-2.95-3.96-7.48-7.96-12.23-9.06c-3.45-0.801-7.61,0.43-9.39,3.6c-5.53-0.98-11.12-1.68-16.729-2.17
			c1.61-0.79,3.06-1.98,4.12-3.41c3.45-4.689,2.98-10.89,2.51-16.4c-0.11-1.25-1.69-1.829-2.68-1.35
			c-7.01,3.47-13.53,12.28-11.74,20.63c-6.93-0.359-13.84-0.439-20.63-0.3l-2.69,0.07c2-1.25,3.6-3.061,4.52-5.44
			c2.1-5.47-0.52-12.12,3.55-16.81c1.2-1.38-0.771-3.351-2.23-2.61c-5.87,2.99-12.12,6.84-14.05,13.63
			c-1.1,3.86-0.6,8.34,1.89,11.45c-7.8,0.35-15.79,0.99-23.7,2.08c0.81-0.95,1.45-2.061,1.81-3.36c1.84-6.5-4.23-12.58,1.9-18.18
			c1.25-1.13,0.27-3.61-1.52-3.13c-6.36,1.689-13.07,5.85-14.21,12.979c-0.81,5,1.62,10.28,5.96,12.471
			c-0.36,0.09-0.7,0.18-1.11,0.239c-0.21,0.04-0.37,0.11-0.5,0.21c-4.69,0.851-9.31,1.92-13.81,3.2l-0.85,0.19
			c-2.07,0.43-4.99,1.2-8.45,2.27c-3.46,1.04-7.42,2.5-11.6,4.21c-2.11,0.811-4.2,1.891-6.37,2.851c-2.13,1.04-4.29,2.14-6.42,3.27
			c-2.1,1.21-4.24,2.311-6.25,3.601s-4.02,2.479-5.83,3.869c-1.82,1.36-3.65,2.561-5.22,3.95c-1.57,1.37-3.17,2.521-4.439,3.84
			l-3.521,3.5c-1.03,1.061-1.81,2.101-2.51,2.891l-2.15,2.55c-0.33,0.38-0.32,0.96,0.04,1.33
			C291.74,70.471,292.36,70.471,292.74,70.091z"/>
	</g>
</g>
</svg>
