<?xml version="1.0" encoding="utf-8"?>
<!-- Generator: Adobe Illustrator 16.0.0, SVG Export Plug-In . SVG Version: 6.00 Build 0)  -->
<!DOCTYPE svg PUBLIC "-//W3C//DTD SVG 1.1//EN" "http://www.w3.org/Graphics/SVG/1.1/DTD/svg11.dtd">
<svg version="1.1" id="Layer_1" xmlns="http://www.w3.org/2000/svg" xmlns:xlink="http://www.w3.org/1999/xlink" x="0px" y="0px"
	 width="480px" height="44px" viewBox="0 0 480 44" enable-background="new 0 0 480 44" xml:space="preserve">
<g>
	<polygon fill="#9A5A58" points="7.34,1.04 0,1.04 14.09,43.59 20.83,43.59 29.34,14.41 29.81,14.41 38.27,43.59 45.01,43.59 
		59.1,1.04 51.8,1.04 41.62,31.67 32.6,1.04 26.5,1.04 17.48,31.67 	"/>
	<path fill="#9A5A58" d="M120.04,22.021c0-6.25-2.06-11.511-6.14-15.721C109.82,2.13,104.79,0,98.78,0c-6.01,0-11.04,2.13-15.12,6.3
		c-4.08,4.21-6.1,9.471-6.1,15.721c0,6.26,2.02,11.51,6.1,15.68c4.08,4.22,9.11,6.3,15.12,6.3c6.01,0,11.04-2.08,15.12-6.3
		C117.98,33.529,120.04,28.279,120.04,22.021z M113.04,22.021c0,4.26-1.37,7.93-4.12,10.92s-6.15,4.49-10.14,4.49
		c-3.99,0-7.35-1.5-10.09-4.49c-2.75-2.99-4.13-6.66-4.13-10.92c0-4.261,1.38-7.931,4.13-10.92c2.74-2.99,6.1-4.53,10.09-4.53
		c3.99,0,7.39,1.54,10.14,4.53C111.67,14.09,113.04,17.76,113.04,22.021z"/>
	<polygon fill="#9A5A58" points="168.63,43.59 168.63,36.75 150.2,36.75 150.2,1.04 143.37,1.04 143.37,43.59 	"/>
	<polygon fill="#9A5A58" points="225.45,1.04 217.81,1.04 205.39,32.811 192.98,1.04 185.38,1.04 201.61,43.59 209.22,43.59 	"/>
	<polygon fill="#9A5A58" points="245.939,1.04 245.939,43.59 274.98,43.59 274.98,36.84 252.77,36.84 252.77,25.42 272.1,25.42 
		272.1,19.03 252.77,19.03 252.77,7.79 274.29,7.79 274.29,1.04 	"/>
	<path fill="#9A5A58" d="M313.77,22.75h-8.5V7.521h8.671c3.609,0,6.149,0.55,7.609,1.59c1.41,1.04,2.141,2.939,2.141,5.71
		c0,2.81-0.73,4.8-2.101,6.07C320.21,22.16,317.59,22.75,313.77,22.75z M326.66,4.351C324,2.17,319.61,1.04,313.47,1.04h-15.03
		v42.55h6.83V29.271h8.931l9.67,14.318h8.63l-10.57-15.449c5.801-1.811,8.721-6.25,8.721-13.28
		C330.65,10.061,329.32,6.53,326.66,4.351z"/>
	<rect x="355.21" y="1.04" fill="#9A5A58" width="6.83" height="42.55"/>
	<polygon fill="#9A5A58" points="418.24,32.811 394.79,1.04 387.96,1.04 387.96,43.59 394.79,43.59 394.79,12.55 417.64,43.59 
		425.03,43.59 425.03,1.04 418.24,1.04 	"/>
	<polygon fill="#9A5A58" points="450.96,1.04 450.96,43.59 480,43.59 480,36.84 457.79,36.84 457.79,25.42 477.12,25.42 
		477.12,19.03 457.79,19.03 457.79,7.79 479.31,7.79 479.31,1.04 	"/>
</g>
</svg>
